%TF.GenerationSoftware,KiCad,Pcbnew,7.0.8*%
%TF.CreationDate,2023-11-29T08:17:28+00:00*%
%TF.ProjectId,ZX Interface 1 ROM Adapter,5a582049-6e74-4657-9266-616365203120,rev?*%
%TF.SameCoordinates,Original*%
%TF.FileFunction,Legend,Top*%
%TF.FilePolarity,Positive*%
%FSLAX46Y46*%
G04 Gerber Fmt 4.6, Leading zero omitted, Abs format (unit mm)*
G04 Created by KiCad (PCBNEW 7.0.8) date 2023-11-29 08:17:28*
%MOMM*%
%LPD*%
G01*
G04 APERTURE LIST*
%ADD10C,0.150000*%
%ADD11C,0.120000*%
G04 APERTURE END LIST*
D10*
X91160666Y-79484319D02*
X91160666Y-80198604D01*
X91160666Y-80198604D02*
X91113047Y-80341461D01*
X91113047Y-80341461D02*
X91017809Y-80436700D01*
X91017809Y-80436700D02*
X90874952Y-80484319D01*
X90874952Y-80484319D02*
X90779714Y-80484319D01*
X91589238Y-79579557D02*
X91636857Y-79531938D01*
X91636857Y-79531938D02*
X91732095Y-79484319D01*
X91732095Y-79484319D02*
X91970190Y-79484319D01*
X91970190Y-79484319D02*
X92065428Y-79531938D01*
X92065428Y-79531938D02*
X92113047Y-79579557D01*
X92113047Y-79579557D02*
X92160666Y-79674795D01*
X92160666Y-79674795D02*
X92160666Y-79770033D01*
X92160666Y-79770033D02*
X92113047Y-79912890D01*
X92113047Y-79912890D02*
X91541619Y-80484319D01*
X91541619Y-80484319D02*
X92160666Y-80484319D01*
X102921366Y-81582319D02*
X102921366Y-82296604D01*
X102921366Y-82296604D02*
X102873747Y-82439461D01*
X102873747Y-82439461D02*
X102778509Y-82534700D01*
X102778509Y-82534700D02*
X102635652Y-82582319D01*
X102635652Y-82582319D02*
X102540414Y-82582319D01*
X103921366Y-82582319D02*
X103349938Y-82582319D01*
X103635652Y-82582319D02*
X103635652Y-81582319D01*
X103635652Y-81582319D02*
X103540414Y-81725176D01*
X103540414Y-81725176D02*
X103445176Y-81820414D01*
X103445176Y-81820414D02*
X103349938Y-81868033D01*
D11*
%TO.C,J2*%
X82434000Y-80969500D02*
X82434000Y-111689500D01*
X82434000Y-111689500D02*
X100554000Y-111689500D01*
X85434000Y-81029500D02*
X85434000Y-111629500D01*
X85434000Y-111629500D02*
X97554000Y-111629500D01*
X90494000Y-81029500D02*
X85434000Y-81029500D01*
X97554000Y-81029500D02*
X92494000Y-81029500D01*
X97554000Y-111629500D02*
X97554000Y-81029500D01*
X100554000Y-80969500D02*
X82434000Y-80969500D01*
X100554000Y-111689500D02*
X100554000Y-80969500D01*
X90494000Y-81029500D02*
G75*
G03*
X92494000Y-81029500I1000000J0D01*
G01*
%TO.C,J1*%
X101924700Y-86167500D02*
X101924700Y-104007500D01*
X101924700Y-86167500D02*
X104584700Y-86167500D01*
X101924700Y-104007500D02*
X104584700Y-104007500D01*
X103254700Y-83567500D02*
X104584700Y-83567500D01*
X104584700Y-83567500D02*
X104584700Y-84897500D01*
X104584700Y-86167500D02*
X104584700Y-104007500D01*
%TD*%
M02*
