M48
METRIC
T1C0.800
T2C1.000
%
G90
G05
T1
X83.874Y-82.359
X83.874Y-84.899
X83.874Y-87.439
X83.874Y-89.98
X83.874Y-92.519
X83.874Y-95.059
X83.874Y-97.599
X83.874Y-100.139
X83.874Y-102.679
X83.874Y-105.219
X83.874Y-107.759
X83.874Y-110.299
X99.114Y-82.359
X99.114Y-84.899
X99.114Y-87.439
X99.114Y-89.98
X99.114Y-92.519
X99.114Y-95.059
X99.114Y-97.599
X99.114Y-100.139
X99.114Y-102.679
X99.114Y-105.219
X99.114Y-107.759
X99.114Y-110.299
T2
X79.051Y-72.203
X79.051Y-74.743
X79.051Y-77.283
X79.051Y-79.823
X79.051Y-82.363
X79.051Y-84.903
X79.051Y-87.443
X79.051Y-89.983
X79.051Y-92.523
X79.051Y-95.063
X79.051Y-97.603
X79.051Y-100.143
X79.051Y-102.683
X79.051Y-105.223
X79.051Y-107.763
X79.051Y-110.303
X94.291Y-72.203
X94.291Y-74.743
X94.291Y-77.283
X94.291Y-79.823
X94.291Y-82.363
X94.291Y-84.903
X94.291Y-87.443
X94.291Y-89.983
X94.291Y-92.523
X94.291Y-95.063
X94.291Y-97.603
X94.291Y-100.143
X94.291Y-102.683
X94.291Y-105.223
X94.291Y-107.763
X94.291Y-110.303
X103.267Y-84.839
X103.267Y-87.379
X103.267Y-89.919
X103.267Y-92.459
X103.267Y-94.999
X103.267Y-97.539
X103.267Y-100.079
X103.267Y-102.619
T0
M30
