%TF.GenerationSoftware,KiCad,Pcbnew,7.0.8*%
%TF.CreationDate,2023-11-30T16:12:54+00:00*%
%TF.ProjectId,ZX Interface 1 ROM Adapter,5a582049-6e74-4657-9266-616365203120,rev?*%
%TF.SameCoordinates,Original*%
%TF.FileFunction,Copper,L1,Top*%
%TF.FilePolarity,Positive*%
%FSLAX46Y46*%
G04 Gerber Fmt 4.6, Leading zero omitted, Abs format (unit mm)*
G04 Created by KiCad (PCBNEW 7.0.8) date 2023-11-30 16:12:54*
%MOMM*%
%LPD*%
G01*
G04 APERTURE LIST*
%TA.AperFunction,ComponentPad*%
%ADD10O,1.700000X1.700000*%
%TD*%
%TA.AperFunction,ComponentPad*%
%ADD11R,1.700000X1.700000*%
%TD*%
%TA.AperFunction,ComponentPad*%
%ADD12R,2.400000X1.600000*%
%TD*%
%TA.AperFunction,ComponentPad*%
%ADD13O,2.400000X1.600000*%
%TD*%
%TA.AperFunction,Conductor*%
%ADD14C,0.250000*%
%TD*%
G04 APERTURE END LIST*
D10*
%TO.P,J1,8,Pin_8*%
%TO.N,/CE*%
X103266875Y-102619175D03*
%TO.P,J1,7,Pin_7*%
%TO.N,/A13*%
X103266875Y-100079175D03*
%TO.P,J1,6,Pin_6*%
%TO.N,/A14*%
X103266875Y-97539175D03*
%TO.P,J1,5,Pin_5*%
%TO.N,/A15*%
X103266875Y-94999175D03*
%TO.P,J1,4,Pin_4*%
%TO.N,/A16*%
X103266875Y-92459175D03*
%TO.P,J1,3,Pin_3*%
%TO.N,/A17*%
X103266875Y-89919175D03*
%TO.P,J1,2,Pin_2*%
%TO.N,/A18*%
X103266875Y-87379175D03*
D11*
%TO.P,J1,1,Pin_1*%
%TO.N,/WE*%
X103266875Y-84839175D03*
%TD*%
D12*
%TO.P,J2,1,1*%
%TO.N,/A7*%
X83874000Y-82359500D03*
D13*
%TO.P,J2,2,2*%
%TO.N,/A6*%
X83874000Y-84899500D03*
%TO.P,J2,3,3*%
%TO.N,/A5*%
X83874000Y-87439500D03*
%TO.P,J2,4,4*%
%TO.N,/A4*%
X83874000Y-89979500D03*
%TO.P,J2,5,5*%
%TO.N,/A3*%
X83874000Y-92519500D03*
%TO.P,J2,6,6*%
%TO.N,/A2*%
X83874000Y-95059500D03*
%TO.P,J2,7,7*%
%TO.N,/A1*%
X83874000Y-97599500D03*
%TO.P,J2,8,8*%
%TO.N,/A0*%
X83874000Y-100139500D03*
%TO.P,J2,9,9*%
%TO.N,/D0*%
X83874000Y-102679500D03*
%TO.P,J2,10,10*%
%TO.N,/D1*%
X83874000Y-105219500D03*
%TO.P,J2,11,11*%
%TO.N,/D2*%
X83874000Y-107759500D03*
%TO.P,J2,12,12*%
%TO.N,/GND*%
X83874000Y-110299500D03*
%TO.P,J2,13,13*%
%TO.N,/D3*%
X99114000Y-110299500D03*
%TO.P,J2,14,14*%
%TO.N,/D4*%
X99114000Y-107759500D03*
%TO.P,J2,15,15*%
%TO.N,/D5*%
X99114000Y-105219500D03*
%TO.P,J2,16,16*%
%TO.N,/D6*%
X99114000Y-102679500D03*
%TO.P,J2,17,17*%
%TO.N,/D7*%
X99114000Y-100139500D03*
%TO.P,J2,18,18*%
%TO.N,/A11*%
X99114000Y-97599500D03*
%TO.P,J2,19,19*%
%TO.N,/A10*%
X99114000Y-95059500D03*
%TO.P,J2,20,20*%
%TO.N,/OE*%
X99114000Y-92519500D03*
%TO.P,J2,21,21*%
%TO.N,/A12*%
X99114000Y-89979500D03*
%TO.P,J2,22,22*%
%TO.N,/A9*%
X99114000Y-87439500D03*
%TO.P,J2,23,23*%
%TO.N,/A8*%
X99114000Y-84899500D03*
%TO.P,J2,24,24*%
%TO.N,/VCC*%
X99114000Y-82359500D03*
%TD*%
D11*
%TO.P,J3,1,Pin_1*%
%TO.N,/A18*%
X79051200Y-72202700D03*
D10*
%TO.P,J3,2,Pin_2*%
%TO.N,/A16*%
X79051200Y-74742700D03*
%TO.P,J3,3,Pin_3*%
%TO.N,/A15*%
X79051200Y-77282700D03*
%TO.P,J3,4,Pin_4*%
%TO.N,/A12*%
X79051200Y-79822700D03*
%TO.P,J3,5,Pin_5*%
%TO.N,/A7*%
X79051200Y-82362700D03*
%TO.P,J3,6,Pin_6*%
%TO.N,/A6*%
X79051200Y-84902700D03*
%TO.P,J3,7,Pin_7*%
%TO.N,/A5*%
X79051200Y-87442700D03*
%TO.P,J3,8,Pin_8*%
%TO.N,/A4*%
X79051200Y-89982700D03*
%TO.P,J3,9,Pin_9*%
%TO.N,/A3*%
X79051200Y-92522700D03*
%TO.P,J3,10,Pin_10*%
%TO.N,/A2*%
X79051200Y-95062700D03*
%TO.P,J3,11,Pin_11*%
%TO.N,/A1*%
X79051200Y-97602700D03*
%TO.P,J3,12,Pin_12*%
%TO.N,/A0*%
X79051200Y-100142700D03*
%TO.P,J3,13,Pin_13*%
%TO.N,/D0*%
X79051200Y-102682700D03*
%TO.P,J3,14,Pin_14*%
%TO.N,/D1*%
X79051200Y-105222700D03*
%TO.P,J3,15,Pin_15*%
%TO.N,/D2*%
X79051200Y-107762700D03*
%TO.P,J3,16,Pin_16*%
%TO.N,/GND*%
X79051200Y-110302700D03*
%TD*%
D11*
%TO.P,J4,1,Pin_1*%
%TO.N,/VCC*%
X94291200Y-72202700D03*
D10*
%TO.P,J4,2,Pin_2*%
%TO.N,/WE*%
X94291200Y-74742700D03*
%TO.P,J4,3,Pin_3*%
%TO.N,/A17*%
X94291200Y-77282700D03*
%TO.P,J4,4,Pin_4*%
%TO.N,/A14*%
X94291200Y-79822700D03*
%TO.P,J4,5,Pin_5*%
%TO.N,/A13*%
X94291200Y-82362700D03*
%TO.P,J4,6,Pin_6*%
%TO.N,/A8*%
X94291200Y-84902700D03*
%TO.P,J4,7,Pin_7*%
%TO.N,/A9*%
X94291200Y-87442700D03*
%TO.P,J4,8,Pin_8*%
%TO.N,/A11*%
X94291200Y-89982700D03*
%TO.P,J4,9,Pin_9*%
%TO.N,/OE*%
X94291200Y-92522700D03*
%TO.P,J4,10,Pin_10*%
%TO.N,/A10*%
X94291200Y-95062700D03*
%TO.P,J4,11,Pin_11*%
%TO.N,/CE*%
X94291200Y-97602700D03*
%TO.P,J4,12,Pin_12*%
%TO.N,/D7*%
X94291200Y-100142700D03*
%TO.P,J4,13,Pin_13*%
%TO.N,/D6*%
X94291200Y-102682700D03*
%TO.P,J4,14,Pin_14*%
%TO.N,/D5*%
X94291200Y-105222700D03*
%TO.P,J4,15,Pin_15*%
%TO.N,/D4*%
X94291200Y-107762700D03*
%TO.P,J4,16,Pin_16*%
%TO.N,/D3*%
X94291200Y-110302700D03*
%TD*%
D14*
%TO.N,/A17*%
X102077800Y-85851000D02*
X99910700Y-83683900D01*
X103254700Y-88800600D02*
X102926000Y-88800600D01*
X102926000Y-88800600D02*
X102077800Y-87952400D01*
X99910700Y-83683900D02*
X98217600Y-83683900D01*
X94291200Y-77282700D02*
X94291200Y-78459600D01*
X98217600Y-83683900D02*
X97039800Y-82506100D01*
X97039800Y-82506100D02*
X97039800Y-80840400D01*
X97039800Y-80840400D02*
X94659000Y-78459600D01*
X102077800Y-87952400D02*
X102077800Y-85851000D01*
X103254700Y-89977500D02*
X103254700Y-88800600D01*
X94659000Y-78459600D02*
X94291200Y-78459600D01*
%TO.N,/A14*%
X99843500Y-86169500D02*
X101588700Y-87914700D01*
X95468100Y-81808600D02*
X95468100Y-83307500D01*
X98330100Y-86169500D02*
X99843500Y-86169500D01*
X102888900Y-96420600D02*
X103254700Y-96420600D01*
X103254700Y-97597500D02*
X103254700Y-96420600D01*
X101588700Y-95120400D02*
X102888900Y-96420600D01*
X101588700Y-87914700D02*
X101588700Y-95120400D01*
X94291200Y-80999600D02*
X94659100Y-80999600D01*
X94291200Y-79822700D02*
X94291200Y-80999600D01*
X95468100Y-83307500D02*
X98330100Y-86169500D01*
X94659100Y-80999600D02*
X95468100Y-81808600D01*
%TO.N,/A13*%
X95468100Y-84348600D02*
X95468100Y-85833800D01*
X102888900Y-98960600D02*
X103254700Y-98960600D01*
X94659100Y-83539600D02*
X95468100Y-84348600D01*
X103254700Y-100137500D02*
X103254700Y-98960600D01*
X95468100Y-85833800D02*
X98343800Y-88709500D01*
X98343800Y-88709500D02*
X99850300Y-88709500D01*
X101099000Y-97170700D02*
X102888900Y-98960600D01*
X94291200Y-82362700D02*
X94291200Y-83539600D01*
X94291200Y-83539600D02*
X94659100Y-83539600D01*
X99850300Y-88709500D02*
X101099000Y-89958200D01*
X101099000Y-89958200D02*
X101099000Y-97170700D01*
%TO.N,/CE*%
X100809800Y-101409500D02*
X102077800Y-102677500D01*
X95468100Y-97602700D02*
X95468100Y-98558900D01*
X98318700Y-101409500D02*
X100809800Y-101409500D01*
X94291200Y-97602700D02*
X95468100Y-97602700D01*
X95468100Y-98558900D02*
X98318700Y-101409500D01*
X103254700Y-102677500D02*
X102077800Y-102677500D01*
%TO.N,/A11*%
X94291200Y-91159600D02*
X94659100Y-91159600D01*
X99114000Y-97599500D02*
X97587100Y-97599500D01*
X97587100Y-94087600D02*
X97587100Y-97599500D01*
X94291200Y-89982700D02*
X94291200Y-91159600D01*
X94659100Y-91159600D02*
X97587100Y-94087600D01*
%TO.N,/VCC*%
X94291200Y-72202700D02*
X94291200Y-73379600D01*
X94291200Y-73379600D02*
X94659000Y-73379600D01*
X99114000Y-82359500D02*
X97587100Y-82359500D01*
X94659000Y-73379600D02*
X97587100Y-76307700D01*
X97587100Y-76307700D02*
X97587100Y-82359500D01*
%TD*%
%TA.AperFunction,NonConductor*%
G36*
X106654789Y-69431535D02*
G01*
X106700544Y-69484339D01*
X106711750Y-69535850D01*
X106711750Y-112875500D01*
X106692065Y-112942539D01*
X106639261Y-112988294D01*
X106587750Y-112999500D01*
X76301775Y-112999500D01*
X76234736Y-112979815D01*
X76188981Y-112927011D01*
X76177775Y-112875500D01*
X76177775Y-110302700D01*
X77695541Y-110302700D01*
X77716136Y-110538103D01*
X77716138Y-110538113D01*
X77777294Y-110766355D01*
X77777296Y-110766359D01*
X77777297Y-110766363D01*
X77863969Y-110952232D01*
X77877165Y-110980530D01*
X77877167Y-110980534D01*
X77985481Y-111135221D01*
X78012705Y-111174101D01*
X78179799Y-111341195D01*
X78276584Y-111408965D01*
X78373365Y-111476732D01*
X78373367Y-111476733D01*
X78373370Y-111476735D01*
X78587537Y-111576603D01*
X78815792Y-111637763D01*
X79004118Y-111654239D01*
X79051199Y-111658359D01*
X79051200Y-111658359D01*
X79051201Y-111658359D01*
X79090434Y-111654926D01*
X79286608Y-111637763D01*
X79514863Y-111576603D01*
X79729030Y-111476735D01*
X79922601Y-111341195D01*
X80089695Y-111174101D01*
X80225235Y-110980530D01*
X80325103Y-110766363D01*
X80386263Y-110538108D01*
X80406859Y-110302700D01*
X80406579Y-110299501D01*
X82168532Y-110299501D01*
X82188364Y-110526186D01*
X82188366Y-110526197D01*
X82247258Y-110745988D01*
X82247261Y-110745997D01*
X82343431Y-110952232D01*
X82343432Y-110952234D01*
X82473954Y-111138641D01*
X82634858Y-111299545D01*
X82634861Y-111299547D01*
X82821266Y-111430068D01*
X83027504Y-111526239D01*
X83247308Y-111585135D01*
X83417216Y-111600000D01*
X84330784Y-111600000D01*
X84500692Y-111585135D01*
X84720496Y-111526239D01*
X84926734Y-111430068D01*
X85113139Y-111299547D01*
X85274047Y-111138639D01*
X85404568Y-110952234D01*
X85500739Y-110745996D01*
X85559635Y-110526192D01*
X85579188Y-110302700D01*
X92935541Y-110302700D01*
X92956136Y-110538103D01*
X92956138Y-110538113D01*
X93017294Y-110766355D01*
X93017296Y-110766359D01*
X93017297Y-110766363D01*
X93103969Y-110952232D01*
X93117165Y-110980530D01*
X93117167Y-110980534D01*
X93225481Y-111135221D01*
X93252705Y-111174101D01*
X93419799Y-111341195D01*
X93516584Y-111408965D01*
X93613365Y-111476732D01*
X93613367Y-111476733D01*
X93613370Y-111476735D01*
X93827537Y-111576603D01*
X94055792Y-111637763D01*
X94244118Y-111654239D01*
X94291199Y-111658359D01*
X94291200Y-111658359D01*
X94291201Y-111658359D01*
X94330434Y-111654926D01*
X94526608Y-111637763D01*
X94754863Y-111576603D01*
X94969030Y-111476735D01*
X95162601Y-111341195D01*
X95329695Y-111174101D01*
X95465235Y-110980530D01*
X95565103Y-110766363D01*
X95626263Y-110538108D01*
X95646859Y-110302700D01*
X95626263Y-110067292D01*
X95565103Y-109839037D01*
X95465235Y-109624871D01*
X95350045Y-109460361D01*
X95329694Y-109431297D01*
X95162602Y-109264206D01*
X95162596Y-109264201D01*
X94977042Y-109134275D01*
X94933417Y-109079698D01*
X94926223Y-109010200D01*
X94957746Y-108947845D01*
X94977042Y-108931125D01*
X95035679Y-108890067D01*
X95162601Y-108801195D01*
X95329695Y-108634101D01*
X95465235Y-108440530D01*
X95565103Y-108226363D01*
X95626263Y-107998108D01*
X95646859Y-107762700D01*
X95626263Y-107527292D01*
X95565103Y-107299037D01*
X95465235Y-107084871D01*
X95350045Y-106920361D01*
X95329694Y-106891297D01*
X95162602Y-106724206D01*
X95162596Y-106724201D01*
X94977042Y-106594275D01*
X94933417Y-106539698D01*
X94926223Y-106470200D01*
X94957746Y-106407845D01*
X94977042Y-106391125D01*
X95035679Y-106350067D01*
X95162601Y-106261195D01*
X95329695Y-106094101D01*
X95465235Y-105900530D01*
X95565103Y-105686363D01*
X95626263Y-105458108D01*
X95646859Y-105222700D01*
X95626263Y-104987292D01*
X95565103Y-104759037D01*
X95465235Y-104544871D01*
X95350045Y-104380361D01*
X95329694Y-104351297D01*
X95162602Y-104184206D01*
X95162596Y-104184201D01*
X94977042Y-104054275D01*
X94933417Y-103999698D01*
X94926223Y-103930200D01*
X94957746Y-103867845D01*
X94977042Y-103851125D01*
X95059757Y-103793207D01*
X95162601Y-103721195D01*
X95329695Y-103554101D01*
X95465235Y-103360530D01*
X95565103Y-103146363D01*
X95626263Y-102918108D01*
X95646859Y-102682700D01*
X95626263Y-102447292D01*
X95565103Y-102219037D01*
X95465235Y-102004871D01*
X95420754Y-101941344D01*
X95329694Y-101811297D01*
X95162602Y-101644206D01*
X95162596Y-101644201D01*
X94977042Y-101514275D01*
X94933417Y-101459698D01*
X94926223Y-101390200D01*
X94957746Y-101327845D01*
X94977042Y-101311125D01*
X95067765Y-101247600D01*
X95162601Y-101181195D01*
X95329695Y-101014101D01*
X95465235Y-100820530D01*
X95565103Y-100606363D01*
X95626263Y-100378108D01*
X95646859Y-100142700D01*
X95626652Y-99911739D01*
X95640418Y-99843240D01*
X95689034Y-99793057D01*
X95757062Y-99777123D01*
X95822906Y-99800498D01*
X95837859Y-99813249D01*
X96773356Y-100748747D01*
X97702573Y-101677964D01*
X97736058Y-101739287D01*
X97731074Y-101808979D01*
X97716468Y-101836767D01*
X97583431Y-102026767D01*
X97487261Y-102233002D01*
X97487258Y-102233011D01*
X97428366Y-102452802D01*
X97428364Y-102452813D01*
X97408532Y-102679498D01*
X97408532Y-102679501D01*
X97428364Y-102906186D01*
X97428366Y-102906197D01*
X97487258Y-103125988D01*
X97487261Y-103125997D01*
X97583431Y-103332232D01*
X97583432Y-103332234D01*
X97713954Y-103518641D01*
X97874858Y-103679545D01*
X97874861Y-103679547D01*
X98061266Y-103810068D01*
X98119275Y-103837118D01*
X98171714Y-103883291D01*
X98190866Y-103950484D01*
X98170650Y-104017365D01*
X98119275Y-104061882D01*
X98061267Y-104088931D01*
X98061265Y-104088932D01*
X97874858Y-104219454D01*
X97713954Y-104380358D01*
X97583432Y-104566765D01*
X97583431Y-104566767D01*
X97487261Y-104773002D01*
X97487258Y-104773011D01*
X97428366Y-104992802D01*
X97428364Y-104992813D01*
X97408532Y-105219498D01*
X97408532Y-105219501D01*
X97428364Y-105446186D01*
X97428366Y-105446197D01*
X97487258Y-105665988D01*
X97487261Y-105665997D01*
X97583431Y-105872232D01*
X97583432Y-105872234D01*
X97713954Y-106058641D01*
X97874858Y-106219545D01*
X97874861Y-106219547D01*
X98061266Y-106350068D01*
X98119275Y-106377118D01*
X98171714Y-106423291D01*
X98190866Y-106490484D01*
X98170650Y-106557365D01*
X98119275Y-106601882D01*
X98061267Y-106628931D01*
X98061265Y-106628932D01*
X97874858Y-106759454D01*
X97713954Y-106920358D01*
X97583432Y-107106765D01*
X97583431Y-107106767D01*
X97487261Y-107313002D01*
X97487258Y-107313011D01*
X97428366Y-107532802D01*
X97428364Y-107532813D01*
X97408532Y-107759498D01*
X97408532Y-107759501D01*
X97428364Y-107986186D01*
X97428366Y-107986197D01*
X97487258Y-108205988D01*
X97487261Y-108205997D01*
X97583431Y-108412232D01*
X97583432Y-108412234D01*
X97713954Y-108598641D01*
X97874858Y-108759545D01*
X97874861Y-108759547D01*
X98061266Y-108890068D01*
X98119275Y-108917118D01*
X98171714Y-108963291D01*
X98190866Y-109030484D01*
X98170650Y-109097365D01*
X98119275Y-109141882D01*
X98061267Y-109168931D01*
X98061265Y-109168932D01*
X97874858Y-109299454D01*
X97713954Y-109460358D01*
X97583432Y-109646765D01*
X97583431Y-109646767D01*
X97487261Y-109853002D01*
X97487258Y-109853011D01*
X97428366Y-110072802D01*
X97428364Y-110072813D01*
X97408532Y-110299498D01*
X97408532Y-110299501D01*
X97428364Y-110526186D01*
X97428366Y-110526197D01*
X97487258Y-110745988D01*
X97487261Y-110745997D01*
X97583431Y-110952232D01*
X97583432Y-110952234D01*
X97713954Y-111138641D01*
X97874858Y-111299545D01*
X97874861Y-111299547D01*
X98061266Y-111430068D01*
X98267504Y-111526239D01*
X98487308Y-111585135D01*
X98657216Y-111600000D01*
X99570784Y-111600000D01*
X99740692Y-111585135D01*
X99960496Y-111526239D01*
X100166734Y-111430068D01*
X100353139Y-111299547D01*
X100514047Y-111138639D01*
X100644568Y-110952234D01*
X100740739Y-110745996D01*
X100799635Y-110526192D01*
X100819468Y-110299500D01*
X100799635Y-110072808D01*
X100740739Y-109853004D01*
X100644568Y-109646766D01*
X100514047Y-109460361D01*
X100514045Y-109460358D01*
X100353141Y-109299454D01*
X100166734Y-109168932D01*
X100166728Y-109168929D01*
X100108725Y-109141882D01*
X100056285Y-109095710D01*
X100037133Y-109028517D01*
X100057348Y-108961635D01*
X100108725Y-108917118D01*
X100166734Y-108890068D01*
X100353139Y-108759547D01*
X100514047Y-108598639D01*
X100644568Y-108412234D01*
X100740739Y-108205996D01*
X100799635Y-107986192D01*
X100819468Y-107759500D01*
X100799635Y-107532808D01*
X100740739Y-107313004D01*
X100644568Y-107106766D01*
X100514047Y-106920361D01*
X100514045Y-106920358D01*
X100353141Y-106759454D01*
X100166734Y-106628932D01*
X100166728Y-106628929D01*
X100108725Y-106601882D01*
X100056285Y-106555710D01*
X100037133Y-106488517D01*
X100057348Y-106421635D01*
X100108725Y-106377118D01*
X100166734Y-106350068D01*
X100353139Y-106219547D01*
X100514047Y-106058639D01*
X100644568Y-105872234D01*
X100740739Y-105665996D01*
X100799635Y-105446192D01*
X100819468Y-105219500D01*
X100799635Y-104992808D01*
X100740739Y-104773004D01*
X100644568Y-104566766D01*
X100514047Y-104380361D01*
X100514045Y-104380358D01*
X100353141Y-104219454D01*
X100166734Y-104088932D01*
X100166728Y-104088929D01*
X100108725Y-104061882D01*
X100056285Y-104015710D01*
X100037133Y-103948517D01*
X100057348Y-103881635D01*
X100108725Y-103837118D01*
X100166734Y-103810068D01*
X100353139Y-103679547D01*
X100514047Y-103518639D01*
X100644568Y-103332234D01*
X100740739Y-103125996D01*
X100799635Y-102906192D01*
X100819468Y-102679500D01*
X100813135Y-102607120D01*
X100826901Y-102538624D01*
X100875516Y-102488440D01*
X100943544Y-102472506D01*
X101009388Y-102495881D01*
X101024344Y-102508634D01*
X101576994Y-103061284D01*
X101586819Y-103073548D01*
X101587040Y-103073366D01*
X101592010Y-103079373D01*
X101592013Y-103079376D01*
X101592014Y-103079377D01*
X101642451Y-103126741D01*
X101662065Y-103146355D01*
X101663329Y-103147619D01*
X101668804Y-103151866D01*
X101673246Y-103155660D01*
X101707215Y-103187560D01*
X101707217Y-103187561D01*
X101707218Y-103187562D01*
X101724776Y-103197214D01*
X101741037Y-103207896D01*
X101756864Y-103220173D01*
X101799623Y-103238676D01*
X101804873Y-103241248D01*
X101845704Y-103263695D01*
X101845708Y-103263697D01*
X101845712Y-103263698D01*
X101865111Y-103268679D01*
X101883522Y-103274983D01*
X101901897Y-103282935D01*
X101901900Y-103282935D01*
X101901905Y-103282938D01*
X101947949Y-103290229D01*
X101953632Y-103291406D01*
X101998781Y-103303000D01*
X102018816Y-103303000D01*
X102038205Y-103304525D01*
X102053589Y-103306962D01*
X102116723Y-103336889D01*
X102135766Y-103358311D01*
X102137323Y-103360534D01*
X102228380Y-103490576D01*
X102395474Y-103657670D01*
X102426715Y-103679545D01*
X102589040Y-103793207D01*
X102589042Y-103793208D01*
X102589045Y-103793210D01*
X102803212Y-103893078D01*
X103031467Y-103954238D01*
X103219793Y-103970714D01*
X103266874Y-103974834D01*
X103266875Y-103974834D01*
X103266876Y-103974834D01*
X103306109Y-103971401D01*
X103502283Y-103954238D01*
X103730538Y-103893078D01*
X103944705Y-103793210D01*
X104138276Y-103657670D01*
X104305370Y-103490576D01*
X104440910Y-103297005D01*
X104540778Y-103082838D01*
X104601938Y-102854583D01*
X104622534Y-102619175D01*
X104601938Y-102383767D01*
X104540778Y-102155512D01*
X104440910Y-101941346D01*
X104367684Y-101836767D01*
X104305369Y-101747772D01*
X104138277Y-101580681D01*
X104138271Y-101580676D01*
X103952717Y-101450750D01*
X103909092Y-101396173D01*
X103901898Y-101326675D01*
X103933421Y-101264320D01*
X103952717Y-101247600D01*
X103974901Y-101232066D01*
X104138276Y-101117670D01*
X104305370Y-100950576D01*
X104440910Y-100757005D01*
X104540778Y-100542838D01*
X104601938Y-100314583D01*
X104622534Y-100079175D01*
X104601938Y-99843767D01*
X104540778Y-99615512D01*
X104440910Y-99401346D01*
X104428762Y-99383996D01*
X104305369Y-99207772D01*
X104138277Y-99040681D01*
X104138271Y-99040676D01*
X103952717Y-98910750D01*
X103909092Y-98856173D01*
X103901898Y-98786675D01*
X103933421Y-98724320D01*
X103952717Y-98707600D01*
X103974901Y-98692066D01*
X104138276Y-98577670D01*
X104305370Y-98410576D01*
X104440910Y-98217005D01*
X104540778Y-98002838D01*
X104601938Y-97774583D01*
X104622534Y-97539175D01*
X104601938Y-97303767D01*
X104540778Y-97075512D01*
X104440910Y-96861346D01*
X104440141Y-96860247D01*
X104305369Y-96667772D01*
X104138277Y-96500681D01*
X104138271Y-96500676D01*
X103952717Y-96370750D01*
X103909092Y-96316173D01*
X103901898Y-96246675D01*
X103933421Y-96184320D01*
X103952717Y-96167600D01*
X103974901Y-96152066D01*
X104138276Y-96037670D01*
X104305370Y-95870576D01*
X104440910Y-95677005D01*
X104540778Y-95462838D01*
X104601938Y-95234583D01*
X104622534Y-94999175D01*
X104601938Y-94763767D01*
X104540778Y-94535512D01*
X104440910Y-94321346D01*
X104433226Y-94310371D01*
X104305369Y-94127772D01*
X104138277Y-93960681D01*
X104138271Y-93960676D01*
X103952717Y-93830750D01*
X103909092Y-93776173D01*
X103901898Y-93706675D01*
X103933421Y-93644320D01*
X103952717Y-93627600D01*
X104039865Y-93566578D01*
X104138276Y-93497670D01*
X104305370Y-93330576D01*
X104440910Y-93137005D01*
X104540778Y-92922838D01*
X104601938Y-92694583D01*
X104622534Y-92459175D01*
X104601938Y-92223767D01*
X104540778Y-91995512D01*
X104440910Y-91781346D01*
X104349851Y-91651299D01*
X104305369Y-91587772D01*
X104138277Y-91420681D01*
X104138271Y-91420676D01*
X103952717Y-91290750D01*
X103909092Y-91236173D01*
X103901898Y-91166675D01*
X103933421Y-91104320D01*
X103952717Y-91087600D01*
X104039865Y-91026578D01*
X104138276Y-90957670D01*
X104305370Y-90790576D01*
X104440910Y-90597005D01*
X104540778Y-90382838D01*
X104601938Y-90154583D01*
X104622534Y-89919175D01*
X104601938Y-89683767D01*
X104540778Y-89455512D01*
X104440910Y-89241346D01*
X104370193Y-89140350D01*
X104305369Y-89047772D01*
X104138277Y-88880681D01*
X104138271Y-88880676D01*
X103952717Y-88750750D01*
X103909092Y-88696173D01*
X103901898Y-88626675D01*
X103933421Y-88564320D01*
X103952717Y-88547600D01*
X103974901Y-88532066D01*
X104138276Y-88417670D01*
X104305370Y-88250576D01*
X104440910Y-88057005D01*
X104540778Y-87842838D01*
X104601938Y-87614583D01*
X104622534Y-87379175D01*
X104601938Y-87143767D01*
X104540778Y-86915512D01*
X104440910Y-86701346D01*
X104427383Y-86682028D01*
X104305371Y-86507775D01*
X104290621Y-86493025D01*
X104183442Y-86385846D01*
X104149959Y-86324526D01*
X104154943Y-86254834D01*
X104196814Y-86198900D01*
X104227790Y-86181985D01*
X104359206Y-86132971D01*
X104474421Y-86046721D01*
X104560671Y-85931506D01*
X104610966Y-85796658D01*
X104617375Y-85737048D01*
X104617374Y-83941303D01*
X104612174Y-83892932D01*
X104610966Y-83881691D01*
X104560672Y-83746846D01*
X104560668Y-83746839D01*
X104474422Y-83631630D01*
X104474419Y-83631627D01*
X104359210Y-83545381D01*
X104359203Y-83545377D01*
X104224357Y-83495083D01*
X104224358Y-83495083D01*
X104164758Y-83488676D01*
X104164756Y-83488675D01*
X104164748Y-83488675D01*
X104164739Y-83488675D01*
X102369004Y-83488675D01*
X102368998Y-83488676D01*
X102309391Y-83495083D01*
X102174546Y-83545377D01*
X102174539Y-83545381D01*
X102059330Y-83631627D01*
X102059327Y-83631630D01*
X101973081Y-83746839D01*
X101973077Y-83746846D01*
X101922783Y-83881692D01*
X101916376Y-83941291D01*
X101916376Y-83941298D01*
X101916375Y-83941310D01*
X101916375Y-84505622D01*
X101896690Y-84572661D01*
X101843886Y-84618416D01*
X101774728Y-84628360D01*
X101711172Y-84599335D01*
X101704694Y-84593303D01*
X100499719Y-83388328D01*
X100466234Y-83327005D01*
X100471218Y-83257313D01*
X100499717Y-83212968D01*
X100514047Y-83198639D01*
X100644568Y-83012234D01*
X100740739Y-82805996D01*
X100799635Y-82586192D01*
X100819468Y-82359500D01*
X100799635Y-82132808D01*
X100740739Y-81913004D01*
X100644568Y-81706766D01*
X100514047Y-81520361D01*
X100514045Y-81520358D01*
X100353141Y-81359454D01*
X100166734Y-81228932D01*
X100166732Y-81228931D01*
X99960497Y-81132761D01*
X99960488Y-81132758D01*
X99740697Y-81073866D01*
X99740687Y-81073864D01*
X99570784Y-81059000D01*
X98657216Y-81059000D01*
X98487312Y-81073864D01*
X98487302Y-81073866D01*
X98368693Y-81105647D01*
X98298843Y-81103984D01*
X98240981Y-81064821D01*
X98213477Y-81000592D01*
X98212600Y-80985872D01*
X98212600Y-76390442D01*
X98214324Y-76374822D01*
X98214039Y-76374795D01*
X98214773Y-76367033D01*
X98212600Y-76297872D01*
X98212600Y-76268356D01*
X98212600Y-76268350D01*
X98211731Y-76261479D01*
X98211273Y-76255652D01*
X98209810Y-76209073D01*
X98204219Y-76189830D01*
X98200273Y-76170778D01*
X98197764Y-76150908D01*
X98180604Y-76107567D01*
X98178724Y-76102079D01*
X98165718Y-76057310D01*
X98155522Y-76040070D01*
X98146961Y-76022594D01*
X98139587Y-76003970D01*
X98139586Y-76003968D01*
X98112179Y-75966245D01*
X98108988Y-75961386D01*
X98085272Y-75921283D01*
X98085265Y-75921274D01*
X98071106Y-75907115D01*
X98058468Y-75892319D01*
X98046694Y-75876113D01*
X98010788Y-75846409D01*
X98006476Y-75842486D01*
X95606140Y-73442149D01*
X95572655Y-73380826D01*
X95577639Y-73311134D01*
X95584993Y-73295034D01*
X95584996Y-73295031D01*
X95635291Y-73160183D01*
X95641700Y-73100573D01*
X95641699Y-71304828D01*
X95635291Y-71245217D01*
X95584996Y-71110369D01*
X95584995Y-71110368D01*
X95584993Y-71110364D01*
X95498747Y-70995155D01*
X95498744Y-70995152D01*
X95383535Y-70908906D01*
X95383528Y-70908902D01*
X95248682Y-70858608D01*
X95248683Y-70858608D01*
X95189083Y-70852201D01*
X95189081Y-70852200D01*
X95189073Y-70852200D01*
X95189064Y-70852200D01*
X93393329Y-70852200D01*
X93393323Y-70852201D01*
X93333716Y-70858608D01*
X93198871Y-70908902D01*
X93198864Y-70908906D01*
X93083655Y-70995152D01*
X93083652Y-70995155D01*
X92997406Y-71110364D01*
X92997402Y-71110371D01*
X92947108Y-71245217D01*
X92940701Y-71304816D01*
X92940701Y-71304823D01*
X92940700Y-71304835D01*
X92940700Y-73100570D01*
X92940701Y-73100576D01*
X92947108Y-73160183D01*
X92997402Y-73295028D01*
X92997406Y-73295035D01*
X93083652Y-73410244D01*
X93083655Y-73410247D01*
X93198864Y-73496493D01*
X93198871Y-73496497D01*
X93330281Y-73545510D01*
X93386215Y-73587381D01*
X93410632Y-73652845D01*
X93395780Y-73721118D01*
X93374630Y-73749373D01*
X93252703Y-73871300D01*
X93117165Y-74064869D01*
X93117164Y-74064871D01*
X93017298Y-74279035D01*
X93017294Y-74279044D01*
X92956138Y-74507286D01*
X92956136Y-74507296D01*
X92935541Y-74742699D01*
X92935541Y-74742700D01*
X92956136Y-74978103D01*
X92956138Y-74978113D01*
X93017294Y-75206355D01*
X93017296Y-75206359D01*
X93017297Y-75206363D01*
X93117165Y-75420530D01*
X93117167Y-75420534D01*
X93252701Y-75614095D01*
X93252706Y-75614102D01*
X93419797Y-75781193D01*
X93419803Y-75781198D01*
X93605358Y-75911125D01*
X93648983Y-75965702D01*
X93656177Y-76035200D01*
X93624654Y-76097555D01*
X93605358Y-76114275D01*
X93419797Y-76244205D01*
X93252705Y-76411297D01*
X93117165Y-76604869D01*
X93117164Y-76604871D01*
X93017298Y-76819035D01*
X93017294Y-76819044D01*
X92956138Y-77047286D01*
X92956136Y-77047296D01*
X92935541Y-77282699D01*
X92935541Y-77282700D01*
X92956136Y-77518103D01*
X92956138Y-77518113D01*
X93017294Y-77746355D01*
X93017296Y-77746359D01*
X93017297Y-77746363D01*
X93117165Y-77960530D01*
X93117167Y-77960534D01*
X93252701Y-78154095D01*
X93252706Y-78154102D01*
X93419797Y-78321193D01*
X93419803Y-78321198D01*
X93605358Y-78451125D01*
X93648983Y-78505702D01*
X93656177Y-78575200D01*
X93624654Y-78637555D01*
X93605358Y-78654275D01*
X93419797Y-78784205D01*
X93252705Y-78951297D01*
X93117165Y-79144869D01*
X93117164Y-79144871D01*
X93017298Y-79359035D01*
X93017294Y-79359044D01*
X92956138Y-79587286D01*
X92956136Y-79587296D01*
X92935541Y-79822699D01*
X92935541Y-79822700D01*
X92956136Y-80058103D01*
X92956138Y-80058113D01*
X93017294Y-80286355D01*
X93017296Y-80286359D01*
X93017297Y-80286363D01*
X93117165Y-80500530D01*
X93117167Y-80500534D01*
X93252701Y-80694095D01*
X93252706Y-80694102D01*
X93419797Y-80861193D01*
X93419803Y-80861198D01*
X93605358Y-80991125D01*
X93648983Y-81045702D01*
X93656177Y-81115200D01*
X93624654Y-81177555D01*
X93605358Y-81194275D01*
X93419797Y-81324205D01*
X93252705Y-81491297D01*
X93117165Y-81684869D01*
X93117164Y-81684871D01*
X93017298Y-81899035D01*
X93017294Y-81899044D01*
X92956138Y-82127286D01*
X92956136Y-82127296D01*
X92935541Y-82362699D01*
X92935541Y-82362700D01*
X92956136Y-82598103D01*
X92956138Y-82598113D01*
X93017294Y-82826355D01*
X93017296Y-82826359D01*
X93017297Y-82826363D01*
X93117165Y-83040530D01*
X93117167Y-83040534D01*
X93252701Y-83234095D01*
X93252706Y-83234102D01*
X93419797Y-83401193D01*
X93419803Y-83401198D01*
X93605358Y-83531125D01*
X93648983Y-83585702D01*
X93656177Y-83655200D01*
X93624654Y-83717555D01*
X93605358Y-83734275D01*
X93419797Y-83864205D01*
X93252705Y-84031297D01*
X93117165Y-84224869D01*
X93117164Y-84224871D01*
X93017298Y-84439035D01*
X93017294Y-84439044D01*
X92956138Y-84667286D01*
X92956136Y-84667296D01*
X92935541Y-84902699D01*
X92935541Y-84902700D01*
X92956136Y-85138103D01*
X92956138Y-85138113D01*
X93017294Y-85366355D01*
X93017296Y-85366359D01*
X93017297Y-85366363D01*
X93082898Y-85507044D01*
X93117165Y-85580530D01*
X93117167Y-85580534D01*
X93252701Y-85774095D01*
X93252706Y-85774102D01*
X93419797Y-85941193D01*
X93419803Y-85941198D01*
X93605358Y-86071125D01*
X93648983Y-86125702D01*
X93656177Y-86195200D01*
X93624654Y-86257555D01*
X93605358Y-86274275D01*
X93419797Y-86404205D01*
X93252705Y-86571297D01*
X93117165Y-86764869D01*
X93117164Y-86764871D01*
X93017298Y-86979035D01*
X93017294Y-86979044D01*
X92956138Y-87207286D01*
X92956136Y-87207296D01*
X92935541Y-87442699D01*
X92935541Y-87442700D01*
X92956136Y-87678103D01*
X92956138Y-87678113D01*
X93017294Y-87906355D01*
X93017296Y-87906359D01*
X93017297Y-87906363D01*
X93079460Y-88039671D01*
X93117165Y-88120530D01*
X93117167Y-88120534D01*
X93252701Y-88314095D01*
X93252706Y-88314102D01*
X93419797Y-88481193D01*
X93419803Y-88481198D01*
X93605358Y-88611125D01*
X93648983Y-88665702D01*
X93656177Y-88735200D01*
X93624654Y-88797555D01*
X93605358Y-88814275D01*
X93419797Y-88944205D01*
X93252705Y-89111297D01*
X93117165Y-89304869D01*
X93117164Y-89304871D01*
X93017298Y-89519035D01*
X93017294Y-89519044D01*
X92956138Y-89747286D01*
X92956136Y-89747296D01*
X92935541Y-89982699D01*
X92935541Y-89982700D01*
X92956136Y-90218103D01*
X92956138Y-90218113D01*
X93017294Y-90446355D01*
X93017296Y-90446359D01*
X93017297Y-90446363D01*
X93087543Y-90597005D01*
X93117165Y-90660530D01*
X93117167Y-90660534D01*
X93252701Y-90854095D01*
X93252706Y-90854102D01*
X93419797Y-91021193D01*
X93419803Y-91021198D01*
X93605358Y-91151125D01*
X93648983Y-91205702D01*
X93656177Y-91275200D01*
X93624654Y-91337555D01*
X93605358Y-91354275D01*
X93419797Y-91484205D01*
X93252705Y-91651297D01*
X93117165Y-91844869D01*
X93117164Y-91844871D01*
X93017298Y-92059035D01*
X93017294Y-92059044D01*
X92956138Y-92287286D01*
X92956136Y-92287296D01*
X92935541Y-92522699D01*
X92935541Y-92522700D01*
X92956136Y-92758103D01*
X92956138Y-92758113D01*
X93017294Y-92986355D01*
X93017296Y-92986359D01*
X93017297Y-92986363D01*
X93080636Y-93122193D01*
X93117165Y-93200530D01*
X93117167Y-93200534D01*
X93252701Y-93394095D01*
X93252706Y-93394102D01*
X93419797Y-93561193D01*
X93419803Y-93561198D01*
X93605358Y-93691125D01*
X93648983Y-93745702D01*
X93656177Y-93815200D01*
X93624654Y-93877555D01*
X93605358Y-93894275D01*
X93419797Y-94024205D01*
X93252705Y-94191297D01*
X93117165Y-94384869D01*
X93117164Y-94384871D01*
X93017298Y-94599035D01*
X93017294Y-94599044D01*
X92956138Y-94827286D01*
X92956136Y-94827296D01*
X92935541Y-95062699D01*
X92935541Y-95062700D01*
X92956136Y-95298103D01*
X92956138Y-95298113D01*
X93017294Y-95526355D01*
X93017296Y-95526359D01*
X93017297Y-95526363D01*
X93087543Y-95677005D01*
X93117165Y-95740530D01*
X93117167Y-95740534D01*
X93252701Y-95934095D01*
X93252706Y-95934102D01*
X93419797Y-96101193D01*
X93419803Y-96101198D01*
X93605358Y-96231125D01*
X93648983Y-96285702D01*
X93656177Y-96355200D01*
X93624654Y-96417555D01*
X93605358Y-96434275D01*
X93419797Y-96564205D01*
X93252705Y-96731297D01*
X93117165Y-96924869D01*
X93117164Y-96924871D01*
X93017298Y-97139035D01*
X93017294Y-97139044D01*
X92956138Y-97367286D01*
X92956136Y-97367296D01*
X92935541Y-97602699D01*
X92935541Y-97602700D01*
X92956136Y-97838103D01*
X92956138Y-97838113D01*
X93017294Y-98066355D01*
X93017296Y-98066359D01*
X93017297Y-98066363D01*
X93091271Y-98225000D01*
X93117165Y-98280530D01*
X93117167Y-98280534D01*
X93252701Y-98474095D01*
X93252706Y-98474102D01*
X93419797Y-98641193D01*
X93419803Y-98641198D01*
X93605358Y-98771125D01*
X93648983Y-98825702D01*
X93656177Y-98895200D01*
X93624654Y-98957555D01*
X93605358Y-98974275D01*
X93419797Y-99104205D01*
X93252705Y-99271297D01*
X93117165Y-99464869D01*
X93117164Y-99464871D01*
X93017298Y-99679035D01*
X93017294Y-99679044D01*
X92956138Y-99907286D01*
X92956136Y-99907296D01*
X92935541Y-100142699D01*
X92935541Y-100142700D01*
X92956136Y-100378103D01*
X92956138Y-100378113D01*
X93017294Y-100606355D01*
X93017296Y-100606359D01*
X93017297Y-100606363D01*
X93083692Y-100748747D01*
X93117165Y-100820530D01*
X93117167Y-100820534D01*
X93252701Y-101014095D01*
X93252706Y-101014102D01*
X93419797Y-101181193D01*
X93419803Y-101181198D01*
X93605358Y-101311125D01*
X93648983Y-101365702D01*
X93656177Y-101435200D01*
X93624654Y-101497555D01*
X93605358Y-101514275D01*
X93419797Y-101644205D01*
X93252705Y-101811297D01*
X93117165Y-102004869D01*
X93117164Y-102004871D01*
X93017298Y-102219035D01*
X93017294Y-102219044D01*
X92956138Y-102447286D01*
X92956136Y-102447296D01*
X92935541Y-102682699D01*
X92935541Y-102682700D01*
X92956136Y-102918103D01*
X92956138Y-102918113D01*
X93017294Y-103146355D01*
X93017296Y-103146359D01*
X93017297Y-103146363D01*
X93077274Y-103274983D01*
X93117165Y-103360530D01*
X93117167Y-103360534D01*
X93252701Y-103554095D01*
X93252706Y-103554102D01*
X93419797Y-103721193D01*
X93419803Y-103721198D01*
X93605358Y-103851125D01*
X93648983Y-103905702D01*
X93656177Y-103975200D01*
X93624654Y-104037555D01*
X93605358Y-104054275D01*
X93419797Y-104184205D01*
X93252705Y-104351297D01*
X93117165Y-104544869D01*
X93117164Y-104544871D01*
X93017298Y-104759035D01*
X93017294Y-104759044D01*
X92956138Y-104987286D01*
X92956136Y-104987296D01*
X92935541Y-105222699D01*
X92935541Y-105222700D01*
X92956136Y-105458103D01*
X92956138Y-105458113D01*
X93017294Y-105686355D01*
X93017296Y-105686359D01*
X93017297Y-105686363D01*
X93103969Y-105872232D01*
X93117165Y-105900530D01*
X93117167Y-105900534D01*
X93252701Y-106094095D01*
X93252706Y-106094102D01*
X93419797Y-106261193D01*
X93419803Y-106261198D01*
X93605358Y-106391125D01*
X93648983Y-106445702D01*
X93656177Y-106515200D01*
X93624654Y-106577555D01*
X93605358Y-106594275D01*
X93419797Y-106724205D01*
X93252705Y-106891297D01*
X93117165Y-107084869D01*
X93117164Y-107084871D01*
X93017298Y-107299035D01*
X93017294Y-107299044D01*
X92956138Y-107527286D01*
X92956136Y-107527296D01*
X92935541Y-107762699D01*
X92935541Y-107762700D01*
X92956136Y-107998103D01*
X92956138Y-107998113D01*
X93017294Y-108226355D01*
X93017296Y-108226359D01*
X93017297Y-108226363D01*
X93103969Y-108412232D01*
X93117165Y-108440530D01*
X93117167Y-108440534D01*
X93252701Y-108634095D01*
X93252706Y-108634102D01*
X93419797Y-108801193D01*
X93419803Y-108801198D01*
X93605358Y-108931125D01*
X93648983Y-108985702D01*
X93656177Y-109055200D01*
X93624654Y-109117555D01*
X93605358Y-109134275D01*
X93419797Y-109264205D01*
X93252705Y-109431297D01*
X93117165Y-109624869D01*
X93117164Y-109624871D01*
X93017298Y-109839035D01*
X93017294Y-109839044D01*
X92956138Y-110067286D01*
X92956136Y-110067296D01*
X92935541Y-110302699D01*
X92935541Y-110302700D01*
X85579188Y-110302700D01*
X85579468Y-110299500D01*
X85559635Y-110072808D01*
X85500739Y-109853004D01*
X85404568Y-109646766D01*
X85274047Y-109460361D01*
X85274045Y-109460358D01*
X85113141Y-109299454D01*
X84926734Y-109168932D01*
X84926728Y-109168929D01*
X84868725Y-109141882D01*
X84816285Y-109095710D01*
X84797133Y-109028517D01*
X84817348Y-108961635D01*
X84868725Y-108917118D01*
X84926734Y-108890068D01*
X85113139Y-108759547D01*
X85274047Y-108598639D01*
X85404568Y-108412234D01*
X85500739Y-108205996D01*
X85559635Y-107986192D01*
X85579468Y-107759500D01*
X85559635Y-107532808D01*
X85500739Y-107313004D01*
X85404568Y-107106766D01*
X85274047Y-106920361D01*
X85274045Y-106920358D01*
X85113141Y-106759454D01*
X84926734Y-106628932D01*
X84926728Y-106628929D01*
X84868725Y-106601882D01*
X84816285Y-106555710D01*
X84797133Y-106488517D01*
X84817348Y-106421635D01*
X84868725Y-106377118D01*
X84926734Y-106350068D01*
X85113139Y-106219547D01*
X85274047Y-106058639D01*
X85404568Y-105872234D01*
X85500739Y-105665996D01*
X85559635Y-105446192D01*
X85579468Y-105219500D01*
X85559635Y-104992808D01*
X85500739Y-104773004D01*
X85404568Y-104566766D01*
X85274047Y-104380361D01*
X85274045Y-104380358D01*
X85113141Y-104219454D01*
X84926734Y-104088932D01*
X84926728Y-104088929D01*
X84868725Y-104061882D01*
X84816285Y-104015710D01*
X84797133Y-103948517D01*
X84817348Y-103881635D01*
X84868725Y-103837118D01*
X84926734Y-103810068D01*
X85113139Y-103679547D01*
X85274047Y-103518639D01*
X85404568Y-103332234D01*
X85500739Y-103125996D01*
X85559635Y-102906192D01*
X85579468Y-102679500D01*
X85559635Y-102452808D01*
X85500739Y-102233004D01*
X85404568Y-102026766D01*
X85274047Y-101840361D01*
X85274045Y-101840358D01*
X85113141Y-101679454D01*
X84926734Y-101548932D01*
X84926728Y-101548929D01*
X84868725Y-101521882D01*
X84816285Y-101475710D01*
X84797133Y-101408517D01*
X84817348Y-101341635D01*
X84868725Y-101297118D01*
X84926734Y-101270068D01*
X85113139Y-101139547D01*
X85274047Y-100978639D01*
X85404568Y-100792234D01*
X85500739Y-100585996D01*
X85559635Y-100366192D01*
X85579468Y-100139500D01*
X85559635Y-99912808D01*
X85500739Y-99693004D01*
X85404568Y-99486766D01*
X85274047Y-99300361D01*
X85274045Y-99300358D01*
X85113141Y-99139454D01*
X84926734Y-99008932D01*
X84926728Y-99008929D01*
X84868725Y-98981882D01*
X84816285Y-98935710D01*
X84797133Y-98868517D01*
X84817348Y-98801635D01*
X84868725Y-98757118D01*
X84926734Y-98730068D01*
X85113139Y-98599547D01*
X85274047Y-98438639D01*
X85404568Y-98252234D01*
X85500739Y-98045996D01*
X85559635Y-97826192D01*
X85579468Y-97599500D01*
X85577858Y-97581103D01*
X85561201Y-97390707D01*
X85559635Y-97372808D01*
X85505591Y-97171113D01*
X85500741Y-97153011D01*
X85500738Y-97153002D01*
X85490918Y-97131943D01*
X85404568Y-96946766D01*
X85274047Y-96760361D01*
X85274045Y-96760358D01*
X85113141Y-96599454D01*
X84926734Y-96468932D01*
X84926728Y-96468929D01*
X84868725Y-96441882D01*
X84816285Y-96395710D01*
X84797133Y-96328517D01*
X84817348Y-96261635D01*
X84868725Y-96217118D01*
X84926734Y-96190068D01*
X85113139Y-96059547D01*
X85274047Y-95898639D01*
X85404568Y-95712234D01*
X85500739Y-95505996D01*
X85559635Y-95286192D01*
X85579468Y-95059500D01*
X85559635Y-94832808D01*
X85500739Y-94613004D01*
X85404568Y-94406766D01*
X85274047Y-94220361D01*
X85274045Y-94220358D01*
X85113141Y-94059454D01*
X84926734Y-93928932D01*
X84926728Y-93928929D01*
X84876546Y-93905529D01*
X84868724Y-93901881D01*
X84816285Y-93855710D01*
X84797133Y-93788517D01*
X84817348Y-93721635D01*
X84868725Y-93677118D01*
X84926734Y-93650068D01*
X85113139Y-93519547D01*
X85274047Y-93358639D01*
X85404568Y-93172234D01*
X85500739Y-92965996D01*
X85559635Y-92746192D01*
X85579468Y-92519500D01*
X85559635Y-92292808D01*
X85500739Y-92073004D01*
X85404568Y-91866766D01*
X85274047Y-91680361D01*
X85274045Y-91680358D01*
X85113141Y-91519454D01*
X84926734Y-91388932D01*
X84926728Y-91388929D01*
X84876546Y-91365529D01*
X84868724Y-91361881D01*
X84816285Y-91315710D01*
X84797133Y-91248517D01*
X84817348Y-91181635D01*
X84868725Y-91137118D01*
X84926734Y-91110068D01*
X85113139Y-90979547D01*
X85274047Y-90818639D01*
X85404568Y-90632234D01*
X85500739Y-90425996D01*
X85559635Y-90206192D01*
X85579468Y-89979500D01*
X85559635Y-89752808D01*
X85500739Y-89533004D01*
X85404568Y-89326766D01*
X85274047Y-89140361D01*
X85274045Y-89140358D01*
X85113141Y-88979454D01*
X84926734Y-88848932D01*
X84926728Y-88848929D01*
X84868725Y-88821882D01*
X84816285Y-88775710D01*
X84797133Y-88708517D01*
X84817348Y-88641635D01*
X84868725Y-88597118D01*
X84926734Y-88570068D01*
X85113139Y-88439547D01*
X85274047Y-88278639D01*
X85404568Y-88092234D01*
X85500739Y-87885996D01*
X85559635Y-87666192D01*
X85579468Y-87439500D01*
X85559635Y-87212808D01*
X85500739Y-86993004D01*
X85404568Y-86786766D01*
X85274047Y-86600361D01*
X85274045Y-86600358D01*
X85113141Y-86439454D01*
X84926734Y-86308932D01*
X84926728Y-86308929D01*
X84868725Y-86281882D01*
X84816285Y-86235710D01*
X84797133Y-86168517D01*
X84817348Y-86101635D01*
X84868725Y-86057118D01*
X84926734Y-86030068D01*
X85113139Y-85899547D01*
X85274047Y-85738639D01*
X85404568Y-85552234D01*
X85500739Y-85345996D01*
X85559635Y-85126192D01*
X85579468Y-84899500D01*
X85559635Y-84672808D01*
X85500739Y-84453004D01*
X85404568Y-84246766D01*
X85274047Y-84060361D01*
X85274045Y-84060358D01*
X85113143Y-83899456D01*
X85088536Y-83882226D01*
X85044912Y-83827649D01*
X85037719Y-83758150D01*
X85069241Y-83695796D01*
X85129471Y-83660382D01*
X85146404Y-83657361D01*
X85181483Y-83653591D01*
X85316331Y-83603296D01*
X85431546Y-83517046D01*
X85517796Y-83401831D01*
X85568091Y-83266983D01*
X85574500Y-83207373D01*
X85574499Y-81511628D01*
X85568091Y-81452017D01*
X85556960Y-81422174D01*
X85517797Y-81317171D01*
X85517793Y-81317164D01*
X85431547Y-81201955D01*
X85431544Y-81201952D01*
X85316335Y-81115706D01*
X85316328Y-81115702D01*
X85181482Y-81065408D01*
X85181483Y-81065408D01*
X85121883Y-81059001D01*
X85121881Y-81059000D01*
X85121873Y-81059000D01*
X85121864Y-81059000D01*
X82626129Y-81059000D01*
X82626123Y-81059001D01*
X82566516Y-81065408D01*
X82431671Y-81115702D01*
X82431664Y-81115706D01*
X82316455Y-81201952D01*
X82316452Y-81201955D01*
X82230206Y-81317164D01*
X82230202Y-81317171D01*
X82179908Y-81452017D01*
X82174226Y-81504870D01*
X82173501Y-81511623D01*
X82173500Y-81511635D01*
X82173500Y-83207370D01*
X82173501Y-83207376D01*
X82179908Y-83266983D01*
X82230202Y-83401828D01*
X82230206Y-83401835D01*
X82316452Y-83517044D01*
X82316455Y-83517047D01*
X82431664Y-83603293D01*
X82431671Y-83603297D01*
X82476618Y-83620061D01*
X82566517Y-83653591D01*
X82601596Y-83657362D01*
X82666144Y-83684099D01*
X82705993Y-83741491D01*
X82708488Y-83811316D01*
X82672836Y-83871405D01*
X82659464Y-83882225D01*
X82634858Y-83899454D01*
X82473954Y-84060358D01*
X82343432Y-84246765D01*
X82343431Y-84246767D01*
X82247261Y-84453002D01*
X82247258Y-84453011D01*
X82188366Y-84672802D01*
X82188364Y-84672813D01*
X82168532Y-84899498D01*
X82168532Y-84899501D01*
X82188364Y-85126186D01*
X82188366Y-85126197D01*
X82247258Y-85345988D01*
X82247261Y-85345997D01*
X82343431Y-85552232D01*
X82343432Y-85552234D01*
X82473954Y-85738641D01*
X82634858Y-85899545D01*
X82634861Y-85899547D01*
X82821266Y-86030068D01*
X82879275Y-86057118D01*
X82931714Y-86103291D01*
X82950866Y-86170484D01*
X82930650Y-86237365D01*
X82879275Y-86281882D01*
X82821267Y-86308931D01*
X82821265Y-86308932D01*
X82634858Y-86439454D01*
X82473954Y-86600358D01*
X82343432Y-86786765D01*
X82343431Y-86786767D01*
X82247261Y-86993002D01*
X82247258Y-86993011D01*
X82188366Y-87212802D01*
X82188364Y-87212813D01*
X82168532Y-87439498D01*
X82168532Y-87439501D01*
X82188364Y-87666186D01*
X82188366Y-87666197D01*
X82247258Y-87885988D01*
X82247261Y-87885997D01*
X82343431Y-88092232D01*
X82343432Y-88092234D01*
X82473954Y-88278641D01*
X82634858Y-88439545D01*
X82634861Y-88439547D01*
X82821266Y-88570068D01*
X82879275Y-88597118D01*
X82931714Y-88643291D01*
X82950866Y-88710484D01*
X82930650Y-88777365D01*
X82879275Y-88821882D01*
X82821267Y-88848931D01*
X82821265Y-88848932D01*
X82634858Y-88979454D01*
X82473954Y-89140358D01*
X82343432Y-89326765D01*
X82343431Y-89326767D01*
X82247261Y-89533002D01*
X82247258Y-89533011D01*
X82188366Y-89752802D01*
X82188364Y-89752813D01*
X82168532Y-89979498D01*
X82168532Y-89979501D01*
X82188364Y-90206186D01*
X82188366Y-90206197D01*
X82247258Y-90425988D01*
X82247261Y-90425997D01*
X82343431Y-90632232D01*
X82343432Y-90632234D01*
X82473954Y-90818641D01*
X82634858Y-90979545D01*
X82634861Y-90979547D01*
X82821266Y-91110068D01*
X82879275Y-91137118D01*
X82931714Y-91183291D01*
X82950866Y-91250484D01*
X82930650Y-91317365D01*
X82879275Y-91361881D01*
X82871454Y-91365529D01*
X82821267Y-91388931D01*
X82821265Y-91388932D01*
X82634858Y-91519454D01*
X82473954Y-91680358D01*
X82343432Y-91866765D01*
X82343431Y-91866767D01*
X82247261Y-92073002D01*
X82247258Y-92073011D01*
X82188366Y-92292802D01*
X82188364Y-92292813D01*
X82168532Y-92519498D01*
X82168532Y-92519501D01*
X82188364Y-92746186D01*
X82188366Y-92746197D01*
X82247258Y-92965988D01*
X82247261Y-92965997D01*
X82343431Y-93172232D01*
X82343432Y-93172234D01*
X82473954Y-93358641D01*
X82634858Y-93519545D01*
X82634861Y-93519547D01*
X82821266Y-93650068D01*
X82879275Y-93677118D01*
X82931714Y-93723291D01*
X82950866Y-93790484D01*
X82930650Y-93857365D01*
X82879275Y-93901881D01*
X82871454Y-93905529D01*
X82821267Y-93928931D01*
X82821265Y-93928932D01*
X82634858Y-94059454D01*
X82473954Y-94220358D01*
X82343432Y-94406765D01*
X82343431Y-94406767D01*
X82247261Y-94613002D01*
X82247258Y-94613011D01*
X82188366Y-94832802D01*
X82188364Y-94832813D01*
X82168532Y-95059498D01*
X82168532Y-95059501D01*
X82188364Y-95286186D01*
X82188366Y-95286197D01*
X82247258Y-95505988D01*
X82247261Y-95505997D01*
X82343431Y-95712232D01*
X82343432Y-95712234D01*
X82473954Y-95898641D01*
X82634858Y-96059545D01*
X82634861Y-96059547D01*
X82821266Y-96190068D01*
X82879275Y-96217118D01*
X82931714Y-96263291D01*
X82950866Y-96330484D01*
X82930650Y-96397365D01*
X82879275Y-96441882D01*
X82821267Y-96468931D01*
X82821265Y-96468932D01*
X82634858Y-96599454D01*
X82473954Y-96760358D01*
X82343432Y-96946765D01*
X82343431Y-96946767D01*
X82247261Y-97153002D01*
X82247258Y-97153011D01*
X82188366Y-97372802D01*
X82188364Y-97372813D01*
X82168532Y-97599498D01*
X82168532Y-97599501D01*
X82188364Y-97826186D01*
X82188366Y-97826197D01*
X82247258Y-98045988D01*
X82247261Y-98045997D01*
X82343431Y-98252232D01*
X82343432Y-98252234D01*
X82473954Y-98438641D01*
X82634858Y-98599545D01*
X82634861Y-98599547D01*
X82821266Y-98730068D01*
X82879275Y-98757118D01*
X82931714Y-98803291D01*
X82950866Y-98870484D01*
X82930650Y-98937365D01*
X82879275Y-98981882D01*
X82821267Y-99008931D01*
X82821265Y-99008932D01*
X82634858Y-99139454D01*
X82473954Y-99300358D01*
X82343432Y-99486765D01*
X82343431Y-99486767D01*
X82247261Y-99693002D01*
X82247258Y-99693011D01*
X82188366Y-99912802D01*
X82188364Y-99912813D01*
X82168532Y-100139498D01*
X82168532Y-100139501D01*
X82188364Y-100366186D01*
X82188366Y-100366197D01*
X82247258Y-100585988D01*
X82247261Y-100585997D01*
X82343431Y-100792232D01*
X82343432Y-100792234D01*
X82473954Y-100978641D01*
X82634858Y-101139545D01*
X82634861Y-101139547D01*
X82821266Y-101270068D01*
X82879275Y-101297118D01*
X82931714Y-101343291D01*
X82950866Y-101410484D01*
X82930650Y-101477365D01*
X82879275Y-101521882D01*
X82821267Y-101548931D01*
X82821265Y-101548932D01*
X82634858Y-101679454D01*
X82473954Y-101840358D01*
X82343432Y-102026765D01*
X82343431Y-102026767D01*
X82247261Y-102233002D01*
X82247258Y-102233011D01*
X82188366Y-102452802D01*
X82188364Y-102452813D01*
X82168532Y-102679498D01*
X82168532Y-102679501D01*
X82188364Y-102906186D01*
X82188366Y-102906197D01*
X82247258Y-103125988D01*
X82247261Y-103125997D01*
X82343431Y-103332232D01*
X82343432Y-103332234D01*
X82473954Y-103518641D01*
X82634858Y-103679545D01*
X82634861Y-103679547D01*
X82821266Y-103810068D01*
X82879275Y-103837118D01*
X82931714Y-103883291D01*
X82950866Y-103950484D01*
X82930650Y-104017365D01*
X82879275Y-104061882D01*
X82821267Y-104088931D01*
X82821265Y-104088932D01*
X82634858Y-104219454D01*
X82473954Y-104380358D01*
X82343432Y-104566765D01*
X82343431Y-104566767D01*
X82247261Y-104773002D01*
X82247258Y-104773011D01*
X82188366Y-104992802D01*
X82188364Y-104992813D01*
X82168532Y-105219498D01*
X82168532Y-105219501D01*
X82188364Y-105446186D01*
X82188366Y-105446197D01*
X82247258Y-105665988D01*
X82247261Y-105665997D01*
X82343431Y-105872232D01*
X82343432Y-105872234D01*
X82473954Y-106058641D01*
X82634858Y-106219545D01*
X82634861Y-106219547D01*
X82821266Y-106350068D01*
X82879275Y-106377118D01*
X82931714Y-106423291D01*
X82950866Y-106490484D01*
X82930650Y-106557365D01*
X82879275Y-106601882D01*
X82821267Y-106628931D01*
X82821265Y-106628932D01*
X82634858Y-106759454D01*
X82473954Y-106920358D01*
X82343432Y-107106765D01*
X82343431Y-107106767D01*
X82247261Y-107313002D01*
X82247258Y-107313011D01*
X82188366Y-107532802D01*
X82188364Y-107532813D01*
X82168532Y-107759498D01*
X82168532Y-107759501D01*
X82188364Y-107986186D01*
X82188366Y-107986197D01*
X82247258Y-108205988D01*
X82247261Y-108205997D01*
X82343431Y-108412232D01*
X82343432Y-108412234D01*
X82473954Y-108598641D01*
X82634858Y-108759545D01*
X82634861Y-108759547D01*
X82821266Y-108890068D01*
X82879275Y-108917118D01*
X82931714Y-108963291D01*
X82950866Y-109030484D01*
X82930650Y-109097365D01*
X82879275Y-109141882D01*
X82821267Y-109168931D01*
X82821265Y-109168932D01*
X82634858Y-109299454D01*
X82473954Y-109460358D01*
X82343432Y-109646765D01*
X82343431Y-109646767D01*
X82247261Y-109853002D01*
X82247258Y-109853011D01*
X82188366Y-110072802D01*
X82188364Y-110072813D01*
X82168532Y-110299498D01*
X82168532Y-110299501D01*
X80406579Y-110299501D01*
X80386263Y-110067292D01*
X80325103Y-109839037D01*
X80225235Y-109624871D01*
X80110045Y-109460361D01*
X80089694Y-109431297D01*
X79922602Y-109264206D01*
X79922596Y-109264201D01*
X79737042Y-109134275D01*
X79693417Y-109079698D01*
X79686223Y-109010200D01*
X79717746Y-108947845D01*
X79737042Y-108931125D01*
X79795679Y-108890067D01*
X79922601Y-108801195D01*
X80089695Y-108634101D01*
X80225235Y-108440530D01*
X80325103Y-108226363D01*
X80386263Y-107998108D01*
X80406859Y-107762700D01*
X80386263Y-107527292D01*
X80325103Y-107299037D01*
X80225235Y-107084871D01*
X80110045Y-106920361D01*
X80089694Y-106891297D01*
X79922602Y-106724206D01*
X79922596Y-106724201D01*
X79737042Y-106594275D01*
X79693417Y-106539698D01*
X79686223Y-106470200D01*
X79717746Y-106407845D01*
X79737042Y-106391125D01*
X79795679Y-106350067D01*
X79922601Y-106261195D01*
X80089695Y-106094101D01*
X80225235Y-105900530D01*
X80325103Y-105686363D01*
X80386263Y-105458108D01*
X80406859Y-105222700D01*
X80386263Y-104987292D01*
X80325103Y-104759037D01*
X80225235Y-104544871D01*
X80110045Y-104380361D01*
X80089694Y-104351297D01*
X79922602Y-104184206D01*
X79922596Y-104184201D01*
X79737042Y-104054275D01*
X79693417Y-103999698D01*
X79686223Y-103930200D01*
X79717746Y-103867845D01*
X79737042Y-103851125D01*
X79819757Y-103793207D01*
X79922601Y-103721195D01*
X80089695Y-103554101D01*
X80225235Y-103360530D01*
X80325103Y-103146363D01*
X80386263Y-102918108D01*
X80406859Y-102682700D01*
X80386263Y-102447292D01*
X80325103Y-102219037D01*
X80225235Y-102004871D01*
X80180754Y-101941344D01*
X80089694Y-101811297D01*
X79922602Y-101644206D01*
X79922596Y-101644201D01*
X79737042Y-101514275D01*
X79693417Y-101459698D01*
X79686223Y-101390200D01*
X79717746Y-101327845D01*
X79737042Y-101311125D01*
X79827765Y-101247600D01*
X79922601Y-101181195D01*
X80089695Y-101014101D01*
X80225235Y-100820530D01*
X80325103Y-100606363D01*
X80386263Y-100378108D01*
X80406859Y-100142700D01*
X80386263Y-99907292D01*
X80325103Y-99679037D01*
X80225235Y-99464871D01*
X80180754Y-99401344D01*
X80089694Y-99271297D01*
X79922602Y-99104206D01*
X79922596Y-99104201D01*
X79737042Y-98974275D01*
X79693417Y-98919698D01*
X79686223Y-98850200D01*
X79717746Y-98787845D01*
X79737042Y-98771125D01*
X79827765Y-98707600D01*
X79922601Y-98641195D01*
X80089695Y-98474101D01*
X80225235Y-98280530D01*
X80325103Y-98066363D01*
X80386263Y-97838108D01*
X80406859Y-97602700D01*
X80404969Y-97581103D01*
X80401876Y-97545741D01*
X80386263Y-97367292D01*
X80325103Y-97139037D01*
X80225235Y-96924871D01*
X80180754Y-96861344D01*
X80089694Y-96731297D01*
X79922602Y-96564206D01*
X79922596Y-96564201D01*
X79737042Y-96434275D01*
X79693417Y-96379698D01*
X79686223Y-96310200D01*
X79717746Y-96247845D01*
X79737042Y-96231125D01*
X79827765Y-96167600D01*
X79922601Y-96101195D01*
X80089695Y-95934101D01*
X80225235Y-95740530D01*
X80325103Y-95526363D01*
X80386263Y-95298108D01*
X80406859Y-95062700D01*
X80386263Y-94827292D01*
X80325103Y-94599037D01*
X80225235Y-94384871D01*
X80216009Y-94371694D01*
X80089694Y-94191297D01*
X79922602Y-94024206D01*
X79922596Y-94024201D01*
X79737042Y-93894275D01*
X79693417Y-93839698D01*
X79686223Y-93770200D01*
X79717746Y-93707845D01*
X79737042Y-93691125D01*
X79832262Y-93624451D01*
X79922601Y-93561195D01*
X80089695Y-93394101D01*
X80225235Y-93200530D01*
X80325103Y-92986363D01*
X80386263Y-92758108D01*
X80406859Y-92522700D01*
X80386263Y-92287292D01*
X80325103Y-92059037D01*
X80225235Y-91844871D01*
X80180754Y-91781344D01*
X80089694Y-91651297D01*
X79922602Y-91484206D01*
X79922596Y-91484201D01*
X79737042Y-91354275D01*
X79693417Y-91299698D01*
X79686223Y-91230200D01*
X79717746Y-91167845D01*
X79737042Y-91151125D01*
X79827765Y-91087600D01*
X79922601Y-91021195D01*
X80089695Y-90854101D01*
X80225235Y-90660530D01*
X80325103Y-90446363D01*
X80386263Y-90218108D01*
X80406859Y-89982700D01*
X80386263Y-89747292D01*
X80325103Y-89519037D01*
X80225235Y-89304871D01*
X80180754Y-89241344D01*
X80089694Y-89111297D01*
X79922602Y-88944206D01*
X79922596Y-88944201D01*
X79737042Y-88814275D01*
X79693417Y-88759698D01*
X79686223Y-88690200D01*
X79717746Y-88627845D01*
X79737042Y-88611125D01*
X79827765Y-88547600D01*
X79922601Y-88481195D01*
X80089695Y-88314101D01*
X80225235Y-88120530D01*
X80325103Y-87906363D01*
X80386263Y-87678108D01*
X80406859Y-87442700D01*
X80386263Y-87207292D01*
X80325103Y-86979037D01*
X80225235Y-86764871D01*
X80184813Y-86707141D01*
X80089694Y-86571297D01*
X79922602Y-86404206D01*
X79922596Y-86404201D01*
X79737042Y-86274275D01*
X79693417Y-86219698D01*
X79686223Y-86150200D01*
X79717746Y-86087845D01*
X79737042Y-86071125D01*
X79795679Y-86030067D01*
X79922601Y-85941195D01*
X80089695Y-85774101D01*
X80225235Y-85580530D01*
X80325103Y-85366363D01*
X80386263Y-85138108D01*
X80406859Y-84902700D01*
X80386263Y-84667292D01*
X80325103Y-84439037D01*
X80225235Y-84224871D01*
X80171570Y-84148228D01*
X80089694Y-84031297D01*
X79922602Y-83864206D01*
X79922596Y-83864201D01*
X79737042Y-83734275D01*
X79693417Y-83679698D01*
X79686223Y-83610200D01*
X79717746Y-83547845D01*
X79737042Y-83531125D01*
X79797667Y-83488675D01*
X79922601Y-83401195D01*
X80089695Y-83234101D01*
X80225235Y-83040530D01*
X80325103Y-82826363D01*
X80386263Y-82598108D01*
X80406859Y-82362700D01*
X80386263Y-82127292D01*
X80325103Y-81899037D01*
X80225235Y-81684871D01*
X80222778Y-81681361D01*
X80089694Y-81491297D01*
X79922602Y-81324206D01*
X79922596Y-81324201D01*
X79737042Y-81194275D01*
X79693417Y-81139698D01*
X79686223Y-81070200D01*
X79717746Y-81007845D01*
X79737042Y-80991125D01*
X79759226Y-80975591D01*
X79922601Y-80861195D01*
X80089695Y-80694101D01*
X80225235Y-80500530D01*
X80325103Y-80286363D01*
X80386263Y-80058108D01*
X80406859Y-79822700D01*
X80386263Y-79587292D01*
X80325103Y-79359037D01*
X80225235Y-79144871D01*
X80089695Y-78951299D01*
X80089694Y-78951297D01*
X79922602Y-78784206D01*
X79922596Y-78784201D01*
X79737042Y-78654275D01*
X79693417Y-78599698D01*
X79686223Y-78530200D01*
X79717746Y-78467845D01*
X79737042Y-78451125D01*
X79759226Y-78435591D01*
X79922601Y-78321195D01*
X80089695Y-78154101D01*
X80225235Y-77960530D01*
X80325103Y-77746363D01*
X80386263Y-77518108D01*
X80406859Y-77282700D01*
X80386263Y-77047292D01*
X80325103Y-76819037D01*
X80225235Y-76604871D01*
X80216079Y-76591794D01*
X80089694Y-76411297D01*
X79922602Y-76244206D01*
X79922596Y-76244201D01*
X79737042Y-76114275D01*
X79693417Y-76059698D01*
X79686223Y-75990200D01*
X79717746Y-75927845D01*
X79737042Y-75911125D01*
X79832125Y-75844547D01*
X79922601Y-75781195D01*
X80089695Y-75614101D01*
X80225235Y-75420530D01*
X80325103Y-75206363D01*
X80386263Y-74978108D01*
X80406859Y-74742700D01*
X80386263Y-74507292D01*
X80325103Y-74279037D01*
X80225235Y-74064871D01*
X80089695Y-73871299D01*
X79967767Y-73749371D01*
X79934284Y-73688051D01*
X79939268Y-73618359D01*
X79981139Y-73562425D01*
X80012115Y-73545510D01*
X80143531Y-73496496D01*
X80258746Y-73410246D01*
X80344996Y-73295031D01*
X80395291Y-73160183D01*
X80401700Y-73100573D01*
X80401699Y-71304828D01*
X80395291Y-71245217D01*
X80344996Y-71110369D01*
X80344995Y-71110368D01*
X80344993Y-71110364D01*
X80258747Y-70995155D01*
X80258744Y-70995152D01*
X80143535Y-70908906D01*
X80143528Y-70908902D01*
X80008682Y-70858608D01*
X80008683Y-70858608D01*
X79949083Y-70852201D01*
X79949081Y-70852200D01*
X79949073Y-70852200D01*
X79949064Y-70852200D01*
X78153329Y-70852200D01*
X78153323Y-70852201D01*
X78093716Y-70858608D01*
X77958871Y-70908902D01*
X77958864Y-70908906D01*
X77843655Y-70995152D01*
X77843652Y-70995155D01*
X77757406Y-71110364D01*
X77757402Y-71110371D01*
X77707108Y-71245217D01*
X77700701Y-71304816D01*
X77700701Y-71304823D01*
X77700700Y-71304835D01*
X77700700Y-73100570D01*
X77700701Y-73100576D01*
X77707108Y-73160183D01*
X77757402Y-73295028D01*
X77757406Y-73295035D01*
X77843652Y-73410244D01*
X77843655Y-73410247D01*
X77958864Y-73496493D01*
X77958871Y-73496497D01*
X78090281Y-73545510D01*
X78146215Y-73587381D01*
X78170632Y-73652845D01*
X78155780Y-73721118D01*
X78134630Y-73749373D01*
X78012703Y-73871300D01*
X77877165Y-74064869D01*
X77877164Y-74064871D01*
X77777298Y-74279035D01*
X77777294Y-74279044D01*
X77716138Y-74507286D01*
X77716136Y-74507296D01*
X77695541Y-74742699D01*
X77695541Y-74742700D01*
X77716136Y-74978103D01*
X77716138Y-74978113D01*
X77777294Y-75206355D01*
X77777296Y-75206359D01*
X77777297Y-75206363D01*
X77877165Y-75420530D01*
X77877167Y-75420534D01*
X78012701Y-75614095D01*
X78012706Y-75614102D01*
X78179797Y-75781193D01*
X78179803Y-75781198D01*
X78365358Y-75911125D01*
X78408983Y-75965702D01*
X78416177Y-76035200D01*
X78384654Y-76097555D01*
X78365358Y-76114275D01*
X78179797Y-76244205D01*
X78012705Y-76411297D01*
X77877165Y-76604869D01*
X77877164Y-76604871D01*
X77777298Y-76819035D01*
X77777294Y-76819044D01*
X77716138Y-77047286D01*
X77716136Y-77047296D01*
X77695541Y-77282699D01*
X77695541Y-77282700D01*
X77716136Y-77518103D01*
X77716138Y-77518113D01*
X77777294Y-77746355D01*
X77777296Y-77746359D01*
X77777297Y-77746363D01*
X77877165Y-77960530D01*
X77877167Y-77960534D01*
X78012701Y-78154095D01*
X78012706Y-78154102D01*
X78179797Y-78321193D01*
X78179803Y-78321198D01*
X78365358Y-78451125D01*
X78408983Y-78505702D01*
X78416177Y-78575200D01*
X78384654Y-78637555D01*
X78365358Y-78654275D01*
X78179797Y-78784205D01*
X78012705Y-78951297D01*
X77877165Y-79144869D01*
X77877164Y-79144871D01*
X77777298Y-79359035D01*
X77777294Y-79359044D01*
X77716138Y-79587286D01*
X77716136Y-79587296D01*
X77695541Y-79822699D01*
X77695541Y-79822700D01*
X77716136Y-80058103D01*
X77716138Y-80058113D01*
X77777294Y-80286355D01*
X77777296Y-80286359D01*
X77777297Y-80286363D01*
X77877165Y-80500530D01*
X77877167Y-80500534D01*
X78012701Y-80694095D01*
X78012706Y-80694102D01*
X78179797Y-80861193D01*
X78179803Y-80861198D01*
X78365358Y-80991125D01*
X78408983Y-81045702D01*
X78416177Y-81115200D01*
X78384654Y-81177555D01*
X78365358Y-81194275D01*
X78179797Y-81324205D01*
X78012705Y-81491297D01*
X77877165Y-81684869D01*
X77877164Y-81684871D01*
X77777298Y-81899035D01*
X77777294Y-81899044D01*
X77716138Y-82127286D01*
X77716136Y-82127296D01*
X77695541Y-82362699D01*
X77695541Y-82362700D01*
X77716136Y-82598103D01*
X77716138Y-82598113D01*
X77777294Y-82826355D01*
X77777296Y-82826359D01*
X77777297Y-82826363D01*
X77877165Y-83040530D01*
X77877167Y-83040534D01*
X78012701Y-83234095D01*
X78012706Y-83234102D01*
X78179797Y-83401193D01*
X78179803Y-83401198D01*
X78365358Y-83531125D01*
X78408983Y-83585702D01*
X78416177Y-83655200D01*
X78384654Y-83717555D01*
X78365358Y-83734275D01*
X78179797Y-83864205D01*
X78012705Y-84031297D01*
X77877165Y-84224869D01*
X77877164Y-84224871D01*
X77777298Y-84439035D01*
X77777294Y-84439044D01*
X77716138Y-84667286D01*
X77716136Y-84667296D01*
X77695541Y-84902699D01*
X77695541Y-84902700D01*
X77716136Y-85138103D01*
X77716138Y-85138113D01*
X77777294Y-85366355D01*
X77777296Y-85366359D01*
X77777297Y-85366363D01*
X77842898Y-85507044D01*
X77877165Y-85580530D01*
X77877167Y-85580534D01*
X78012701Y-85774095D01*
X78012706Y-85774102D01*
X78179797Y-85941193D01*
X78179803Y-85941198D01*
X78365358Y-86071125D01*
X78408983Y-86125702D01*
X78416177Y-86195200D01*
X78384654Y-86257555D01*
X78365358Y-86274275D01*
X78179797Y-86404205D01*
X78012705Y-86571297D01*
X77877165Y-86764869D01*
X77877164Y-86764871D01*
X77777298Y-86979035D01*
X77777294Y-86979044D01*
X77716138Y-87207286D01*
X77716136Y-87207296D01*
X77695541Y-87442699D01*
X77695541Y-87442700D01*
X77716136Y-87678103D01*
X77716138Y-87678113D01*
X77777294Y-87906355D01*
X77777296Y-87906359D01*
X77777297Y-87906363D01*
X77839460Y-88039671D01*
X77877165Y-88120530D01*
X77877167Y-88120534D01*
X78012701Y-88314095D01*
X78012706Y-88314102D01*
X78179797Y-88481193D01*
X78179803Y-88481198D01*
X78365358Y-88611125D01*
X78408983Y-88665702D01*
X78416177Y-88735200D01*
X78384654Y-88797555D01*
X78365358Y-88814275D01*
X78179797Y-88944205D01*
X78012705Y-89111297D01*
X77877165Y-89304869D01*
X77877164Y-89304871D01*
X77777298Y-89519035D01*
X77777294Y-89519044D01*
X77716138Y-89747286D01*
X77716136Y-89747296D01*
X77695541Y-89982699D01*
X77695541Y-89982700D01*
X77716136Y-90218103D01*
X77716138Y-90218113D01*
X77777294Y-90446355D01*
X77777296Y-90446359D01*
X77777297Y-90446363D01*
X77847543Y-90597005D01*
X77877165Y-90660530D01*
X77877167Y-90660534D01*
X78012701Y-90854095D01*
X78012706Y-90854102D01*
X78179797Y-91021193D01*
X78179803Y-91021198D01*
X78365358Y-91151125D01*
X78408983Y-91205702D01*
X78416177Y-91275200D01*
X78384654Y-91337555D01*
X78365358Y-91354275D01*
X78179797Y-91484205D01*
X78012705Y-91651297D01*
X77877165Y-91844869D01*
X77877164Y-91844871D01*
X77777298Y-92059035D01*
X77777294Y-92059044D01*
X77716138Y-92287286D01*
X77716136Y-92287296D01*
X77695541Y-92522699D01*
X77695541Y-92522700D01*
X77716136Y-92758103D01*
X77716138Y-92758113D01*
X77777294Y-92986355D01*
X77777296Y-92986359D01*
X77777297Y-92986363D01*
X77840636Y-93122193D01*
X77877165Y-93200530D01*
X77877167Y-93200534D01*
X78012701Y-93394095D01*
X78012706Y-93394102D01*
X78179797Y-93561193D01*
X78179803Y-93561198D01*
X78365358Y-93691125D01*
X78408983Y-93745702D01*
X78416177Y-93815200D01*
X78384654Y-93877555D01*
X78365358Y-93894275D01*
X78179797Y-94024205D01*
X78012705Y-94191297D01*
X77877165Y-94384869D01*
X77877164Y-94384871D01*
X77777298Y-94599035D01*
X77777294Y-94599044D01*
X77716138Y-94827286D01*
X77716136Y-94827296D01*
X77695541Y-95062699D01*
X77695541Y-95062700D01*
X77716136Y-95298103D01*
X77716138Y-95298113D01*
X77777294Y-95526355D01*
X77777296Y-95526359D01*
X77777297Y-95526363D01*
X77847543Y-95677005D01*
X77877165Y-95740530D01*
X77877167Y-95740534D01*
X78012701Y-95934095D01*
X78012706Y-95934102D01*
X78179797Y-96101193D01*
X78179803Y-96101198D01*
X78365358Y-96231125D01*
X78408983Y-96285702D01*
X78416177Y-96355200D01*
X78384654Y-96417555D01*
X78365358Y-96434275D01*
X78179797Y-96564205D01*
X78012705Y-96731297D01*
X77877165Y-96924869D01*
X77877164Y-96924871D01*
X77777298Y-97139035D01*
X77777294Y-97139044D01*
X77716138Y-97367286D01*
X77716136Y-97367296D01*
X77695541Y-97602699D01*
X77695541Y-97602700D01*
X77716136Y-97838103D01*
X77716138Y-97838113D01*
X77777294Y-98066355D01*
X77777296Y-98066359D01*
X77777297Y-98066363D01*
X77851271Y-98225000D01*
X77877165Y-98280530D01*
X77877167Y-98280534D01*
X78012701Y-98474095D01*
X78012706Y-98474102D01*
X78179797Y-98641193D01*
X78179803Y-98641198D01*
X78365358Y-98771125D01*
X78408983Y-98825702D01*
X78416177Y-98895200D01*
X78384654Y-98957555D01*
X78365358Y-98974275D01*
X78179797Y-99104205D01*
X78012705Y-99271297D01*
X77877165Y-99464869D01*
X77877164Y-99464871D01*
X77777298Y-99679035D01*
X77777294Y-99679044D01*
X77716138Y-99907286D01*
X77716136Y-99907296D01*
X77695541Y-100142699D01*
X77695541Y-100142700D01*
X77716136Y-100378103D01*
X77716138Y-100378113D01*
X77777294Y-100606355D01*
X77777296Y-100606359D01*
X77777297Y-100606363D01*
X77843692Y-100748747D01*
X77877165Y-100820530D01*
X77877167Y-100820534D01*
X78012701Y-101014095D01*
X78012706Y-101014102D01*
X78179797Y-101181193D01*
X78179803Y-101181198D01*
X78365358Y-101311125D01*
X78408983Y-101365702D01*
X78416177Y-101435200D01*
X78384654Y-101497555D01*
X78365358Y-101514275D01*
X78179797Y-101644205D01*
X78012705Y-101811297D01*
X77877165Y-102004869D01*
X77877164Y-102004871D01*
X77777298Y-102219035D01*
X77777294Y-102219044D01*
X77716138Y-102447286D01*
X77716136Y-102447296D01*
X77695541Y-102682699D01*
X77695541Y-102682700D01*
X77716136Y-102918103D01*
X77716138Y-102918113D01*
X77777294Y-103146355D01*
X77777296Y-103146359D01*
X77777297Y-103146363D01*
X77837274Y-103274983D01*
X77877165Y-103360530D01*
X77877167Y-103360534D01*
X78012701Y-103554095D01*
X78012706Y-103554102D01*
X78179797Y-103721193D01*
X78179803Y-103721198D01*
X78365358Y-103851125D01*
X78408983Y-103905702D01*
X78416177Y-103975200D01*
X78384654Y-104037555D01*
X78365358Y-104054275D01*
X78179797Y-104184205D01*
X78012705Y-104351297D01*
X77877165Y-104544869D01*
X77877164Y-104544871D01*
X77777298Y-104759035D01*
X77777294Y-104759044D01*
X77716138Y-104987286D01*
X77716136Y-104987296D01*
X77695541Y-105222699D01*
X77695541Y-105222700D01*
X77716136Y-105458103D01*
X77716138Y-105458113D01*
X77777294Y-105686355D01*
X77777296Y-105686359D01*
X77777297Y-105686363D01*
X77863969Y-105872232D01*
X77877165Y-105900530D01*
X77877167Y-105900534D01*
X78012701Y-106094095D01*
X78012706Y-106094102D01*
X78179797Y-106261193D01*
X78179803Y-106261198D01*
X78365358Y-106391125D01*
X78408983Y-106445702D01*
X78416177Y-106515200D01*
X78384654Y-106577555D01*
X78365358Y-106594275D01*
X78179797Y-106724205D01*
X78012705Y-106891297D01*
X77877165Y-107084869D01*
X77877164Y-107084871D01*
X77777298Y-107299035D01*
X77777294Y-107299044D01*
X77716138Y-107527286D01*
X77716136Y-107527296D01*
X77695541Y-107762699D01*
X77695541Y-107762700D01*
X77716136Y-107998103D01*
X77716138Y-107998113D01*
X77777294Y-108226355D01*
X77777296Y-108226359D01*
X77777297Y-108226363D01*
X77863969Y-108412232D01*
X77877165Y-108440530D01*
X77877167Y-108440534D01*
X78012701Y-108634095D01*
X78012706Y-108634102D01*
X78179797Y-108801193D01*
X78179803Y-108801198D01*
X78365358Y-108931125D01*
X78408983Y-108985702D01*
X78416177Y-109055200D01*
X78384654Y-109117555D01*
X78365358Y-109134275D01*
X78179797Y-109264205D01*
X78012705Y-109431297D01*
X77877165Y-109624869D01*
X77877164Y-109624871D01*
X77777298Y-109839035D01*
X77777294Y-109839044D01*
X77716138Y-110067286D01*
X77716136Y-110067296D01*
X77695541Y-110302699D01*
X77695541Y-110302700D01*
X76177775Y-110302700D01*
X76177775Y-69898187D01*
X76197460Y-69831148D01*
X76214094Y-69810506D01*
X76454000Y-69570600D01*
X76454000Y-69535850D01*
X76473685Y-69468811D01*
X76526489Y-69423056D01*
X76578000Y-69411850D01*
X106587750Y-69411850D01*
X106654789Y-69431535D01*
G37*
%TD.AperFunction*%
%TA.AperFunction,NonConductor*%
G36*
X95681979Y-75290886D02*
G01*
X95701795Y-75306985D01*
X96925281Y-76530471D01*
X96958766Y-76591794D01*
X96961600Y-76618152D01*
X96961600Y-79578247D01*
X96941915Y-79645286D01*
X96889111Y-79691041D01*
X96819953Y-79700985D01*
X96756397Y-79671960D01*
X96749919Y-79665928D01*
X95365542Y-78281551D01*
X95332057Y-78220228D01*
X95337041Y-78150536D01*
X95351645Y-78122751D01*
X95465235Y-77960530D01*
X95565103Y-77746363D01*
X95626263Y-77518108D01*
X95646859Y-77282700D01*
X95626263Y-77047292D01*
X95565103Y-76819037D01*
X95465235Y-76604871D01*
X95456079Y-76591794D01*
X95329694Y-76411297D01*
X95162602Y-76244206D01*
X95162596Y-76244201D01*
X94977042Y-76114275D01*
X94933417Y-76059698D01*
X94926223Y-75990200D01*
X94957746Y-75927845D01*
X94977042Y-75911125D01*
X95072125Y-75844547D01*
X95162601Y-75781195D01*
X95329695Y-75614101D01*
X95465235Y-75420530D01*
X95501733Y-75342259D01*
X95547904Y-75289822D01*
X95615098Y-75270670D01*
X95681979Y-75290886D01*
G37*
%TD.AperFunction*%
%TA.AperFunction,NonConductor*%
G36*
X95681979Y-80370886D02*
G01*
X95701795Y-80386985D01*
X96377981Y-81063171D01*
X96411466Y-81124494D01*
X96414300Y-81150852D01*
X96414300Y-82423355D01*
X96412575Y-82438972D01*
X96412861Y-82438999D01*
X96412126Y-82446765D01*
X96414300Y-82515914D01*
X96414300Y-82545443D01*
X96414301Y-82545460D01*
X96415168Y-82552331D01*
X96415626Y-82558150D01*
X96417090Y-82604724D01*
X96417091Y-82604727D01*
X96422680Y-82623967D01*
X96426624Y-82643011D01*
X96429136Y-82662891D01*
X96446290Y-82706219D01*
X96448182Y-82711747D01*
X96461181Y-82756488D01*
X96471380Y-82773734D01*
X96479938Y-82791203D01*
X96487314Y-82809832D01*
X96514698Y-82847523D01*
X96517906Y-82852407D01*
X96541627Y-82892516D01*
X96541633Y-82892524D01*
X96555790Y-82906680D01*
X96568428Y-82921476D01*
X96580205Y-82937686D01*
X96580206Y-82937687D01*
X96616109Y-82967388D01*
X96620420Y-82971310D01*
X97137785Y-83488675D01*
X97638534Y-83989424D01*
X97672019Y-84050747D01*
X97667035Y-84120439D01*
X97652431Y-84148223D01*
X97583432Y-84246766D01*
X97583432Y-84246767D01*
X97583428Y-84246773D01*
X97565578Y-84285051D01*
X97519404Y-84337489D01*
X97452211Y-84356640D01*
X97385330Y-84336423D01*
X97365516Y-84320325D01*
X96129919Y-83084728D01*
X96096434Y-83023405D01*
X96093600Y-82997047D01*
X96093600Y-81891342D01*
X96095324Y-81875722D01*
X96095039Y-81875695D01*
X96095773Y-81867933D01*
X96093600Y-81798772D01*
X96093600Y-81769256D01*
X96093600Y-81769250D01*
X96092731Y-81762379D01*
X96092273Y-81756552D01*
X96090810Y-81709973D01*
X96085219Y-81690730D01*
X96081273Y-81671678D01*
X96078764Y-81651808D01*
X96061604Y-81608467D01*
X96059724Y-81602979D01*
X96046718Y-81558210D01*
X96036522Y-81540970D01*
X96027961Y-81523494D01*
X96020587Y-81504870D01*
X96020586Y-81504868D01*
X95993179Y-81467145D01*
X95989988Y-81462286D01*
X95966272Y-81422183D01*
X95966265Y-81422174D01*
X95952106Y-81408015D01*
X95939468Y-81393219D01*
X95927694Y-81377013D01*
X95906467Y-81359453D01*
X95891788Y-81347309D01*
X95887476Y-81343386D01*
X95365581Y-80821491D01*
X95332098Y-80760170D01*
X95337082Y-80690478D01*
X95351688Y-80662691D01*
X95465235Y-80500530D01*
X95501733Y-80422259D01*
X95547904Y-80369822D01*
X95615098Y-80350670D01*
X95681979Y-80370886D01*
G37*
%TD.AperFunction*%
%TA.AperFunction,NonConductor*%
G36*
X100829433Y-85490942D02*
G01*
X100849253Y-85507044D01*
X101415981Y-86073771D01*
X101449466Y-86135094D01*
X101452300Y-86161452D01*
X101452300Y-86594347D01*
X101432615Y-86661386D01*
X101379811Y-86707141D01*
X101310653Y-86717085D01*
X101247097Y-86688060D01*
X101240619Y-86682028D01*
X100493319Y-85934728D01*
X100459834Y-85873405D01*
X100464818Y-85803713D01*
X100493319Y-85759366D01*
X100514047Y-85738639D01*
X100644568Y-85552234D01*
X100649189Y-85542323D01*
X100695358Y-85489883D01*
X100762551Y-85470729D01*
X100829433Y-85490942D01*
G37*
%TD.AperFunction*%
%TA.AperFunction,NonConductor*%
G36*
X96298803Y-85023239D02*
G01*
X96305281Y-85029271D01*
X97707711Y-86431702D01*
X97741196Y-86493025D01*
X97736212Y-86562717D01*
X97716920Y-86595829D01*
X97717058Y-86595926D01*
X97715902Y-86597576D01*
X97715027Y-86599079D01*
X97713958Y-86600352D01*
X97583431Y-86786766D01*
X97569936Y-86815708D01*
X97523763Y-86868147D01*
X97456569Y-86887298D01*
X97389688Y-86867082D01*
X97369873Y-86850983D01*
X96793165Y-86274275D01*
X96129919Y-85611028D01*
X96096434Y-85549705D01*
X96093600Y-85523347D01*
X96093600Y-85116952D01*
X96113285Y-85049913D01*
X96166089Y-85004158D01*
X96235247Y-84994214D01*
X96298803Y-85023239D01*
G37*
%TD.AperFunction*%
%TA.AperFunction,NonConductor*%
G36*
X100825363Y-88039671D02*
G01*
X100845183Y-88055773D01*
X100926881Y-88137471D01*
X100960366Y-88198794D01*
X100963200Y-88225152D01*
X100963200Y-88638447D01*
X100943515Y-88705486D01*
X100890711Y-88751241D01*
X100821553Y-88761185D01*
X100757997Y-88732160D01*
X100751519Y-88726128D01*
X100496719Y-88471328D01*
X100463234Y-88410005D01*
X100468218Y-88340313D01*
X100496719Y-88295966D01*
X100514047Y-88278639D01*
X100644568Y-88092234D01*
X100645118Y-88091053D01*
X100645498Y-88090622D01*
X100647276Y-88087543D01*
X100647894Y-88087900D01*
X100691288Y-88038613D01*
X100758481Y-88019458D01*
X100825363Y-88039671D01*
G37*
%TD.AperFunction*%
%TA.AperFunction,NonConductor*%
G36*
X102409321Y-90967365D02*
G01*
X102581035Y-91087601D01*
X102624658Y-91142177D01*
X102631851Y-91211676D01*
X102600329Y-91274030D01*
X102581033Y-91290750D01*
X102409323Y-91410982D01*
X102343117Y-91433309D01*
X102275350Y-91416299D01*
X102227537Y-91365351D01*
X102214200Y-91309407D01*
X102214200Y-91068942D01*
X102233885Y-91001903D01*
X102286689Y-90956148D01*
X102355847Y-90946204D01*
X102409321Y-90967365D01*
G37*
%TD.AperFunction*%
%TA.AperFunction,NonConductor*%
G36*
X100412350Y-91026578D02*
G01*
X100460163Y-91077527D01*
X100473500Y-91133470D01*
X100473500Y-91365529D01*
X100453815Y-91432568D01*
X100401011Y-91478323D01*
X100331853Y-91488267D01*
X100278378Y-91467105D01*
X100234426Y-91436330D01*
X100166734Y-91388932D01*
X100108724Y-91361881D01*
X100056285Y-91315710D01*
X100037133Y-91248517D01*
X100057348Y-91181635D01*
X100108725Y-91137118D01*
X100166734Y-91110068D01*
X100278378Y-91031894D01*
X100344583Y-91009568D01*
X100412350Y-91026578D01*
G37*
%TD.AperFunction*%
%TA.AperFunction,NonConductor*%
G36*
X95798931Y-87058867D02*
G01*
X95832433Y-87082723D01*
X96788322Y-88038613D01*
X97714329Y-88964620D01*
X97747814Y-89025943D01*
X97742830Y-89095635D01*
X97716995Y-89135843D01*
X97717434Y-89136211D01*
X97714554Y-89139643D01*
X97714350Y-89139961D01*
X97713960Y-89140350D01*
X97713956Y-89140355D01*
X97583432Y-89326765D01*
X97583431Y-89326767D01*
X97487261Y-89533002D01*
X97487258Y-89533011D01*
X97428366Y-89752802D01*
X97428364Y-89752813D01*
X97408532Y-89979498D01*
X97408532Y-89979501D01*
X97428364Y-90206186D01*
X97428366Y-90206197D01*
X97487258Y-90425988D01*
X97487261Y-90425997D01*
X97583431Y-90632232D01*
X97583432Y-90632234D01*
X97713954Y-90818641D01*
X97874858Y-90979545D01*
X97874861Y-90979547D01*
X98061266Y-91110068D01*
X98119275Y-91137118D01*
X98171714Y-91183291D01*
X98190866Y-91250484D01*
X98170650Y-91317365D01*
X98119275Y-91361881D01*
X98111454Y-91365529D01*
X98061267Y-91388931D01*
X98061265Y-91388932D01*
X97874858Y-91519454D01*
X97713954Y-91680358D01*
X97583432Y-91866765D01*
X97583431Y-91866767D01*
X97487261Y-92073002D01*
X97487258Y-92073011D01*
X97428366Y-92292802D01*
X97428364Y-92292813D01*
X97408532Y-92519498D01*
X97408532Y-92519502D01*
X97427251Y-92733463D01*
X97413484Y-92801963D01*
X97364869Y-92852146D01*
X97296840Y-92868079D01*
X97230997Y-92844704D01*
X97216042Y-92831951D01*
X95365584Y-90981493D01*
X95332099Y-90920170D01*
X95337083Y-90850478D01*
X95351688Y-90822691D01*
X95465235Y-90660530D01*
X95565103Y-90446363D01*
X95626263Y-90218108D01*
X95646859Y-89982700D01*
X95626263Y-89747292D01*
X95565103Y-89519037D01*
X95465235Y-89304871D01*
X95420754Y-89241344D01*
X95329694Y-89111297D01*
X95162602Y-88944206D01*
X95162596Y-88944201D01*
X94977042Y-88814275D01*
X94933417Y-88759698D01*
X94926223Y-88690200D01*
X94957746Y-88627845D01*
X94977042Y-88611125D01*
X95067765Y-88547600D01*
X95162601Y-88481195D01*
X95329695Y-88314101D01*
X95465235Y-88120530D01*
X95565103Y-87906363D01*
X95626263Y-87678108D01*
X95646859Y-87442700D01*
X95626263Y-87207292D01*
X95624979Y-87202500D01*
X95626640Y-87132652D01*
X95665800Y-87074789D01*
X95730028Y-87047282D01*
X95798931Y-87058867D01*
G37*
%TD.AperFunction*%
%TA.AperFunction,NonConductor*%
G36*
X102409321Y-93507365D02*
G01*
X102581035Y-93627601D01*
X102624658Y-93682177D01*
X102631851Y-93751676D01*
X102600329Y-93814030D01*
X102581033Y-93830750D01*
X102409323Y-93950982D01*
X102343117Y-93973309D01*
X102275350Y-93956299D01*
X102227537Y-93905351D01*
X102214200Y-93849407D01*
X102214200Y-93608942D01*
X102233885Y-93541903D01*
X102286689Y-93496148D01*
X102355847Y-93486204D01*
X102409321Y-93507365D01*
G37*
%TD.AperFunction*%
%TA.AperFunction,NonConductor*%
G36*
X100412350Y-93566578D02*
G01*
X100460163Y-93617527D01*
X100473500Y-93673470D01*
X100473500Y-93905529D01*
X100453815Y-93972568D01*
X100401011Y-94018323D01*
X100331853Y-94028267D01*
X100278378Y-94007105D01*
X100234426Y-93976330D01*
X100166734Y-93928932D01*
X100108724Y-93901881D01*
X100056285Y-93855710D01*
X100037133Y-93788517D01*
X100057348Y-93721635D01*
X100108725Y-93677118D01*
X100166734Y-93650068D01*
X100278378Y-93571894D01*
X100344583Y-93549568D01*
X100412350Y-93566578D01*
G37*
%TD.AperFunction*%
%TA.AperFunction,NonConductor*%
G36*
X100412350Y-96106578D02*
G01*
X100460163Y-96157527D01*
X100473500Y-96213470D01*
X100473500Y-96445529D01*
X100453815Y-96512568D01*
X100401011Y-96558323D01*
X100331853Y-96568267D01*
X100278378Y-96547105D01*
X100229053Y-96512568D01*
X100166734Y-96468932D01*
X100108724Y-96441881D01*
X100056285Y-96395710D01*
X100037133Y-96328517D01*
X100057348Y-96261635D01*
X100108725Y-96217118D01*
X100166734Y-96190068D01*
X100278378Y-96111894D01*
X100344583Y-96089568D01*
X100412350Y-96106578D01*
G37*
%TD.AperFunction*%
%TA.AperFunction,NonConductor*%
G36*
X101929703Y-96346439D02*
G01*
X101936175Y-96352465D01*
X102052638Y-96468929D01*
X102164321Y-96580612D01*
X102197806Y-96641935D01*
X102192822Y-96711627D01*
X102178215Y-96739416D01*
X102092840Y-96861344D01*
X102092839Y-96861346D01*
X102034559Y-96986329D01*
X101988387Y-97038768D01*
X101921193Y-97057920D01*
X101854312Y-97037704D01*
X101834496Y-97021605D01*
X101760819Y-96947928D01*
X101727334Y-96886605D01*
X101724500Y-96860247D01*
X101724500Y-96440152D01*
X101744185Y-96373113D01*
X101796989Y-96327358D01*
X101866147Y-96317414D01*
X101929703Y-96346439D01*
G37*
%TD.AperFunction*%
%TA.AperFunction,NonConductor*%
G36*
X95682011Y-93070818D02*
G01*
X95701827Y-93086917D01*
X96925281Y-94310371D01*
X96958766Y-94371694D01*
X96961600Y-94398052D01*
X96961600Y-97528652D01*
X96959405Y-97551879D01*
X96957873Y-97559912D01*
X96961478Y-97617224D01*
X96961600Y-97621095D01*
X96961600Y-97638856D01*
X96963825Y-97656468D01*
X96964190Y-97660337D01*
X96967796Y-97717638D01*
X96970322Y-97725414D01*
X96975409Y-97748172D01*
X96976434Y-97756284D01*
X96976436Y-97756292D01*
X96997569Y-97809670D01*
X96998888Y-97813333D01*
X97016632Y-97867940D01*
X97021007Y-97874833D01*
X97031603Y-97895629D01*
X97034611Y-97903226D01*
X97034613Y-97903231D01*
X97068365Y-97949687D01*
X97070555Y-97952909D01*
X97101313Y-98001376D01*
X97107264Y-98006964D01*
X97122704Y-98024478D01*
X97127503Y-98031085D01*
X97171747Y-98067687D01*
X97174667Y-98070261D01*
X97216518Y-98109562D01*
X97223678Y-98113498D01*
X97242979Y-98126614D01*
X97249277Y-98131824D01*
X97249278Y-98131824D01*
X97249279Y-98131825D01*
X97301225Y-98156269D01*
X97304697Y-98158038D01*
X97355003Y-98185695D01*
X97355005Y-98185695D01*
X97355008Y-98185697D01*
X97360305Y-98187056D01*
X97362914Y-98187727D01*
X97384877Y-98195633D01*
X97392274Y-98199114D01*
X97448676Y-98209873D01*
X97452462Y-98210719D01*
X97508081Y-98225000D01*
X97508088Y-98225000D01*
X97515309Y-98225913D01*
X97579353Y-98253845D01*
X97601342Y-98277812D01*
X97713954Y-98438641D01*
X97874858Y-98599545D01*
X97874861Y-98599547D01*
X98061266Y-98730068D01*
X98119275Y-98757118D01*
X98171714Y-98803291D01*
X98190866Y-98870484D01*
X98170650Y-98937365D01*
X98119275Y-98981882D01*
X98061267Y-99008931D01*
X98061265Y-99008932D01*
X97874858Y-99139454D01*
X97713954Y-99300358D01*
X97583432Y-99486765D01*
X97583430Y-99486768D01*
X97561953Y-99532826D01*
X97515780Y-99585264D01*
X97448586Y-99604415D01*
X97381705Y-99584198D01*
X97361891Y-99568100D01*
X96129919Y-98336128D01*
X96096434Y-98274805D01*
X96093600Y-98248447D01*
X96093600Y-97673544D01*
X96095797Y-97650306D01*
X96097327Y-97642288D01*
X96093721Y-97584975D01*
X96093600Y-97581103D01*
X96093600Y-97563350D01*
X96091370Y-97545702D01*
X96091010Y-97541891D01*
X96087404Y-97484562D01*
X96084879Y-97476792D01*
X96079787Y-97454014D01*
X96078764Y-97445908D01*
X96057620Y-97392506D01*
X96056311Y-97388870D01*
X96038567Y-97334259D01*
X96034189Y-97327361D01*
X96023595Y-97306568D01*
X96020586Y-97298968D01*
X95986836Y-97252515D01*
X95984645Y-97249292D01*
X95953885Y-97200822D01*
X95947934Y-97195234D01*
X95932498Y-97177725D01*
X95927694Y-97171113D01*
X95927691Y-97171111D01*
X95927691Y-97171110D01*
X95883461Y-97134520D01*
X95880538Y-97131943D01*
X95838685Y-97092640D01*
X95838677Y-97092634D01*
X95831515Y-97088697D01*
X95812214Y-97075580D01*
X95805924Y-97070376D01*
X95753978Y-97045932D01*
X95750517Y-97044169D01*
X95700192Y-97016503D01*
X95700189Y-97016502D01*
X95700185Y-97016500D01*
X95692274Y-97014469D01*
X95670322Y-97006566D01*
X95662925Y-97003085D01*
X95662921Y-97003084D01*
X95606544Y-96992330D01*
X95602744Y-96991480D01*
X95539565Y-96975260D01*
X95540227Y-96972680D01*
X95487959Y-96949886D01*
X95465967Y-96925917D01*
X95465233Y-96924869D01*
X95396694Y-96826984D01*
X95329694Y-96731297D01*
X95162602Y-96564206D01*
X95162596Y-96564201D01*
X94977042Y-96434275D01*
X94933417Y-96379698D01*
X94926223Y-96310200D01*
X94957746Y-96247845D01*
X94977042Y-96231125D01*
X95067765Y-96167600D01*
X95162601Y-96101195D01*
X95329695Y-95934101D01*
X95465235Y-95740530D01*
X95565103Y-95526363D01*
X95626263Y-95298108D01*
X95646859Y-95062700D01*
X95626263Y-94827292D01*
X95565103Y-94599037D01*
X95465235Y-94384871D01*
X95456009Y-94371694D01*
X95329694Y-94191297D01*
X95162602Y-94024206D01*
X95162596Y-94024201D01*
X94977042Y-93894275D01*
X94933417Y-93839698D01*
X94926223Y-93770200D01*
X94957746Y-93707845D01*
X94977042Y-93691125D01*
X95072262Y-93624451D01*
X95162601Y-93561195D01*
X95329695Y-93394101D01*
X95465235Y-93200530D01*
X95501764Y-93122192D01*
X95547936Y-93069754D01*
X95615130Y-93050602D01*
X95682011Y-93070818D01*
G37*
%TD.AperFunction*%
%TA.AperFunction,NonConductor*%
G36*
X100927482Y-97896335D02*
G01*
X100966352Y-97922643D01*
X102164321Y-99120612D01*
X102197806Y-99181935D01*
X102192822Y-99251627D01*
X102178215Y-99279416D01*
X102092840Y-99401344D01*
X102092839Y-99401346D01*
X101992973Y-99615510D01*
X101992969Y-99615519D01*
X101931813Y-99843761D01*
X101931811Y-99843771D01*
X101911216Y-100079174D01*
X101911216Y-100079175D01*
X101931811Y-100314578D01*
X101931813Y-100314588D01*
X101992969Y-100542830D01*
X101992971Y-100542834D01*
X101992972Y-100542838D01*
X102022595Y-100606364D01*
X102092840Y-100757005D01*
X102092842Y-100757009D01*
X102155966Y-100847158D01*
X102220540Y-100939380D01*
X102228376Y-100950570D01*
X102228381Y-100950577D01*
X102395472Y-101117668D01*
X102395478Y-101117673D01*
X102581033Y-101247600D01*
X102624658Y-101302177D01*
X102631852Y-101371675D01*
X102600329Y-101434030D01*
X102581033Y-101450750D01*
X102395472Y-101580680D01*
X102228383Y-101747770D01*
X102226061Y-101750538D01*
X102224731Y-101751422D01*
X102224552Y-101751602D01*
X102224515Y-101751565D01*
X102167887Y-101789236D01*
X102098026Y-101790339D01*
X102043396Y-101758506D01*
X101720090Y-101435200D01*
X101310603Y-101025712D01*
X101300780Y-101013450D01*
X101300559Y-101013634D01*
X101295586Y-101007623D01*
X101245164Y-100960273D01*
X101234719Y-100949828D01*
X101224275Y-100939383D01*
X101218786Y-100935125D01*
X101214361Y-100931347D01*
X101180382Y-100899438D01*
X101180380Y-100899436D01*
X101180377Y-100899435D01*
X101162829Y-100889788D01*
X101146563Y-100879104D01*
X101130733Y-100866825D01*
X101087968Y-100848318D01*
X101082722Y-100845748D01*
X101041893Y-100823303D01*
X101041892Y-100823302D01*
X101022493Y-100818322D01*
X101004081Y-100812018D01*
X100985698Y-100804062D01*
X100985692Y-100804060D01*
X100939674Y-100796772D01*
X100933952Y-100795587D01*
X100888821Y-100784000D01*
X100888819Y-100784000D01*
X100868784Y-100784000D01*
X100849386Y-100782473D01*
X100844147Y-100781643D01*
X100825420Y-100778677D01*
X100762285Y-100748747D01*
X100725355Y-100689435D01*
X100726353Y-100619572D01*
X100732437Y-100603799D01*
X100740739Y-100585996D01*
X100799635Y-100366192D01*
X100819468Y-100139500D01*
X100799635Y-99912808D01*
X100740739Y-99693004D01*
X100644568Y-99486766D01*
X100514047Y-99300361D01*
X100514045Y-99300358D01*
X100353141Y-99139454D01*
X100166734Y-99008932D01*
X100166728Y-99008929D01*
X100108725Y-98981882D01*
X100056285Y-98935710D01*
X100037133Y-98868517D01*
X100057348Y-98801635D01*
X100108725Y-98757118D01*
X100166734Y-98730068D01*
X100353139Y-98599547D01*
X100514047Y-98438639D01*
X100644568Y-98252234D01*
X100740739Y-98045996D01*
X100744735Y-98031085D01*
X100758896Y-97978232D01*
X100795260Y-97918571D01*
X100858107Y-97888041D01*
X100927482Y-97896335D01*
G37*
%TD.AperFunction*%
M02*
