%TF.GenerationSoftware,KiCad,Pcbnew,7.0.8*%
%TF.CreationDate,2023-11-30T16:12:54+00:00*%
%TF.ProjectId,ZX Interface 1 ROM Adapter,5a582049-6e74-4657-9266-616365203120,rev?*%
%TF.SameCoordinates,Original*%
%TF.FileFunction,Copper,L2,Bot*%
%TF.FilePolarity,Positive*%
%FSLAX46Y46*%
G04 Gerber Fmt 4.6, Leading zero omitted, Abs format (unit mm)*
G04 Created by KiCad (PCBNEW 7.0.8) date 2023-11-30 16:12:54*
%MOMM*%
%LPD*%
G01*
G04 APERTURE LIST*
%TA.AperFunction,ComponentPad*%
%ADD10O,1.700000X1.700000*%
%TD*%
%TA.AperFunction,ComponentPad*%
%ADD11R,1.700000X1.700000*%
%TD*%
%TA.AperFunction,ComponentPad*%
%ADD12R,2.400000X1.600000*%
%TD*%
%TA.AperFunction,ComponentPad*%
%ADD13O,2.400000X1.600000*%
%TD*%
%TA.AperFunction,Conductor*%
%ADD14C,0.250000*%
%TD*%
G04 APERTURE END LIST*
D10*
%TO.P,J1,8,Pin_8*%
%TO.N,/CE*%
X103266875Y-102619175D03*
%TO.P,J1,7,Pin_7*%
%TO.N,/A13*%
X103266875Y-100079175D03*
%TO.P,J1,6,Pin_6*%
%TO.N,/A14*%
X103266875Y-97539175D03*
%TO.P,J1,5,Pin_5*%
%TO.N,/A15*%
X103266875Y-94999175D03*
%TO.P,J1,4,Pin_4*%
%TO.N,/A16*%
X103266875Y-92459175D03*
%TO.P,J1,3,Pin_3*%
%TO.N,/A17*%
X103266875Y-89919175D03*
%TO.P,J1,2,Pin_2*%
%TO.N,/A18*%
X103266875Y-87379175D03*
D11*
%TO.P,J1,1,Pin_1*%
%TO.N,/WE*%
X103266875Y-84839175D03*
%TD*%
D12*
%TO.P,J2,1,1*%
%TO.N,/A7*%
X83874000Y-82359500D03*
D13*
%TO.P,J2,2,2*%
%TO.N,/A6*%
X83874000Y-84899500D03*
%TO.P,J2,3,3*%
%TO.N,/A5*%
X83874000Y-87439500D03*
%TO.P,J2,4,4*%
%TO.N,/A4*%
X83874000Y-89979500D03*
%TO.P,J2,5,5*%
%TO.N,/A3*%
X83874000Y-92519500D03*
%TO.P,J2,6,6*%
%TO.N,/A2*%
X83874000Y-95059500D03*
%TO.P,J2,7,7*%
%TO.N,/A1*%
X83874000Y-97599500D03*
%TO.P,J2,8,8*%
%TO.N,/A0*%
X83874000Y-100139500D03*
%TO.P,J2,9,9*%
%TO.N,/D0*%
X83874000Y-102679500D03*
%TO.P,J2,10,10*%
%TO.N,/D1*%
X83874000Y-105219500D03*
%TO.P,J2,11,11*%
%TO.N,/D2*%
X83874000Y-107759500D03*
%TO.P,J2,12,12*%
%TO.N,/GND*%
X83874000Y-110299500D03*
%TO.P,J2,13,13*%
%TO.N,/D3*%
X99114000Y-110299500D03*
%TO.P,J2,14,14*%
%TO.N,/D4*%
X99114000Y-107759500D03*
%TO.P,J2,15,15*%
%TO.N,/D5*%
X99114000Y-105219500D03*
%TO.P,J2,16,16*%
%TO.N,/D6*%
X99114000Y-102679500D03*
%TO.P,J2,17,17*%
%TO.N,/D7*%
X99114000Y-100139500D03*
%TO.P,J2,18,18*%
%TO.N,/A11*%
X99114000Y-97599500D03*
%TO.P,J2,19,19*%
%TO.N,/A10*%
X99114000Y-95059500D03*
%TO.P,J2,20,20*%
%TO.N,/OE*%
X99114000Y-92519500D03*
%TO.P,J2,21,21*%
%TO.N,/A12*%
X99114000Y-89979500D03*
%TO.P,J2,22,22*%
%TO.N,/A9*%
X99114000Y-87439500D03*
%TO.P,J2,23,23*%
%TO.N,/A8*%
X99114000Y-84899500D03*
%TO.P,J2,24,24*%
%TO.N,/VCC*%
X99114000Y-82359500D03*
%TD*%
D11*
%TO.P,J3,1,Pin_1*%
%TO.N,/A18*%
X79051200Y-72202700D03*
D10*
%TO.P,J3,2,Pin_2*%
%TO.N,/A16*%
X79051200Y-74742700D03*
%TO.P,J3,3,Pin_3*%
%TO.N,/A15*%
X79051200Y-77282700D03*
%TO.P,J3,4,Pin_4*%
%TO.N,/A12*%
X79051200Y-79822700D03*
%TO.P,J3,5,Pin_5*%
%TO.N,/A7*%
X79051200Y-82362700D03*
%TO.P,J3,6,Pin_6*%
%TO.N,/A6*%
X79051200Y-84902700D03*
%TO.P,J3,7,Pin_7*%
%TO.N,/A5*%
X79051200Y-87442700D03*
%TO.P,J3,8,Pin_8*%
%TO.N,/A4*%
X79051200Y-89982700D03*
%TO.P,J3,9,Pin_9*%
%TO.N,/A3*%
X79051200Y-92522700D03*
%TO.P,J3,10,Pin_10*%
%TO.N,/A2*%
X79051200Y-95062700D03*
%TO.P,J3,11,Pin_11*%
%TO.N,/A1*%
X79051200Y-97602700D03*
%TO.P,J3,12,Pin_12*%
%TO.N,/A0*%
X79051200Y-100142700D03*
%TO.P,J3,13,Pin_13*%
%TO.N,/D0*%
X79051200Y-102682700D03*
%TO.P,J3,14,Pin_14*%
%TO.N,/D1*%
X79051200Y-105222700D03*
%TO.P,J3,15,Pin_15*%
%TO.N,/D2*%
X79051200Y-107762700D03*
%TO.P,J3,16,Pin_16*%
%TO.N,/GND*%
X79051200Y-110302700D03*
%TD*%
D11*
%TO.P,J4,1,Pin_1*%
%TO.N,/VCC*%
X94291200Y-72202700D03*
D10*
%TO.P,J4,2,Pin_2*%
%TO.N,/WE*%
X94291200Y-74742700D03*
%TO.P,J4,3,Pin_3*%
%TO.N,/A17*%
X94291200Y-77282700D03*
%TO.P,J4,4,Pin_4*%
%TO.N,/A14*%
X94291200Y-79822700D03*
%TO.P,J4,5,Pin_5*%
%TO.N,/A13*%
X94291200Y-82362700D03*
%TO.P,J4,6,Pin_6*%
%TO.N,/A8*%
X94291200Y-84902700D03*
%TO.P,J4,7,Pin_7*%
%TO.N,/A9*%
X94291200Y-87442700D03*
%TO.P,J4,8,Pin_8*%
%TO.N,/A11*%
X94291200Y-89982700D03*
%TO.P,J4,9,Pin_9*%
%TO.N,/OE*%
X94291200Y-92522700D03*
%TO.P,J4,10,Pin_10*%
%TO.N,/A10*%
X94291200Y-95062700D03*
%TO.P,J4,11,Pin_11*%
%TO.N,/CE*%
X94291200Y-97602700D03*
%TO.P,J4,12,Pin_12*%
%TO.N,/D7*%
X94291200Y-100142700D03*
%TO.P,J4,13,Pin_13*%
%TO.N,/D6*%
X94291200Y-102682700D03*
%TO.P,J4,14,Pin_14*%
%TO.N,/D5*%
X94291200Y-105222700D03*
%TO.P,J4,15,Pin_15*%
%TO.N,/D4*%
X94291200Y-107762700D03*
%TO.P,J4,16,Pin_16*%
%TO.N,/D3*%
X94291200Y-110302700D03*
%TD*%
D14*
%TO.N,/WE*%
X95453700Y-75919600D02*
X103254700Y-83720600D01*
X94291200Y-75919600D02*
X95453700Y-75919600D01*
X103254700Y-84897500D02*
X103254700Y-83720600D01*
X94291200Y-74742700D02*
X94291200Y-75919600D01*
%TO.N,/A18*%
X99862000Y-83629500D02*
X100640900Y-84408400D01*
X91831400Y-81092700D02*
X94703400Y-81092700D01*
X100640900Y-84408400D02*
X100640900Y-84512200D01*
X103254700Y-87437500D02*
X103254700Y-86260600D01*
X97240200Y-83629500D02*
X99862000Y-83629500D01*
X102389300Y-86260600D02*
X103254700Y-86260600D01*
X94703400Y-81092700D02*
X97240200Y-83629500D01*
X79051200Y-72202700D02*
X82941400Y-72202700D01*
X82941400Y-72202700D02*
X91831400Y-81092700D01*
X100640900Y-84512200D02*
X102389300Y-86260600D01*
%TO.N,/A16*%
X99853900Y-86169500D02*
X93161100Y-86169500D01*
X102886800Y-91340600D02*
X102077800Y-90531600D01*
X81734300Y-74742700D02*
X79051200Y-74742700D01*
X102077800Y-88393400D02*
X99853900Y-86169500D01*
X103254700Y-92517500D02*
X103254700Y-91340600D01*
X103254700Y-91340600D02*
X102886800Y-91340600D01*
X102077800Y-90531600D02*
X102077800Y-88393400D01*
X93161100Y-86169500D02*
X81734300Y-74742700D01*
%TO.N,/A15*%
X102512400Y-93880600D02*
X103254700Y-93880600D01*
X85182800Y-81132000D02*
X90201000Y-86150200D01*
X90201000Y-87621400D02*
X93829100Y-91249500D01*
X77871100Y-79271900D02*
X77871100Y-80376200D01*
X103254700Y-95057500D02*
X103254700Y-93880600D01*
X78683400Y-78459600D02*
X77871100Y-79271900D01*
X77871100Y-80376200D02*
X78626900Y-81132000D01*
X78626900Y-81132000D02*
X85182800Y-81132000D01*
X79051200Y-77282700D02*
X79051200Y-78459600D01*
X79051200Y-78459600D02*
X78683400Y-78459600D01*
X99881300Y-91249500D02*
X102512400Y-93880600D01*
X90201000Y-86150200D02*
X90201000Y-87621400D01*
X93829100Y-91249500D02*
X99881300Y-91249500D01*
%TO.N,/A7*%
X79051200Y-82362700D02*
X82343900Y-82362700D01*
X82343900Y-82362700D02*
X82347100Y-82359500D01*
X83874000Y-82359500D02*
X82347100Y-82359500D01*
%TO.N,/A6*%
X79051200Y-84902700D02*
X82343900Y-84902700D01*
X83874000Y-84899500D02*
X82347100Y-84899500D01*
X82343900Y-84902700D02*
X82347100Y-84899500D01*
%TO.N,/A5*%
X79051200Y-87442700D02*
X82343900Y-87442700D01*
X83874000Y-87439500D02*
X82347100Y-87439500D01*
X82343900Y-87442700D02*
X82347100Y-87439500D01*
%TO.N,/A4*%
X79051200Y-89982700D02*
X82343900Y-89982700D01*
X82343900Y-89982700D02*
X82347100Y-89979500D01*
X83874000Y-89979500D02*
X82347100Y-89979500D01*
%TO.N,/A3*%
X82343900Y-92522700D02*
X82347100Y-92519500D01*
X79051200Y-92522700D02*
X82343900Y-92522700D01*
X83874000Y-92519500D02*
X82347100Y-92519500D01*
%TO.N,/A2*%
X83874000Y-95059500D02*
X82347100Y-95059500D01*
X79051200Y-95062700D02*
X82343900Y-95062700D01*
X82343900Y-95062700D02*
X82347100Y-95059500D01*
%TO.N,/A1*%
X82343900Y-97602700D02*
X82347100Y-97599500D01*
X79051200Y-97602700D02*
X82343900Y-97602700D01*
X83874000Y-97599500D02*
X82347100Y-97599500D01*
%TO.N,/A0*%
X82343900Y-100142700D02*
X82347100Y-100139500D01*
X79051200Y-100142700D02*
X82343900Y-100142700D01*
X83874000Y-100139500D02*
X82347100Y-100139500D01*
%TO.N,/D0*%
X83874000Y-102679500D02*
X82347100Y-102679500D01*
X79051200Y-102682700D02*
X82343900Y-102682700D01*
X82343900Y-102682700D02*
X82347100Y-102679500D01*
%TO.N,/D1*%
X82343900Y-105222700D02*
X82347100Y-105219500D01*
X83874000Y-105219500D02*
X82347100Y-105219500D01*
X79051200Y-105222700D02*
X82343900Y-105222700D01*
%TO.N,/D2*%
X83874000Y-107759500D02*
X82347100Y-107759500D01*
X82343900Y-107762700D02*
X82347100Y-107759500D01*
X79051200Y-107762700D02*
X82343900Y-107762700D01*
%TO.N,/GND*%
X79051200Y-110302700D02*
X82343900Y-110302700D01*
X83874000Y-110299500D02*
X82347100Y-110299500D01*
X82343900Y-110302700D02*
X82347100Y-110299500D01*
%TO.N,/D3*%
X94291200Y-110302700D02*
X97583900Y-110302700D01*
X99114000Y-110299500D02*
X97587100Y-110299500D01*
X97583900Y-110302700D02*
X97587100Y-110299500D01*
%TO.N,/D4*%
X94291200Y-107762700D02*
X97583900Y-107762700D01*
X99114000Y-107759500D02*
X97587100Y-107759500D01*
X97583900Y-107762700D02*
X97587100Y-107759500D01*
%TO.N,/D5*%
X97583900Y-105222700D02*
X97587100Y-105219500D01*
X99114000Y-105219500D02*
X97587100Y-105219500D01*
X94291200Y-105222700D02*
X97583900Y-105222700D01*
%TO.N,/D6*%
X97583900Y-102682700D02*
X97587100Y-102679500D01*
X94291200Y-102682700D02*
X97583900Y-102682700D01*
X99114000Y-102679500D02*
X97587100Y-102679500D01*
%TO.N,/D7*%
X99114000Y-100139500D02*
X97587100Y-100139500D01*
X94291200Y-100142700D02*
X97583900Y-100142700D01*
X97583900Y-100142700D02*
X97587100Y-100139500D01*
%TO.N,/A10*%
X99114000Y-95059500D02*
X97587100Y-95059500D01*
X97583900Y-95062700D02*
X97587100Y-95059500D01*
X94291200Y-95062700D02*
X97583900Y-95062700D01*
%TO.N,/OE*%
X99114000Y-92519500D02*
X97587100Y-92519500D01*
X94291200Y-92522700D02*
X97583900Y-92522700D01*
X97583900Y-92522700D02*
X97587100Y-92519500D01*
%TO.N,/A12*%
X97587100Y-89979500D02*
X96320300Y-88712700D01*
X84512600Y-79822700D02*
X79051200Y-79822700D01*
X96320300Y-88712700D02*
X93402600Y-88712700D01*
X99114000Y-89979500D02*
X97587100Y-89979500D01*
X93402600Y-88712700D02*
X84512600Y-79822700D01*
%TO.N,/A9*%
X97583900Y-87442700D02*
X97587100Y-87439500D01*
X94291200Y-87442700D02*
X97583900Y-87442700D01*
X99114000Y-87439500D02*
X97587100Y-87439500D01*
%TO.N,/A8*%
X94291200Y-84902700D02*
X97583900Y-84902700D01*
X99114000Y-84899500D02*
X97587100Y-84899500D01*
X97583900Y-84902700D02*
X97587100Y-84899500D01*
%TD*%
%TA.AperFunction,NonConductor*%
G36*
X106654789Y-69431535D02*
G01*
X106700544Y-69484339D01*
X106711750Y-69535850D01*
X106711750Y-112875500D01*
X106692065Y-112942539D01*
X106639261Y-112988294D01*
X106587750Y-112999500D01*
X76301775Y-112999500D01*
X76234736Y-112979815D01*
X76188981Y-112927011D01*
X76177775Y-112875500D01*
X76177775Y-79252095D01*
X77240940Y-79252095D01*
X77245325Y-79298483D01*
X77245600Y-79304321D01*
X77245600Y-80293455D01*
X77243875Y-80309072D01*
X77244161Y-80309099D01*
X77243426Y-80316865D01*
X77245600Y-80386014D01*
X77245600Y-80415543D01*
X77245601Y-80415560D01*
X77246468Y-80422431D01*
X77246926Y-80428250D01*
X77248390Y-80474824D01*
X77248391Y-80474827D01*
X77253980Y-80494067D01*
X77257924Y-80513111D01*
X77260436Y-80532991D01*
X77277590Y-80576319D01*
X77279482Y-80581847D01*
X77292481Y-80626588D01*
X77302680Y-80643834D01*
X77311238Y-80661303D01*
X77318614Y-80679932D01*
X77345998Y-80717623D01*
X77349206Y-80722507D01*
X77372927Y-80762616D01*
X77372933Y-80762624D01*
X77387090Y-80776780D01*
X77399728Y-80791576D01*
X77411505Y-80807786D01*
X77411506Y-80807787D01*
X77447409Y-80837488D01*
X77451720Y-80841410D01*
X77743068Y-81132758D01*
X77975745Y-81365435D01*
X78009230Y-81426758D01*
X78004246Y-81496450D01*
X77989639Y-81524239D01*
X77877165Y-81684869D01*
X77877164Y-81684871D01*
X77777298Y-81899035D01*
X77777294Y-81899044D01*
X77716138Y-82127286D01*
X77716136Y-82127296D01*
X77695541Y-82362699D01*
X77695541Y-82362700D01*
X77716136Y-82598103D01*
X77716138Y-82598113D01*
X77777294Y-82826355D01*
X77777296Y-82826359D01*
X77777297Y-82826363D01*
X77857077Y-82997452D01*
X77877165Y-83040530D01*
X77877167Y-83040534D01*
X77985481Y-83195221D01*
X78012701Y-83234096D01*
X78012706Y-83234102D01*
X78179797Y-83401193D01*
X78179803Y-83401198D01*
X78365358Y-83531125D01*
X78408983Y-83585702D01*
X78416177Y-83655200D01*
X78384654Y-83717555D01*
X78365358Y-83734275D01*
X78179797Y-83864205D01*
X78012705Y-84031297D01*
X77877165Y-84224869D01*
X77877164Y-84224871D01*
X77777298Y-84439035D01*
X77777294Y-84439044D01*
X77716138Y-84667286D01*
X77716136Y-84667296D01*
X77695541Y-84902699D01*
X77695541Y-84902700D01*
X77716136Y-85138103D01*
X77716138Y-85138113D01*
X77777294Y-85366355D01*
X77777296Y-85366359D01*
X77777297Y-85366363D01*
X77815703Y-85448725D01*
X77877165Y-85580530D01*
X77877167Y-85580534D01*
X77985481Y-85735221D01*
X78012701Y-85774096D01*
X78012706Y-85774102D01*
X78179797Y-85941193D01*
X78179803Y-85941198D01*
X78365358Y-86071125D01*
X78408983Y-86125702D01*
X78416177Y-86195200D01*
X78384654Y-86257555D01*
X78365358Y-86274275D01*
X78179797Y-86404205D01*
X78012705Y-86571297D01*
X77877165Y-86764869D01*
X77877164Y-86764871D01*
X77777298Y-86979035D01*
X77777294Y-86979044D01*
X77716138Y-87207286D01*
X77716136Y-87207296D01*
X77695541Y-87442699D01*
X77695541Y-87442700D01*
X77716136Y-87678103D01*
X77716138Y-87678113D01*
X77777294Y-87906355D01*
X77777296Y-87906359D01*
X77777297Y-87906363D01*
X77853073Y-88068865D01*
X77877165Y-88120530D01*
X77877167Y-88120534D01*
X77958393Y-88236536D01*
X78012701Y-88314096D01*
X78012706Y-88314102D01*
X78179797Y-88481193D01*
X78179803Y-88481198D01*
X78365358Y-88611125D01*
X78408983Y-88665702D01*
X78416177Y-88735200D01*
X78384654Y-88797555D01*
X78365358Y-88814275D01*
X78179797Y-88944205D01*
X78012705Y-89111297D01*
X77877165Y-89304869D01*
X77877164Y-89304871D01*
X77777298Y-89519035D01*
X77777294Y-89519044D01*
X77716138Y-89747286D01*
X77716136Y-89747296D01*
X77695541Y-89982699D01*
X77695541Y-89982700D01*
X77716136Y-90218103D01*
X77716138Y-90218113D01*
X77777294Y-90446355D01*
X77777296Y-90446359D01*
X77777297Y-90446363D01*
X77863969Y-90632232D01*
X77877165Y-90660530D01*
X77877167Y-90660534D01*
X77962211Y-90781988D01*
X78012701Y-90854096D01*
X78012706Y-90854102D01*
X78179797Y-91021193D01*
X78179803Y-91021198D01*
X78365358Y-91151125D01*
X78408983Y-91205702D01*
X78416177Y-91275200D01*
X78384654Y-91337555D01*
X78365358Y-91354275D01*
X78179797Y-91484205D01*
X78012705Y-91651297D01*
X77877165Y-91844869D01*
X77877164Y-91844871D01*
X77777298Y-92059035D01*
X77777294Y-92059044D01*
X77716138Y-92287286D01*
X77716136Y-92287296D01*
X77695541Y-92522699D01*
X77695541Y-92522700D01*
X77716136Y-92758103D01*
X77716138Y-92758113D01*
X77777294Y-92986355D01*
X77777296Y-92986359D01*
X77777297Y-92986363D01*
X77826945Y-93092833D01*
X77877165Y-93200530D01*
X77877167Y-93200534D01*
X77968220Y-93330570D01*
X78012701Y-93394096D01*
X78012706Y-93394102D01*
X78179797Y-93561193D01*
X78179803Y-93561198D01*
X78365358Y-93691125D01*
X78408983Y-93745702D01*
X78416177Y-93815200D01*
X78384654Y-93877555D01*
X78365358Y-93894275D01*
X78179797Y-94024205D01*
X78012705Y-94191297D01*
X77877165Y-94384869D01*
X77877164Y-94384871D01*
X77777298Y-94599035D01*
X77777294Y-94599044D01*
X77716138Y-94827286D01*
X77716136Y-94827296D01*
X77695541Y-95062699D01*
X77695541Y-95062700D01*
X77716136Y-95298103D01*
X77716138Y-95298113D01*
X77777294Y-95526355D01*
X77777296Y-95526359D01*
X77777297Y-95526363D01*
X77847543Y-95677005D01*
X77877165Y-95740530D01*
X77877167Y-95740534D01*
X77968220Y-95870570D01*
X78012701Y-95934096D01*
X78012706Y-95934102D01*
X78179797Y-96101193D01*
X78179803Y-96101198D01*
X78365358Y-96231125D01*
X78408983Y-96285702D01*
X78416177Y-96355200D01*
X78384654Y-96417555D01*
X78365358Y-96434275D01*
X78179797Y-96564205D01*
X78012705Y-96731297D01*
X77877165Y-96924869D01*
X77877164Y-96924871D01*
X77777298Y-97139035D01*
X77777294Y-97139044D01*
X77716138Y-97367286D01*
X77716136Y-97367296D01*
X77695541Y-97602699D01*
X77695541Y-97602700D01*
X77716136Y-97838103D01*
X77716138Y-97838113D01*
X77777294Y-98066355D01*
X77777296Y-98066359D01*
X77777297Y-98066363D01*
X77847543Y-98217005D01*
X77877165Y-98280530D01*
X77877167Y-98280534D01*
X77968220Y-98410570D01*
X78012701Y-98474096D01*
X78012706Y-98474102D01*
X78179797Y-98641193D01*
X78179803Y-98641198D01*
X78365358Y-98771125D01*
X78408983Y-98825702D01*
X78416177Y-98895200D01*
X78384654Y-98957555D01*
X78365358Y-98974275D01*
X78179797Y-99104205D01*
X78012705Y-99271297D01*
X77877165Y-99464869D01*
X77877164Y-99464871D01*
X77777298Y-99679035D01*
X77777294Y-99679044D01*
X77716138Y-99907286D01*
X77716136Y-99907296D01*
X77695541Y-100142699D01*
X77695541Y-100142700D01*
X77716136Y-100378103D01*
X77716138Y-100378113D01*
X77777294Y-100606355D01*
X77777296Y-100606359D01*
X77777297Y-100606363D01*
X77847543Y-100757005D01*
X77877165Y-100820530D01*
X77877167Y-100820534D01*
X77968220Y-100950570D01*
X78012701Y-101014096D01*
X78012706Y-101014102D01*
X78179797Y-101181193D01*
X78179803Y-101181198D01*
X78365358Y-101311125D01*
X78408983Y-101365702D01*
X78416177Y-101435200D01*
X78384654Y-101497555D01*
X78365358Y-101514275D01*
X78179797Y-101644205D01*
X78012705Y-101811297D01*
X77877165Y-102004869D01*
X77877164Y-102004871D01*
X77777298Y-102219035D01*
X77777294Y-102219044D01*
X77716138Y-102447286D01*
X77716136Y-102447296D01*
X77695541Y-102682699D01*
X77695541Y-102682700D01*
X77716136Y-102918103D01*
X77716138Y-102918113D01*
X77777294Y-103146355D01*
X77777296Y-103146359D01*
X77777297Y-103146363D01*
X77847543Y-103297005D01*
X77877165Y-103360530D01*
X77877167Y-103360534D01*
X77968220Y-103490570D01*
X78012701Y-103554096D01*
X78012706Y-103554102D01*
X78179797Y-103721193D01*
X78179803Y-103721198D01*
X78365358Y-103851125D01*
X78408983Y-103905702D01*
X78416177Y-103975200D01*
X78384654Y-104037555D01*
X78365358Y-104054275D01*
X78179797Y-104184205D01*
X78012705Y-104351297D01*
X77877165Y-104544869D01*
X77877164Y-104544871D01*
X77777298Y-104759035D01*
X77777294Y-104759044D01*
X77716138Y-104987286D01*
X77716136Y-104987296D01*
X77695541Y-105222699D01*
X77695541Y-105222700D01*
X77716136Y-105458103D01*
X77716138Y-105458113D01*
X77777294Y-105686355D01*
X77777296Y-105686359D01*
X77777297Y-105686363D01*
X77852763Y-105848200D01*
X77877165Y-105900530D01*
X77877167Y-105900534D01*
X77985481Y-106055221D01*
X78012701Y-106094096D01*
X78012706Y-106094102D01*
X78179797Y-106261193D01*
X78179803Y-106261198D01*
X78365358Y-106391125D01*
X78408983Y-106445702D01*
X78416177Y-106515200D01*
X78384654Y-106577555D01*
X78365358Y-106594275D01*
X78179797Y-106724205D01*
X78012705Y-106891297D01*
X77877165Y-107084869D01*
X77877164Y-107084871D01*
X77777298Y-107299035D01*
X77777294Y-107299044D01*
X77716138Y-107527286D01*
X77716136Y-107527296D01*
X77695541Y-107762699D01*
X77695541Y-107762700D01*
X77716136Y-107998103D01*
X77716138Y-107998113D01*
X77777294Y-108226355D01*
X77777296Y-108226359D01*
X77777297Y-108226363D01*
X77852763Y-108388200D01*
X77877165Y-108440530D01*
X77877167Y-108440534D01*
X77985481Y-108595221D01*
X78012701Y-108634096D01*
X78012706Y-108634102D01*
X78179797Y-108801193D01*
X78179803Y-108801198D01*
X78365358Y-108931125D01*
X78408983Y-108985702D01*
X78416177Y-109055200D01*
X78384654Y-109117555D01*
X78365358Y-109134275D01*
X78179797Y-109264205D01*
X78012705Y-109431297D01*
X77877165Y-109624869D01*
X77877164Y-109624871D01*
X77777298Y-109839035D01*
X77777294Y-109839044D01*
X77716138Y-110067286D01*
X77716136Y-110067296D01*
X77695541Y-110302699D01*
X77695541Y-110302700D01*
X77716136Y-110538103D01*
X77716138Y-110538113D01*
X77777294Y-110766355D01*
X77777296Y-110766359D01*
X77777297Y-110766363D01*
X77852763Y-110928200D01*
X77877165Y-110980530D01*
X77877167Y-110980534D01*
X77985481Y-111135221D01*
X78012705Y-111174101D01*
X78179799Y-111341195D01*
X78276584Y-111408965D01*
X78373365Y-111476732D01*
X78373367Y-111476733D01*
X78373370Y-111476735D01*
X78587537Y-111576603D01*
X78815792Y-111637763D01*
X79004118Y-111654239D01*
X79051199Y-111658359D01*
X79051200Y-111658359D01*
X79051201Y-111658359D01*
X79090434Y-111654926D01*
X79286608Y-111637763D01*
X79514863Y-111576603D01*
X79729030Y-111476735D01*
X79922601Y-111341195D01*
X80089695Y-111174101D01*
X80224852Y-110981077D01*
X80279429Y-110937452D01*
X80326427Y-110928200D01*
X82261157Y-110928200D01*
X82288165Y-110931177D01*
X82289227Y-110931414D01*
X82350370Y-110965228D01*
X82363794Y-110981314D01*
X82473954Y-111138641D01*
X82634858Y-111299545D01*
X82634861Y-111299547D01*
X82821266Y-111430068D01*
X83027504Y-111526239D01*
X83247308Y-111585135D01*
X83417216Y-111600000D01*
X84330784Y-111600000D01*
X84500692Y-111585135D01*
X84720496Y-111526239D01*
X84926734Y-111430068D01*
X85113139Y-111299547D01*
X85274047Y-111138639D01*
X85404568Y-110952234D01*
X85500739Y-110745996D01*
X85559635Y-110526192D01*
X85579468Y-110299500D01*
X85559635Y-110072808D01*
X85500739Y-109853004D01*
X85404568Y-109646766D01*
X85274047Y-109460361D01*
X85274045Y-109460358D01*
X85113141Y-109299454D01*
X84926734Y-109168932D01*
X84926728Y-109168929D01*
X84868725Y-109141882D01*
X84816285Y-109095710D01*
X84797133Y-109028517D01*
X84817348Y-108961635D01*
X84868725Y-108917118D01*
X84926734Y-108890068D01*
X85113139Y-108759547D01*
X85274047Y-108598639D01*
X85404568Y-108412234D01*
X85500739Y-108205996D01*
X85559635Y-107986192D01*
X85579468Y-107759500D01*
X85559635Y-107532808D01*
X85500739Y-107313004D01*
X85404568Y-107106766D01*
X85274047Y-106920361D01*
X85274045Y-106920358D01*
X85113141Y-106759454D01*
X84926734Y-106628932D01*
X84926728Y-106628929D01*
X84868725Y-106601882D01*
X84816285Y-106555710D01*
X84797133Y-106488517D01*
X84817348Y-106421635D01*
X84868725Y-106377118D01*
X84926734Y-106350068D01*
X85113139Y-106219547D01*
X85274047Y-106058639D01*
X85404568Y-105872234D01*
X85500739Y-105665996D01*
X85559635Y-105446192D01*
X85579468Y-105219500D01*
X85559635Y-104992808D01*
X85500739Y-104773004D01*
X85404568Y-104566766D01*
X85274047Y-104380361D01*
X85274045Y-104380358D01*
X85113141Y-104219454D01*
X84926734Y-104088932D01*
X84926728Y-104088929D01*
X84868725Y-104061882D01*
X84816285Y-104015710D01*
X84797133Y-103948517D01*
X84817348Y-103881635D01*
X84868725Y-103837118D01*
X84926734Y-103810068D01*
X85113139Y-103679547D01*
X85274047Y-103518639D01*
X85404568Y-103332234D01*
X85500739Y-103125996D01*
X85559635Y-102906192D01*
X85579468Y-102679500D01*
X85559635Y-102452808D01*
X85500739Y-102233004D01*
X85404568Y-102026766D01*
X85274047Y-101840361D01*
X85274045Y-101840358D01*
X85113141Y-101679454D01*
X84926734Y-101548932D01*
X84926728Y-101548929D01*
X84868725Y-101521882D01*
X84816285Y-101475710D01*
X84797133Y-101408517D01*
X84817348Y-101341635D01*
X84868725Y-101297118D01*
X84926734Y-101270068D01*
X85113139Y-101139547D01*
X85274047Y-100978639D01*
X85404568Y-100792234D01*
X85500739Y-100585996D01*
X85559635Y-100366192D01*
X85579468Y-100139500D01*
X85559635Y-99912808D01*
X85500739Y-99693004D01*
X85404568Y-99486766D01*
X85274047Y-99300361D01*
X85274045Y-99300358D01*
X85113141Y-99139454D01*
X84926734Y-99008932D01*
X84926728Y-99008929D01*
X84868725Y-98981882D01*
X84816285Y-98935710D01*
X84797133Y-98868517D01*
X84817348Y-98801635D01*
X84868725Y-98757118D01*
X84926734Y-98730068D01*
X85113139Y-98599547D01*
X85274047Y-98438639D01*
X85404568Y-98252234D01*
X85500739Y-98045996D01*
X85559635Y-97826192D01*
X85579468Y-97599500D01*
X85559635Y-97372808D01*
X85500739Y-97153004D01*
X85404568Y-96946766D01*
X85274047Y-96760361D01*
X85274045Y-96760358D01*
X85113141Y-96599454D01*
X84926734Y-96468932D01*
X84926728Y-96468929D01*
X84868725Y-96441882D01*
X84816285Y-96395710D01*
X84797133Y-96328517D01*
X84817348Y-96261635D01*
X84868725Y-96217118D01*
X84926734Y-96190068D01*
X85113139Y-96059547D01*
X85274047Y-95898639D01*
X85404568Y-95712234D01*
X85500739Y-95505996D01*
X85559635Y-95286192D01*
X85579468Y-95059500D01*
X85559635Y-94832808D01*
X85500739Y-94613004D01*
X85404568Y-94406766D01*
X85274047Y-94220361D01*
X85274045Y-94220358D01*
X85113141Y-94059454D01*
X84926734Y-93928932D01*
X84926728Y-93928929D01*
X84868725Y-93901882D01*
X84816285Y-93855710D01*
X84797133Y-93788517D01*
X84817348Y-93721635D01*
X84868725Y-93677118D01*
X84926734Y-93650068D01*
X85113139Y-93519547D01*
X85274047Y-93358639D01*
X85404568Y-93172234D01*
X85500739Y-92965996D01*
X85559635Y-92746192D01*
X85579468Y-92519500D01*
X85559635Y-92292808D01*
X85500739Y-92073004D01*
X85404568Y-91866766D01*
X85274047Y-91680361D01*
X85274045Y-91680358D01*
X85113141Y-91519454D01*
X84926734Y-91388932D01*
X84926728Y-91388929D01*
X84868725Y-91361882D01*
X84816285Y-91315710D01*
X84797133Y-91248517D01*
X84817348Y-91181635D01*
X84868725Y-91137118D01*
X84926734Y-91110068D01*
X85113139Y-90979547D01*
X85274047Y-90818639D01*
X85404568Y-90632234D01*
X85500739Y-90425996D01*
X85559635Y-90206192D01*
X85579468Y-89979500D01*
X85559635Y-89752808D01*
X85500739Y-89533004D01*
X85404568Y-89326766D01*
X85274047Y-89140361D01*
X85274045Y-89140358D01*
X85113141Y-88979454D01*
X84926734Y-88848932D01*
X84926728Y-88848929D01*
X84868725Y-88821882D01*
X84816285Y-88775710D01*
X84797133Y-88708517D01*
X84817348Y-88641635D01*
X84868725Y-88597118D01*
X84926734Y-88570068D01*
X85113139Y-88439547D01*
X85274047Y-88278639D01*
X85404568Y-88092234D01*
X85500739Y-87885996D01*
X85559635Y-87666192D01*
X85579468Y-87439500D01*
X85559635Y-87212808D01*
X85500739Y-86993004D01*
X85404568Y-86786766D01*
X85274047Y-86600361D01*
X85274045Y-86600358D01*
X85113141Y-86439454D01*
X84926734Y-86308932D01*
X84926728Y-86308929D01*
X84868725Y-86281882D01*
X84816285Y-86235710D01*
X84797133Y-86168517D01*
X84817348Y-86101635D01*
X84868725Y-86057118D01*
X84926734Y-86030068D01*
X85113139Y-85899547D01*
X85274047Y-85738639D01*
X85404568Y-85552234D01*
X85500739Y-85345996D01*
X85559635Y-85126192D01*
X85579468Y-84899500D01*
X85578791Y-84891766D01*
X85563459Y-84716516D01*
X85559635Y-84672808D01*
X85500739Y-84453004D01*
X85404568Y-84246766D01*
X85274047Y-84060361D01*
X85274045Y-84060358D01*
X85113143Y-83899456D01*
X85088536Y-83882226D01*
X85044912Y-83827649D01*
X85037719Y-83758150D01*
X85069241Y-83695796D01*
X85129471Y-83660382D01*
X85146404Y-83657361D01*
X85181483Y-83653591D01*
X85316331Y-83603296D01*
X85431546Y-83517046D01*
X85517796Y-83401831D01*
X85568091Y-83266983D01*
X85574500Y-83207373D01*
X85574499Y-82707649D01*
X85594183Y-82640612D01*
X85646987Y-82594857D01*
X85716146Y-82584913D01*
X85779702Y-82613938D01*
X85786180Y-82619970D01*
X89539181Y-86372971D01*
X89572666Y-86434294D01*
X89575500Y-86460652D01*
X89575500Y-87538655D01*
X89573775Y-87554272D01*
X89574061Y-87554299D01*
X89573326Y-87562065D01*
X89575500Y-87631214D01*
X89575500Y-87660743D01*
X89575501Y-87660760D01*
X89576368Y-87667631D01*
X89576826Y-87673450D01*
X89578290Y-87720024D01*
X89578291Y-87720027D01*
X89583880Y-87739267D01*
X89587824Y-87758311D01*
X89590336Y-87778191D01*
X89607490Y-87821519D01*
X89609382Y-87827047D01*
X89613970Y-87842839D01*
X89622382Y-87871790D01*
X89630778Y-87885988D01*
X89632580Y-87889034D01*
X89641138Y-87906503D01*
X89648514Y-87925132D01*
X89675898Y-87962823D01*
X89679106Y-87967707D01*
X89702827Y-88007816D01*
X89702833Y-88007824D01*
X89716990Y-88021980D01*
X89729627Y-88036775D01*
X89741406Y-88052987D01*
X89770979Y-88077452D01*
X89777309Y-88082688D01*
X89781620Y-88086610D01*
X92363527Y-90668518D01*
X93217680Y-91522671D01*
X93251165Y-91583994D01*
X93246181Y-91653686D01*
X93231574Y-91681475D01*
X93117165Y-91844869D01*
X93117164Y-91844871D01*
X93017298Y-92059035D01*
X93017294Y-92059044D01*
X92956138Y-92287286D01*
X92956136Y-92287296D01*
X92935541Y-92522699D01*
X92935541Y-92522700D01*
X92956136Y-92758103D01*
X92956138Y-92758113D01*
X93017294Y-92986355D01*
X93017296Y-92986359D01*
X93017297Y-92986363D01*
X93066945Y-93092833D01*
X93117165Y-93200530D01*
X93117167Y-93200534D01*
X93208220Y-93330570D01*
X93252701Y-93394096D01*
X93252706Y-93394102D01*
X93419797Y-93561193D01*
X93419803Y-93561198D01*
X93605358Y-93691125D01*
X93648983Y-93745702D01*
X93656177Y-93815200D01*
X93624654Y-93877555D01*
X93605358Y-93894275D01*
X93419797Y-94024205D01*
X93252705Y-94191297D01*
X93117165Y-94384869D01*
X93117164Y-94384871D01*
X93017298Y-94599035D01*
X93017294Y-94599044D01*
X92956138Y-94827286D01*
X92956136Y-94827296D01*
X92935541Y-95062699D01*
X92935541Y-95062700D01*
X92956136Y-95298103D01*
X92956138Y-95298113D01*
X93017294Y-95526355D01*
X93017296Y-95526359D01*
X93017297Y-95526363D01*
X93087543Y-95677005D01*
X93117165Y-95740530D01*
X93117167Y-95740534D01*
X93208220Y-95870570D01*
X93252701Y-95934096D01*
X93252706Y-95934102D01*
X93419797Y-96101193D01*
X93419803Y-96101198D01*
X93605358Y-96231125D01*
X93648983Y-96285702D01*
X93656177Y-96355200D01*
X93624654Y-96417555D01*
X93605358Y-96434275D01*
X93419797Y-96564205D01*
X93252705Y-96731297D01*
X93117165Y-96924869D01*
X93117164Y-96924871D01*
X93017298Y-97139035D01*
X93017294Y-97139044D01*
X92956138Y-97367286D01*
X92956136Y-97367296D01*
X92935541Y-97602699D01*
X92935541Y-97602700D01*
X92956136Y-97838103D01*
X92956138Y-97838113D01*
X93017294Y-98066355D01*
X93017296Y-98066359D01*
X93017297Y-98066363D01*
X93087543Y-98217005D01*
X93117165Y-98280530D01*
X93117167Y-98280534D01*
X93208220Y-98410570D01*
X93252701Y-98474096D01*
X93252706Y-98474102D01*
X93419797Y-98641193D01*
X93419803Y-98641198D01*
X93605358Y-98771125D01*
X93648983Y-98825702D01*
X93656177Y-98895200D01*
X93624654Y-98957555D01*
X93605358Y-98974275D01*
X93419797Y-99104205D01*
X93252705Y-99271297D01*
X93117165Y-99464869D01*
X93117164Y-99464871D01*
X93017298Y-99679035D01*
X93017294Y-99679044D01*
X92956138Y-99907286D01*
X92956136Y-99907296D01*
X92935541Y-100142699D01*
X92935541Y-100142700D01*
X92956136Y-100378103D01*
X92956138Y-100378113D01*
X93017294Y-100606355D01*
X93017296Y-100606359D01*
X93017297Y-100606363D01*
X93087543Y-100757005D01*
X93117165Y-100820530D01*
X93117167Y-100820534D01*
X93208220Y-100950570D01*
X93252701Y-101014096D01*
X93252706Y-101014102D01*
X93419797Y-101181193D01*
X93419803Y-101181198D01*
X93605358Y-101311125D01*
X93648983Y-101365702D01*
X93656177Y-101435200D01*
X93624654Y-101497555D01*
X93605358Y-101514275D01*
X93419797Y-101644205D01*
X93252705Y-101811297D01*
X93117165Y-102004869D01*
X93117164Y-102004871D01*
X93017298Y-102219035D01*
X93017294Y-102219044D01*
X92956138Y-102447286D01*
X92956136Y-102447296D01*
X92935541Y-102682699D01*
X92935541Y-102682700D01*
X92956136Y-102918103D01*
X92956138Y-102918113D01*
X93017294Y-103146355D01*
X93017296Y-103146359D01*
X93017297Y-103146363D01*
X93087543Y-103297005D01*
X93117165Y-103360530D01*
X93117167Y-103360534D01*
X93208220Y-103490570D01*
X93252701Y-103554096D01*
X93252706Y-103554102D01*
X93419797Y-103721193D01*
X93419803Y-103721198D01*
X93605358Y-103851125D01*
X93648983Y-103905702D01*
X93656177Y-103975200D01*
X93624654Y-104037555D01*
X93605358Y-104054275D01*
X93419797Y-104184205D01*
X93252705Y-104351297D01*
X93117165Y-104544869D01*
X93117164Y-104544871D01*
X93017298Y-104759035D01*
X93017294Y-104759044D01*
X92956138Y-104987286D01*
X92956136Y-104987296D01*
X92935541Y-105222699D01*
X92935541Y-105222700D01*
X92956136Y-105458103D01*
X92956138Y-105458113D01*
X93017294Y-105686355D01*
X93017296Y-105686359D01*
X93017297Y-105686363D01*
X93092763Y-105848200D01*
X93117165Y-105900530D01*
X93117167Y-105900534D01*
X93225481Y-106055221D01*
X93252701Y-106094096D01*
X93252706Y-106094102D01*
X93419797Y-106261193D01*
X93419803Y-106261198D01*
X93605358Y-106391125D01*
X93648983Y-106445702D01*
X93656177Y-106515200D01*
X93624654Y-106577555D01*
X93605358Y-106594275D01*
X93419797Y-106724205D01*
X93252705Y-106891297D01*
X93117165Y-107084869D01*
X93117164Y-107084871D01*
X93017298Y-107299035D01*
X93017294Y-107299044D01*
X92956138Y-107527286D01*
X92956136Y-107527296D01*
X92935541Y-107762699D01*
X92935541Y-107762700D01*
X92956136Y-107998103D01*
X92956138Y-107998113D01*
X93017294Y-108226355D01*
X93017296Y-108226359D01*
X93017297Y-108226363D01*
X93092763Y-108388200D01*
X93117165Y-108440530D01*
X93117167Y-108440534D01*
X93225481Y-108595221D01*
X93252701Y-108634096D01*
X93252706Y-108634102D01*
X93419797Y-108801193D01*
X93419803Y-108801198D01*
X93605358Y-108931125D01*
X93648983Y-108985702D01*
X93656177Y-109055200D01*
X93624654Y-109117555D01*
X93605358Y-109134275D01*
X93419797Y-109264205D01*
X93252705Y-109431297D01*
X93117165Y-109624869D01*
X93117164Y-109624871D01*
X93017298Y-109839035D01*
X93017294Y-109839044D01*
X92956138Y-110067286D01*
X92956136Y-110067296D01*
X92935541Y-110302699D01*
X92935541Y-110302700D01*
X92956136Y-110538103D01*
X92956138Y-110538113D01*
X93017294Y-110766355D01*
X93017296Y-110766359D01*
X93017297Y-110766363D01*
X93092763Y-110928200D01*
X93117165Y-110980530D01*
X93117167Y-110980534D01*
X93225481Y-111135221D01*
X93252705Y-111174101D01*
X93419799Y-111341195D01*
X93516584Y-111408965D01*
X93613365Y-111476732D01*
X93613367Y-111476733D01*
X93613370Y-111476735D01*
X93827537Y-111576603D01*
X94055792Y-111637763D01*
X94244118Y-111654239D01*
X94291199Y-111658359D01*
X94291200Y-111658359D01*
X94291201Y-111658359D01*
X94330434Y-111654926D01*
X94526608Y-111637763D01*
X94754863Y-111576603D01*
X94969030Y-111476735D01*
X95162601Y-111341195D01*
X95329695Y-111174101D01*
X95464852Y-110981077D01*
X95519429Y-110937452D01*
X95566427Y-110928200D01*
X97501157Y-110928200D01*
X97528165Y-110931177D01*
X97529227Y-110931414D01*
X97590370Y-110965228D01*
X97603794Y-110981314D01*
X97713954Y-111138641D01*
X97874858Y-111299545D01*
X97874861Y-111299547D01*
X98061266Y-111430068D01*
X98267504Y-111526239D01*
X98487308Y-111585135D01*
X98657216Y-111600000D01*
X99570784Y-111600000D01*
X99740692Y-111585135D01*
X99960496Y-111526239D01*
X100166734Y-111430068D01*
X100353139Y-111299547D01*
X100514047Y-111138639D01*
X100644568Y-110952234D01*
X100740739Y-110745996D01*
X100799635Y-110526192D01*
X100819468Y-110299500D01*
X100799635Y-110072808D01*
X100740739Y-109853004D01*
X100644568Y-109646766D01*
X100514047Y-109460361D01*
X100514045Y-109460358D01*
X100353141Y-109299454D01*
X100166734Y-109168932D01*
X100166728Y-109168929D01*
X100108725Y-109141882D01*
X100056285Y-109095710D01*
X100037133Y-109028517D01*
X100057348Y-108961635D01*
X100108725Y-108917118D01*
X100166734Y-108890068D01*
X100353139Y-108759547D01*
X100514047Y-108598639D01*
X100644568Y-108412234D01*
X100740739Y-108205996D01*
X100799635Y-107986192D01*
X100819468Y-107759500D01*
X100799635Y-107532808D01*
X100740739Y-107313004D01*
X100644568Y-107106766D01*
X100514047Y-106920361D01*
X100514045Y-106920358D01*
X100353141Y-106759454D01*
X100166734Y-106628932D01*
X100166728Y-106628929D01*
X100108725Y-106601882D01*
X100056285Y-106555710D01*
X100037133Y-106488517D01*
X100057348Y-106421635D01*
X100108725Y-106377118D01*
X100166734Y-106350068D01*
X100353139Y-106219547D01*
X100514047Y-106058639D01*
X100644568Y-105872234D01*
X100740739Y-105665996D01*
X100799635Y-105446192D01*
X100819468Y-105219500D01*
X100799635Y-104992808D01*
X100740739Y-104773004D01*
X100644568Y-104566766D01*
X100514047Y-104380361D01*
X100514045Y-104380358D01*
X100353141Y-104219454D01*
X100166734Y-104088932D01*
X100166728Y-104088929D01*
X100108725Y-104061882D01*
X100056285Y-104015710D01*
X100037133Y-103948517D01*
X100057348Y-103881635D01*
X100108725Y-103837118D01*
X100166734Y-103810068D01*
X100353139Y-103679547D01*
X100514047Y-103518639D01*
X100644568Y-103332234D01*
X100740739Y-103125996D01*
X100799635Y-102906192D01*
X100819468Y-102679500D01*
X100799635Y-102452808D01*
X100740739Y-102233004D01*
X100644568Y-102026766D01*
X100514047Y-101840361D01*
X100514045Y-101840358D01*
X100353141Y-101679454D01*
X100166734Y-101548932D01*
X100166728Y-101548929D01*
X100108725Y-101521882D01*
X100056285Y-101475710D01*
X100037133Y-101408517D01*
X100057348Y-101341635D01*
X100108725Y-101297118D01*
X100166734Y-101270068D01*
X100353139Y-101139547D01*
X100514047Y-100978639D01*
X100644568Y-100792234D01*
X100740739Y-100585996D01*
X100799635Y-100366192D01*
X100819468Y-100139500D01*
X100799635Y-99912808D01*
X100740739Y-99693004D01*
X100644568Y-99486766D01*
X100514047Y-99300361D01*
X100514045Y-99300358D01*
X100353141Y-99139454D01*
X100166734Y-99008932D01*
X100166728Y-99008929D01*
X100108725Y-98981882D01*
X100056285Y-98935710D01*
X100037133Y-98868517D01*
X100057348Y-98801635D01*
X100108725Y-98757118D01*
X100166734Y-98730068D01*
X100353139Y-98599547D01*
X100514047Y-98438639D01*
X100644568Y-98252234D01*
X100740739Y-98045996D01*
X100799635Y-97826192D01*
X100819468Y-97599500D01*
X100799635Y-97372808D01*
X100740739Y-97153004D01*
X100644568Y-96946766D01*
X100514047Y-96760361D01*
X100514045Y-96760358D01*
X100353141Y-96599454D01*
X100166734Y-96468932D01*
X100166728Y-96468929D01*
X100108725Y-96441882D01*
X100056285Y-96395710D01*
X100037133Y-96328517D01*
X100057348Y-96261635D01*
X100108725Y-96217118D01*
X100166734Y-96190068D01*
X100353139Y-96059547D01*
X100514047Y-95898639D01*
X100644568Y-95712234D01*
X100740739Y-95505996D01*
X100799635Y-95286192D01*
X100819468Y-95059500D01*
X100799635Y-94832808D01*
X100740739Y-94613004D01*
X100644568Y-94406766D01*
X100514047Y-94220361D01*
X100514045Y-94220358D01*
X100353141Y-94059454D01*
X100166734Y-93928932D01*
X100166728Y-93928929D01*
X100108725Y-93901882D01*
X100056285Y-93855710D01*
X100037133Y-93788517D01*
X100057348Y-93721635D01*
X100108725Y-93677118D01*
X100166734Y-93650068D01*
X100353139Y-93519547D01*
X100514047Y-93358639D01*
X100644568Y-93172234D01*
X100657141Y-93145270D01*
X100703309Y-93092833D01*
X100770502Y-93073679D01*
X100837384Y-93093893D01*
X100857203Y-93109994D01*
X102011597Y-94264388D01*
X102021423Y-94276652D01*
X102021644Y-94276470D01*
X102030592Y-94287287D01*
X102058155Y-94351490D01*
X102047429Y-94418727D01*
X102039732Y-94435235D01*
X101992971Y-94535514D01*
X101992969Y-94535519D01*
X101931813Y-94763761D01*
X101931811Y-94763771D01*
X101911216Y-94999174D01*
X101911216Y-94999175D01*
X101931811Y-95234578D01*
X101931813Y-95234588D01*
X101992969Y-95462830D01*
X101992971Y-95462834D01*
X101992972Y-95462838D01*
X102022595Y-95526364D01*
X102092840Y-95677005D01*
X102092842Y-95677009D01*
X102228376Y-95870570D01*
X102228381Y-95870577D01*
X102395472Y-96037668D01*
X102395478Y-96037673D01*
X102581033Y-96167600D01*
X102624658Y-96222177D01*
X102631852Y-96291675D01*
X102600329Y-96354030D01*
X102581033Y-96370750D01*
X102395472Y-96500680D01*
X102228380Y-96667772D01*
X102092840Y-96861344D01*
X102092839Y-96861346D01*
X101992973Y-97075510D01*
X101992969Y-97075519D01*
X101931813Y-97303761D01*
X101931811Y-97303771D01*
X101911216Y-97539174D01*
X101911216Y-97539175D01*
X101931811Y-97774578D01*
X101931813Y-97774588D01*
X101992969Y-98002830D01*
X101992971Y-98002834D01*
X101992972Y-98002838D01*
X102022595Y-98066364D01*
X102092840Y-98217005D01*
X102092842Y-98217009D01*
X102228376Y-98410570D01*
X102228381Y-98410577D01*
X102395472Y-98577668D01*
X102395478Y-98577673D01*
X102581033Y-98707600D01*
X102624658Y-98762177D01*
X102631852Y-98831675D01*
X102600329Y-98894030D01*
X102581033Y-98910750D01*
X102395472Y-99040680D01*
X102228380Y-99207772D01*
X102092840Y-99401344D01*
X102092839Y-99401346D01*
X101992973Y-99615510D01*
X101992969Y-99615519D01*
X101931813Y-99843761D01*
X101931811Y-99843771D01*
X101911216Y-100079174D01*
X101911216Y-100079175D01*
X101931811Y-100314578D01*
X101931813Y-100314588D01*
X101992969Y-100542830D01*
X101992971Y-100542834D01*
X101992972Y-100542838D01*
X102022595Y-100606364D01*
X102092840Y-100757005D01*
X102092842Y-100757009D01*
X102228376Y-100950570D01*
X102228381Y-100950577D01*
X102395472Y-101117668D01*
X102395478Y-101117673D01*
X102581033Y-101247600D01*
X102624658Y-101302177D01*
X102631852Y-101371675D01*
X102600329Y-101434030D01*
X102581033Y-101450750D01*
X102395472Y-101580680D01*
X102228380Y-101747772D01*
X102092840Y-101941344D01*
X102092839Y-101941346D01*
X101992973Y-102155510D01*
X101992969Y-102155519D01*
X101931813Y-102383761D01*
X101931811Y-102383771D01*
X101911216Y-102619174D01*
X101911216Y-102619175D01*
X101931811Y-102854578D01*
X101931813Y-102854588D01*
X101992969Y-103082830D01*
X101992971Y-103082834D01*
X101992972Y-103082838D01*
X102022595Y-103146364D01*
X102092840Y-103297005D01*
X102092842Y-103297009D01*
X102201156Y-103451696D01*
X102228380Y-103490576D01*
X102395474Y-103657670D01*
X102426715Y-103679545D01*
X102589040Y-103793207D01*
X102589042Y-103793208D01*
X102589045Y-103793210D01*
X102803212Y-103893078D01*
X103031467Y-103954238D01*
X103219793Y-103970714D01*
X103266874Y-103974834D01*
X103266875Y-103974834D01*
X103266876Y-103974834D01*
X103306109Y-103971401D01*
X103502283Y-103954238D01*
X103730538Y-103893078D01*
X103944705Y-103793210D01*
X104138276Y-103657670D01*
X104305370Y-103490576D01*
X104440910Y-103297005D01*
X104540778Y-103082838D01*
X104601938Y-102854583D01*
X104622534Y-102619175D01*
X104601938Y-102383767D01*
X104540778Y-102155512D01*
X104440910Y-101941346D01*
X104370197Y-101840356D01*
X104305369Y-101747772D01*
X104138277Y-101580681D01*
X104138271Y-101580676D01*
X103952717Y-101450750D01*
X103909092Y-101396173D01*
X103901898Y-101326675D01*
X103933421Y-101264320D01*
X103952717Y-101247600D01*
X103974901Y-101232066D01*
X104138276Y-101117670D01*
X104305370Y-100950576D01*
X104440910Y-100757005D01*
X104540778Y-100542838D01*
X104601938Y-100314583D01*
X104622534Y-100079175D01*
X104601938Y-99843767D01*
X104540778Y-99615512D01*
X104440910Y-99401346D01*
X104370197Y-99300356D01*
X104305369Y-99207772D01*
X104138277Y-99040681D01*
X104138271Y-99040676D01*
X103952717Y-98910750D01*
X103909092Y-98856173D01*
X103901898Y-98786675D01*
X103933421Y-98724320D01*
X103952717Y-98707600D01*
X103974901Y-98692066D01*
X104138276Y-98577670D01*
X104305370Y-98410576D01*
X104440910Y-98217005D01*
X104540778Y-98002838D01*
X104601938Y-97774583D01*
X104622534Y-97539175D01*
X104601938Y-97303767D01*
X104540778Y-97075512D01*
X104440910Y-96861346D01*
X104370197Y-96760356D01*
X104305369Y-96667772D01*
X104138277Y-96500681D01*
X104138271Y-96500676D01*
X103952717Y-96370750D01*
X103909092Y-96316173D01*
X103901898Y-96246675D01*
X103933421Y-96184320D01*
X103952717Y-96167600D01*
X103974901Y-96152066D01*
X104138276Y-96037670D01*
X104305370Y-95870576D01*
X104440910Y-95677005D01*
X104540778Y-95462838D01*
X104601938Y-95234583D01*
X104622534Y-94999175D01*
X104601938Y-94763767D01*
X104540778Y-94535512D01*
X104440910Y-94321346D01*
X104407807Y-94274069D01*
X104305369Y-94127772D01*
X104138277Y-93960681D01*
X104138271Y-93960676D01*
X103952717Y-93830750D01*
X103909092Y-93776173D01*
X103901898Y-93706675D01*
X103933421Y-93644320D01*
X103952717Y-93627600D01*
X103974901Y-93612066D01*
X104138276Y-93497670D01*
X104305370Y-93330576D01*
X104440910Y-93137005D01*
X104540778Y-92922838D01*
X104601938Y-92694583D01*
X104622534Y-92459175D01*
X104601938Y-92223767D01*
X104540778Y-91995512D01*
X104440910Y-91781346D01*
X104370197Y-91680356D01*
X104305369Y-91587772D01*
X104138277Y-91420681D01*
X104138271Y-91420676D01*
X103952717Y-91290750D01*
X103909092Y-91236173D01*
X103901898Y-91166675D01*
X103933421Y-91104320D01*
X103952717Y-91087600D01*
X103974901Y-91072066D01*
X104138276Y-90957670D01*
X104305370Y-90790576D01*
X104440910Y-90597005D01*
X104540778Y-90382838D01*
X104601938Y-90154583D01*
X104622534Y-89919175D01*
X104601938Y-89683767D01*
X104540778Y-89455512D01*
X104440910Y-89241346D01*
X104427898Y-89222762D01*
X104305369Y-89047772D01*
X104138277Y-88880681D01*
X104138271Y-88880676D01*
X103952717Y-88750750D01*
X103909092Y-88696173D01*
X103901898Y-88626675D01*
X103933421Y-88564320D01*
X103952717Y-88547600D01*
X103974901Y-88532066D01*
X104138276Y-88417670D01*
X104305370Y-88250576D01*
X104440910Y-88057005D01*
X104540778Y-87842838D01*
X104601938Y-87614583D01*
X104622534Y-87379175D01*
X104601938Y-87143767D01*
X104540778Y-86915512D01*
X104440910Y-86701346D01*
X104435705Y-86693913D01*
X104305371Y-86507775D01*
X104258248Y-86460652D01*
X104183442Y-86385846D01*
X104149959Y-86324526D01*
X104154943Y-86254834D01*
X104196814Y-86198900D01*
X104227790Y-86181985D01*
X104359206Y-86132971D01*
X104474421Y-86046721D01*
X104560671Y-85931506D01*
X104610966Y-85796658D01*
X104617375Y-85737048D01*
X104617374Y-83941303D01*
X104612174Y-83892932D01*
X104610966Y-83881691D01*
X104560672Y-83746846D01*
X104560668Y-83746839D01*
X104474422Y-83631630D01*
X104474419Y-83631627D01*
X104359210Y-83545381D01*
X104359203Y-83545377D01*
X104224357Y-83495083D01*
X104224358Y-83495083D01*
X104164758Y-83488676D01*
X104164756Y-83488675D01*
X104164748Y-83488675D01*
X104164740Y-83488675D01*
X103919887Y-83488675D01*
X103852848Y-83468990D01*
X103812751Y-83422715D01*
X103810947Y-83423708D01*
X103807187Y-83416870D01*
X103807186Y-83416868D01*
X103779779Y-83379145D01*
X103776588Y-83374286D01*
X103752872Y-83334183D01*
X103752865Y-83334174D01*
X103738706Y-83320015D01*
X103726068Y-83305219D01*
X103720676Y-83297797D01*
X103714294Y-83289013D01*
X103678388Y-83259309D01*
X103674076Y-83255386D01*
X95954503Y-75535812D01*
X95944680Y-75523550D01*
X95944459Y-75523734D01*
X95939486Y-75517723D01*
X95889064Y-75470373D01*
X95878619Y-75459928D01*
X95868175Y-75449483D01*
X95862686Y-75445225D01*
X95858261Y-75441447D01*
X95824282Y-75409538D01*
X95824280Y-75409536D01*
X95824277Y-75409535D01*
X95806729Y-75399888D01*
X95790463Y-75389204D01*
X95788763Y-75387885D01*
X95774636Y-75376927D01*
X95774635Y-75376926D01*
X95774633Y-75376925D01*
X95731868Y-75358418D01*
X95726622Y-75355848D01*
X95685793Y-75333403D01*
X95685792Y-75333402D01*
X95666393Y-75328422D01*
X95647974Y-75322115D01*
X95644132Y-75320452D01*
X95590432Y-75275754D01*
X95569422Y-75209118D01*
X95573623Y-75174566D01*
X95581890Y-75143711D01*
X95626263Y-74978108D01*
X95646859Y-74742700D01*
X95626263Y-74507292D01*
X95565103Y-74279037D01*
X95465235Y-74064871D01*
X95464851Y-74064323D01*
X95329696Y-73871300D01*
X95329695Y-73871299D01*
X95207767Y-73749371D01*
X95174284Y-73688051D01*
X95179268Y-73618359D01*
X95221139Y-73562425D01*
X95252115Y-73545510D01*
X95383531Y-73496496D01*
X95498746Y-73410246D01*
X95584996Y-73295031D01*
X95635291Y-73160183D01*
X95641700Y-73100573D01*
X95641699Y-71304828D01*
X95635291Y-71245217D01*
X95584996Y-71110369D01*
X95584995Y-71110368D01*
X95584993Y-71110364D01*
X95498747Y-70995155D01*
X95498744Y-70995152D01*
X95383535Y-70908906D01*
X95383528Y-70908902D01*
X95248682Y-70858608D01*
X95248683Y-70858608D01*
X95189083Y-70852201D01*
X95189081Y-70852200D01*
X95189073Y-70852200D01*
X95189064Y-70852200D01*
X93393329Y-70852200D01*
X93393323Y-70852201D01*
X93333716Y-70858608D01*
X93198871Y-70908902D01*
X93198864Y-70908906D01*
X93083655Y-70995152D01*
X93083652Y-70995155D01*
X92997406Y-71110364D01*
X92997402Y-71110371D01*
X92947108Y-71245217D01*
X92940701Y-71304816D01*
X92940701Y-71304823D01*
X92940700Y-71304835D01*
X92940700Y-73100570D01*
X92940701Y-73100576D01*
X92947108Y-73160183D01*
X92997402Y-73295028D01*
X92997406Y-73295035D01*
X93083652Y-73410244D01*
X93083655Y-73410247D01*
X93198864Y-73496493D01*
X93198871Y-73496497D01*
X93330281Y-73545510D01*
X93386215Y-73587381D01*
X93410632Y-73652845D01*
X93395780Y-73721118D01*
X93374630Y-73749373D01*
X93252703Y-73871300D01*
X93117165Y-74064869D01*
X93117164Y-74064871D01*
X93017298Y-74279035D01*
X93017294Y-74279044D01*
X92956138Y-74507286D01*
X92956136Y-74507296D01*
X92935541Y-74742699D01*
X92935541Y-74742700D01*
X92956136Y-74978103D01*
X92956138Y-74978113D01*
X93017294Y-75206355D01*
X93017296Y-75206359D01*
X93017297Y-75206363D01*
X93109699Y-75404519D01*
X93117165Y-75420530D01*
X93117167Y-75420534D01*
X93152065Y-75470373D01*
X93252701Y-75614096D01*
X93252706Y-75614102D01*
X93419797Y-75781193D01*
X93419803Y-75781198D01*
X93605358Y-75911125D01*
X93648983Y-75965702D01*
X93656177Y-76035200D01*
X93624654Y-76097555D01*
X93605358Y-76114275D01*
X93419797Y-76244205D01*
X93252705Y-76411297D01*
X93117165Y-76604869D01*
X93117164Y-76604871D01*
X93017298Y-76819035D01*
X93017294Y-76819044D01*
X92956138Y-77047286D01*
X92956136Y-77047296D01*
X92935541Y-77282699D01*
X92935541Y-77282700D01*
X92956136Y-77518103D01*
X92956138Y-77518113D01*
X93017294Y-77746355D01*
X93017296Y-77746359D01*
X93017297Y-77746363D01*
X93117165Y-77960530D01*
X93117167Y-77960534D01*
X93252701Y-78154095D01*
X93252706Y-78154102D01*
X93419797Y-78321193D01*
X93419803Y-78321198D01*
X93605358Y-78451125D01*
X93648983Y-78505702D01*
X93656177Y-78575200D01*
X93624654Y-78637555D01*
X93605358Y-78654275D01*
X93419797Y-78784205D01*
X93252705Y-78951297D01*
X93117165Y-79144869D01*
X93117164Y-79144871D01*
X93017298Y-79359035D01*
X93017294Y-79359044D01*
X92956138Y-79587286D01*
X92956136Y-79587296D01*
X92935541Y-79822699D01*
X92935541Y-79822700D01*
X92956136Y-80058103D01*
X92956138Y-80058113D01*
X93017294Y-80286355D01*
X93017299Y-80286369D01*
X93019363Y-80290794D01*
X93029856Y-80359871D01*
X93001337Y-80423655D01*
X92942861Y-80461896D01*
X92906982Y-80467200D01*
X92141852Y-80467200D01*
X92074813Y-80447515D01*
X92054171Y-80430881D01*
X83442203Y-71818912D01*
X83432380Y-71806650D01*
X83432159Y-71806834D01*
X83427186Y-71800823D01*
X83376764Y-71753473D01*
X83366319Y-71743028D01*
X83355875Y-71732583D01*
X83350386Y-71728325D01*
X83345961Y-71724547D01*
X83311982Y-71692638D01*
X83311980Y-71692636D01*
X83311977Y-71692635D01*
X83294429Y-71682988D01*
X83278163Y-71672304D01*
X83262333Y-71660025D01*
X83219568Y-71641518D01*
X83214322Y-71638948D01*
X83173493Y-71616503D01*
X83173492Y-71616502D01*
X83154093Y-71611522D01*
X83135681Y-71605218D01*
X83117298Y-71597262D01*
X83117292Y-71597260D01*
X83071274Y-71589972D01*
X83065552Y-71588787D01*
X83020421Y-71577200D01*
X83020419Y-71577200D01*
X83000384Y-71577200D01*
X82980986Y-71575673D01*
X82973562Y-71574497D01*
X82961205Y-71572540D01*
X82961204Y-71572540D01*
X82914816Y-71576925D01*
X82908978Y-71577200D01*
X80525699Y-71577200D01*
X80458660Y-71557515D01*
X80412905Y-71504711D01*
X80401699Y-71453200D01*
X80401699Y-71304829D01*
X80401698Y-71304823D01*
X80401697Y-71304816D01*
X80395291Y-71245217D01*
X80344996Y-71110369D01*
X80344995Y-71110368D01*
X80344993Y-71110364D01*
X80258747Y-70995155D01*
X80258744Y-70995152D01*
X80143535Y-70908906D01*
X80143528Y-70908902D01*
X80008682Y-70858608D01*
X80008683Y-70858608D01*
X79949083Y-70852201D01*
X79949081Y-70852200D01*
X79949073Y-70852200D01*
X79949064Y-70852200D01*
X78153329Y-70852200D01*
X78153323Y-70852201D01*
X78093716Y-70858608D01*
X77958871Y-70908902D01*
X77958864Y-70908906D01*
X77843655Y-70995152D01*
X77843652Y-70995155D01*
X77757406Y-71110364D01*
X77757402Y-71110371D01*
X77707108Y-71245217D01*
X77700701Y-71304816D01*
X77700701Y-71304823D01*
X77700700Y-71304835D01*
X77700700Y-73100570D01*
X77700701Y-73100576D01*
X77707108Y-73160183D01*
X77757402Y-73295028D01*
X77757406Y-73295035D01*
X77843652Y-73410244D01*
X77843655Y-73410247D01*
X77958864Y-73496493D01*
X77958871Y-73496497D01*
X78090281Y-73545510D01*
X78146215Y-73587381D01*
X78170632Y-73652845D01*
X78155780Y-73721118D01*
X78134630Y-73749373D01*
X78012703Y-73871300D01*
X77877165Y-74064869D01*
X77877164Y-74064871D01*
X77777298Y-74279035D01*
X77777294Y-74279044D01*
X77716138Y-74507286D01*
X77716136Y-74507296D01*
X77695541Y-74742699D01*
X77695541Y-74742700D01*
X77716136Y-74978103D01*
X77716138Y-74978113D01*
X77777294Y-75206355D01*
X77777296Y-75206359D01*
X77777297Y-75206363D01*
X77869699Y-75404519D01*
X77877165Y-75420530D01*
X77877167Y-75420534D01*
X77912065Y-75470373D01*
X78012701Y-75614096D01*
X78012706Y-75614102D01*
X78179797Y-75781193D01*
X78179803Y-75781198D01*
X78365358Y-75911125D01*
X78408983Y-75965702D01*
X78416177Y-76035200D01*
X78384654Y-76097555D01*
X78365358Y-76114275D01*
X78179797Y-76244205D01*
X78012705Y-76411297D01*
X77877165Y-76604869D01*
X77877164Y-76604871D01*
X77777298Y-76819035D01*
X77777294Y-76819044D01*
X77716138Y-77047286D01*
X77716136Y-77047296D01*
X77695541Y-77282699D01*
X77695541Y-77282700D01*
X77716136Y-77518103D01*
X77716138Y-77518113D01*
X77777294Y-77746355D01*
X77777296Y-77746359D01*
X77777297Y-77746363D01*
X77877165Y-77960530D01*
X77877167Y-77960534D01*
X77990750Y-78122747D01*
X78013077Y-78188953D01*
X77996067Y-78256720D01*
X77976856Y-78281551D01*
X77487308Y-78771099D01*
X77475051Y-78780920D01*
X77475234Y-78781141D01*
X77469223Y-78786113D01*
X77421872Y-78836536D01*
X77400989Y-78857419D01*
X77400977Y-78857432D01*
X77396721Y-78862917D01*
X77392937Y-78867347D01*
X77361037Y-78901318D01*
X77361036Y-78901320D01*
X77351384Y-78918876D01*
X77340710Y-78935126D01*
X77328429Y-78950961D01*
X77328424Y-78950968D01*
X77309915Y-78993738D01*
X77307345Y-78998984D01*
X77284903Y-79039806D01*
X77279922Y-79059207D01*
X77273621Y-79077610D01*
X77265662Y-79096002D01*
X77265661Y-79096005D01*
X77258371Y-79142027D01*
X77257187Y-79147746D01*
X77245601Y-79192872D01*
X77245600Y-79192882D01*
X77245600Y-79212916D01*
X77244073Y-79232315D01*
X77240940Y-79252094D01*
X77240940Y-79252095D01*
X76177775Y-79252095D01*
X76177775Y-69898187D01*
X76197460Y-69831148D01*
X76214094Y-69810506D01*
X76454000Y-69570600D01*
X76454000Y-69535850D01*
X76473685Y-69468811D01*
X76526489Y-69423056D01*
X76578000Y-69411850D01*
X106587750Y-69411850D01*
X106654789Y-69431535D01*
G37*
%TD.AperFunction*%
%TA.AperFunction,NonConductor*%
G36*
X95857848Y-77208338D02*
G01*
X99496829Y-80847319D01*
X99530314Y-80908642D01*
X99525330Y-80978334D01*
X99483458Y-81034267D01*
X99417994Y-81058684D01*
X99409148Y-81059000D01*
X98657216Y-81059000D01*
X98487312Y-81073864D01*
X98487302Y-81073866D01*
X98267511Y-81132758D01*
X98267502Y-81132761D01*
X98061267Y-81228931D01*
X98061265Y-81228932D01*
X97874858Y-81359454D01*
X97713954Y-81520358D01*
X97583432Y-81706765D01*
X97583431Y-81706767D01*
X97487261Y-81913002D01*
X97487258Y-81913011D01*
X97428366Y-82132802D01*
X97428364Y-82132813D01*
X97408532Y-82359498D01*
X97408532Y-82359501D01*
X97428364Y-82586186D01*
X97428367Y-82586200D01*
X97435558Y-82613039D01*
X97433895Y-82682889D01*
X97394731Y-82740751D01*
X97330502Y-82768254D01*
X97261600Y-82756667D01*
X97228102Y-82732812D01*
X96355137Y-81859847D01*
X95345486Y-80850195D01*
X95312001Y-80788872D01*
X95316985Y-80719180D01*
X95331588Y-80691397D01*
X95465235Y-80500530D01*
X95565103Y-80286363D01*
X95626263Y-80058108D01*
X95646859Y-79822700D01*
X95626263Y-79587292D01*
X95565103Y-79359037D01*
X95465235Y-79144871D01*
X95464852Y-79144323D01*
X95329694Y-78951297D01*
X95162602Y-78784206D01*
X95162596Y-78784201D01*
X94977042Y-78654275D01*
X94933417Y-78599698D01*
X94926223Y-78530200D01*
X94957746Y-78467845D01*
X94977042Y-78451125D01*
X94999226Y-78435591D01*
X95162601Y-78321195D01*
X95329695Y-78154101D01*
X95465235Y-77960530D01*
X95565103Y-77746363D01*
X95626263Y-77518108D01*
X95646639Y-77285211D01*
X95672091Y-77220143D01*
X95728682Y-77179164D01*
X95798444Y-77175286D01*
X95857848Y-77208338D01*
G37*
%TD.AperFunction*%
%TA.AperFunction,NonConductor*%
G36*
X95666489Y-82944096D02*
G01*
X95686306Y-82960196D01*
X96214784Y-83488675D01*
X96739397Y-84013288D01*
X96749222Y-84025551D01*
X96749443Y-84025369D01*
X96754411Y-84031374D01*
X96787884Y-84062808D01*
X96823279Y-84123049D01*
X96820486Y-84192863D01*
X96780392Y-84250084D01*
X96715726Y-84276545D01*
X96703000Y-84277200D01*
X95566427Y-84277200D01*
X95499388Y-84257515D01*
X95464852Y-84224323D01*
X95329694Y-84031297D01*
X95162602Y-83864206D01*
X95162596Y-83864201D01*
X94977042Y-83734275D01*
X94933417Y-83679698D01*
X94926223Y-83610200D01*
X94957746Y-83547845D01*
X94977042Y-83531125D01*
X95100659Y-83444567D01*
X95162601Y-83401195D01*
X95329695Y-83234101D01*
X95465235Y-83040530D01*
X95486245Y-82995471D01*
X95532414Y-82943035D01*
X95599607Y-82923882D01*
X95666489Y-82944096D01*
G37*
%TD.AperFunction*%
%TA.AperFunction,NonConductor*%
G36*
X82116540Y-83007885D02*
G01*
X82162295Y-83060689D01*
X82173501Y-83112200D01*
X82173501Y-83207376D01*
X82179908Y-83266983D01*
X82230202Y-83401828D01*
X82230206Y-83401835D01*
X82316452Y-83517044D01*
X82316455Y-83517047D01*
X82431664Y-83603293D01*
X82431671Y-83603297D01*
X82476618Y-83620061D01*
X82566517Y-83653591D01*
X82601596Y-83657362D01*
X82666144Y-83684099D01*
X82705993Y-83741491D01*
X82708488Y-83811316D01*
X82672836Y-83871405D01*
X82659464Y-83882225D01*
X82634858Y-83899454D01*
X82473956Y-84060356D01*
X82359687Y-84223550D01*
X82305110Y-84267174D01*
X82262011Y-84276365D01*
X82240679Y-84277036D01*
X82240672Y-84276842D01*
X82236130Y-84277200D01*
X80326427Y-84277200D01*
X80259388Y-84257515D01*
X80224852Y-84224323D01*
X80089694Y-84031297D01*
X79922602Y-83864206D01*
X79922596Y-83864201D01*
X79737042Y-83734275D01*
X79693417Y-83679698D01*
X79686223Y-83610200D01*
X79717746Y-83547845D01*
X79737042Y-83531125D01*
X79860659Y-83444567D01*
X79922601Y-83401195D01*
X80089695Y-83234101D01*
X80224852Y-83041077D01*
X80279429Y-82997452D01*
X80326427Y-82988200D01*
X82049501Y-82988200D01*
X82116540Y-83007885D01*
G37*
%TD.AperFunction*%
%TA.AperFunction,NonConductor*%
G36*
X101022749Y-82373240D02*
G01*
X102084989Y-83435480D01*
X102118474Y-83496803D01*
X102113490Y-83566495D01*
X102071624Y-83622424D01*
X102059329Y-83631628D01*
X102059327Y-83631630D01*
X101973081Y-83746839D01*
X101973077Y-83746846D01*
X101922783Y-83881692D01*
X101916376Y-83941291D01*
X101916376Y-83941298D01*
X101916375Y-83941310D01*
X101916375Y-84603722D01*
X101896690Y-84670761D01*
X101843886Y-84716516D01*
X101774728Y-84726460D01*
X101711172Y-84697435D01*
X101704694Y-84691403D01*
X101261776Y-84248485D01*
X101230381Y-84195399D01*
X101219518Y-84158011D01*
X101219516Y-84158006D01*
X101209323Y-84140771D01*
X101200761Y-84123294D01*
X101193387Y-84104670D01*
X101189718Y-84099620D01*
X101165979Y-84066945D01*
X101162788Y-84062086D01*
X101161766Y-84060358D01*
X101139070Y-84021980D01*
X101139068Y-84021978D01*
X101139065Y-84021974D01*
X101124906Y-84007815D01*
X101112268Y-83993019D01*
X101100494Y-83976813D01*
X101064588Y-83947109D01*
X101060276Y-83943186D01*
X100502569Y-83385478D01*
X100469084Y-83324155D01*
X100474068Y-83254463D01*
X100502570Y-83210115D01*
X100514047Y-83198639D01*
X100644568Y-83012234D01*
X100740739Y-82805996D01*
X100799635Y-82586192D01*
X100811540Y-82450113D01*
X100836992Y-82385045D01*
X100893583Y-82344066D01*
X100963345Y-82340188D01*
X101022749Y-82373240D01*
G37*
%TD.AperFunction*%
%TA.AperFunction,NonConductor*%
G36*
X82697987Y-72847885D02*
G01*
X82718629Y-72864519D01*
X91330594Y-81476484D01*
X91340419Y-81488748D01*
X91340640Y-81488566D01*
X91345610Y-81494573D01*
X91345613Y-81494576D01*
X91345614Y-81494577D01*
X91396051Y-81541941D01*
X91416930Y-81562820D01*
X91422404Y-81567066D01*
X91426842Y-81570856D01*
X91460818Y-81602762D01*
X91460822Y-81602764D01*
X91478373Y-81612413D01*
X91494631Y-81623092D01*
X91510464Y-81635374D01*
X91532415Y-81644872D01*
X91553237Y-81653883D01*
X91558481Y-81656452D01*
X91599308Y-81678897D01*
X91618712Y-81683879D01*
X91637110Y-81690178D01*
X91655505Y-81698138D01*
X91701529Y-81705426D01*
X91707232Y-81706607D01*
X91752381Y-81718200D01*
X91772416Y-81718200D01*
X91791813Y-81719726D01*
X91811596Y-81722860D01*
X91857984Y-81718475D01*
X91863822Y-81718200D01*
X92906982Y-81718200D01*
X92974021Y-81737885D01*
X93019776Y-81790689D01*
X93029720Y-81859847D01*
X93019363Y-81894606D01*
X93017299Y-81899030D01*
X93017294Y-81899044D01*
X92956138Y-82127286D01*
X92956136Y-82127296D01*
X92935541Y-82362699D01*
X92935541Y-82362700D01*
X92956136Y-82598103D01*
X92956138Y-82598113D01*
X93017294Y-82826355D01*
X93017296Y-82826359D01*
X93017297Y-82826363D01*
X93097077Y-82997452D01*
X93117165Y-83040530D01*
X93117167Y-83040534D01*
X93225481Y-83195221D01*
X93252701Y-83234096D01*
X93252706Y-83234102D01*
X93419797Y-83401193D01*
X93419803Y-83401198D01*
X93605358Y-83531125D01*
X93648983Y-83585702D01*
X93656177Y-83655200D01*
X93624654Y-83717555D01*
X93605358Y-83734275D01*
X93419797Y-83864205D01*
X93252705Y-84031297D01*
X93117165Y-84224869D01*
X93117164Y-84224871D01*
X93017298Y-84439035D01*
X93017294Y-84439044D01*
X92956138Y-84667286D01*
X92956136Y-84667296D01*
X92946114Y-84781843D01*
X92920661Y-84846911D01*
X92864069Y-84887889D01*
X92794307Y-84891766D01*
X92734905Y-84858715D01*
X82235103Y-74358912D01*
X82225280Y-74346650D01*
X82225059Y-74346834D01*
X82220086Y-74340823D01*
X82169664Y-74293473D01*
X82155226Y-74279035D01*
X82148775Y-74272583D01*
X82143286Y-74268325D01*
X82138861Y-74264547D01*
X82104882Y-74232638D01*
X82104880Y-74232636D01*
X82104877Y-74232635D01*
X82087329Y-74222988D01*
X82071063Y-74212304D01*
X82055233Y-74200025D01*
X82012468Y-74181518D01*
X82007222Y-74178948D01*
X81966393Y-74156503D01*
X81966392Y-74156502D01*
X81946993Y-74151522D01*
X81928581Y-74145218D01*
X81910198Y-74137262D01*
X81910192Y-74137260D01*
X81864174Y-74129972D01*
X81858452Y-74128787D01*
X81813321Y-74117200D01*
X81813319Y-74117200D01*
X81793284Y-74117200D01*
X81773886Y-74115673D01*
X81766462Y-74114497D01*
X81754105Y-74112540D01*
X81754104Y-74112540D01*
X81707716Y-74116925D01*
X81701878Y-74117200D01*
X80326427Y-74117200D01*
X80259388Y-74097515D01*
X80224852Y-74064323D01*
X80089696Y-73871300D01*
X80089695Y-73871299D01*
X79967767Y-73749371D01*
X79934284Y-73688051D01*
X79939268Y-73618359D01*
X79981139Y-73562425D01*
X80012115Y-73545510D01*
X80143531Y-73496496D01*
X80258746Y-73410246D01*
X80344996Y-73295031D01*
X80395291Y-73160183D01*
X80401700Y-73100573D01*
X80401700Y-72952200D01*
X80421385Y-72885161D01*
X80474189Y-72839406D01*
X80525700Y-72828200D01*
X82630948Y-72828200D01*
X82697987Y-72847885D01*
G37*
%TD.AperFunction*%
%TA.AperFunction,NonConductor*%
G36*
X82288165Y-85531177D02*
G01*
X82289227Y-85531414D01*
X82350370Y-85565228D01*
X82363793Y-85581312D01*
X82393791Y-85624155D01*
X82473954Y-85738641D01*
X82634858Y-85899545D01*
X82634861Y-85899547D01*
X82821266Y-86030068D01*
X82879275Y-86057118D01*
X82931714Y-86103291D01*
X82950866Y-86170484D01*
X82930650Y-86237365D01*
X82879275Y-86281882D01*
X82821267Y-86308931D01*
X82821265Y-86308932D01*
X82634858Y-86439454D01*
X82473956Y-86600356D01*
X82359687Y-86763550D01*
X82305110Y-86807174D01*
X82262011Y-86816365D01*
X82240679Y-86817036D01*
X82240672Y-86816842D01*
X82236130Y-86817200D01*
X80326427Y-86817200D01*
X80259388Y-86797515D01*
X80224852Y-86764323D01*
X80089694Y-86571297D01*
X79922602Y-86404206D01*
X79922596Y-86404201D01*
X79737042Y-86274275D01*
X79693417Y-86219698D01*
X79686223Y-86150200D01*
X79717746Y-86087845D01*
X79737042Y-86071125D01*
X79795679Y-86030067D01*
X79922601Y-85941195D01*
X80089695Y-85774101D01*
X80224852Y-85581077D01*
X80279429Y-85537452D01*
X80326427Y-85528200D01*
X82261157Y-85528200D01*
X82288165Y-85531177D01*
G37*
%TD.AperFunction*%
%TA.AperFunction,NonConductor*%
G36*
X100808742Y-85564720D02*
G01*
X100811565Y-85567455D01*
X101369811Y-86125702D01*
X101888497Y-86644388D01*
X101898322Y-86656651D01*
X101898543Y-86656469D01*
X101903514Y-86662478D01*
X101929517Y-86686895D01*
X101953935Y-86709826D01*
X101964382Y-86720273D01*
X101974828Y-86730720D01*
X101977749Y-86733295D01*
X101976774Y-86734400D01*
X102014120Y-86786100D01*
X102017917Y-86855867D01*
X102009600Y-86879852D01*
X101992973Y-86915509D01*
X101992970Y-86915516D01*
X101941107Y-87109074D01*
X101904742Y-87168734D01*
X101841895Y-87199263D01*
X101772519Y-87190968D01*
X101733651Y-87164661D01*
X101140367Y-86571377D01*
X100498519Y-85929528D01*
X100465034Y-85868205D01*
X100470018Y-85798513D01*
X100498517Y-85754168D01*
X100514047Y-85738639D01*
X100622314Y-85584016D01*
X100676889Y-85540392D01*
X100746387Y-85533198D01*
X100808742Y-85564720D01*
G37*
%TD.AperFunction*%
%TA.AperFunction,NonConductor*%
G36*
X81490887Y-75387885D02*
G01*
X81511529Y-75404519D01*
X92660294Y-86553284D01*
X92670119Y-86565548D01*
X92670340Y-86565366D01*
X92675310Y-86571373D01*
X92675313Y-86571376D01*
X92675314Y-86571377D01*
X92725751Y-86618741D01*
X92746630Y-86639620D01*
X92752104Y-86643866D01*
X92756542Y-86647656D01*
X92790518Y-86679562D01*
X92790522Y-86679564D01*
X92808073Y-86689213D01*
X92824331Y-86699892D01*
X92840164Y-86712174D01*
X92862115Y-86721672D01*
X92882937Y-86730683D01*
X92888181Y-86733252D01*
X92929008Y-86755697D01*
X92948412Y-86760679D01*
X92966799Y-86766973D01*
X92974071Y-86770120D01*
X93027780Y-86814805D01*
X93048805Y-86881436D01*
X93037213Y-86936326D01*
X93017298Y-86979035D01*
X93017295Y-86979042D01*
X92974878Y-87137345D01*
X92938513Y-87197005D01*
X92875666Y-87227534D01*
X92806290Y-87219239D01*
X92767422Y-87192932D01*
X88959968Y-83385478D01*
X85013403Y-79438912D01*
X85003580Y-79426650D01*
X85003359Y-79426834D01*
X84998386Y-79420823D01*
X84947964Y-79373473D01*
X84933526Y-79359035D01*
X84927075Y-79352583D01*
X84921586Y-79348325D01*
X84917161Y-79344547D01*
X84883182Y-79312638D01*
X84883180Y-79312636D01*
X84883177Y-79312635D01*
X84865629Y-79302988D01*
X84849363Y-79292304D01*
X84833533Y-79280025D01*
X84790768Y-79261518D01*
X84785522Y-79258948D01*
X84744693Y-79236503D01*
X84744692Y-79236502D01*
X84725293Y-79231522D01*
X84706881Y-79225218D01*
X84688498Y-79217262D01*
X84688492Y-79217260D01*
X84642474Y-79209972D01*
X84636752Y-79208787D01*
X84591621Y-79197200D01*
X84591619Y-79197200D01*
X84571584Y-79197200D01*
X84552186Y-79195673D01*
X84544762Y-79194497D01*
X84532405Y-79192540D01*
X84532404Y-79192540D01*
X84486016Y-79196925D01*
X84480178Y-79197200D01*
X80326427Y-79197200D01*
X80259388Y-79177515D01*
X80224852Y-79144323D01*
X80089694Y-78951297D01*
X79922602Y-78784206D01*
X79922596Y-78784201D01*
X79737042Y-78654275D01*
X79693417Y-78599698D01*
X79686223Y-78530200D01*
X79717746Y-78467845D01*
X79737042Y-78451125D01*
X79759226Y-78435591D01*
X79922601Y-78321195D01*
X80089695Y-78154101D01*
X80225235Y-77960530D01*
X80325103Y-77746363D01*
X80386263Y-77518108D01*
X80406859Y-77282700D01*
X80386263Y-77047292D01*
X80325103Y-76819037D01*
X80225235Y-76604871D01*
X80089695Y-76411299D01*
X80089694Y-76411297D01*
X79922602Y-76244206D01*
X79922596Y-76244201D01*
X79737042Y-76114275D01*
X79693417Y-76059698D01*
X79686223Y-75990200D01*
X79717746Y-75927845D01*
X79737042Y-75911125D01*
X79759226Y-75895591D01*
X79922601Y-75781195D01*
X80089695Y-75614101D01*
X80224852Y-75421077D01*
X80279429Y-75377452D01*
X80326427Y-75368200D01*
X81423848Y-75368200D01*
X81490887Y-75387885D01*
G37*
%TD.AperFunction*%
%TA.AperFunction,NonConductor*%
G36*
X97528165Y-88071177D02*
G01*
X97529227Y-88071414D01*
X97590370Y-88105228D01*
X97603793Y-88121312D01*
X97625657Y-88152538D01*
X97713954Y-88278641D01*
X97874858Y-88439545D01*
X97874861Y-88439547D01*
X98061266Y-88570068D01*
X98119275Y-88597118D01*
X98171714Y-88643291D01*
X98190866Y-88710484D01*
X98170650Y-88777365D01*
X98119275Y-88821882D01*
X98061267Y-88848931D01*
X98061265Y-88848932D01*
X97874862Y-88979451D01*
X97760932Y-89093381D01*
X97699609Y-89126865D01*
X97629917Y-89121881D01*
X97585570Y-89093380D01*
X97244951Y-88752761D01*
X96821103Y-88328912D01*
X96811280Y-88316650D01*
X96811059Y-88316834D01*
X96806086Y-88310823D01*
X96776024Y-88282593D01*
X96740629Y-88222352D01*
X96743421Y-88152538D01*
X96783515Y-88095317D01*
X96848180Y-88068855D01*
X96860907Y-88068200D01*
X97501157Y-88068200D01*
X97528165Y-88071177D01*
G37*
%TD.AperFunction*%
%TA.AperFunction,NonConductor*%
G36*
X82288165Y-88071177D02*
G01*
X82289227Y-88071414D01*
X82350370Y-88105228D01*
X82363793Y-88121312D01*
X82385657Y-88152538D01*
X82473954Y-88278641D01*
X82634858Y-88439545D01*
X82634861Y-88439547D01*
X82821266Y-88570068D01*
X82879275Y-88597118D01*
X82931714Y-88643291D01*
X82950866Y-88710484D01*
X82930650Y-88777365D01*
X82879275Y-88821882D01*
X82821267Y-88848931D01*
X82821265Y-88848932D01*
X82634858Y-88979454D01*
X82473956Y-89140356D01*
X82359687Y-89303550D01*
X82305110Y-89347174D01*
X82262011Y-89356365D01*
X82240679Y-89357036D01*
X82240672Y-89356842D01*
X82236130Y-89357200D01*
X80326427Y-89357200D01*
X80259388Y-89337515D01*
X80224852Y-89304323D01*
X80089694Y-89111297D01*
X79922602Y-88944206D01*
X79922596Y-88944201D01*
X79737042Y-88814275D01*
X79693417Y-88759698D01*
X79686223Y-88690200D01*
X79717746Y-88627845D01*
X79737042Y-88611125D01*
X79827765Y-88547600D01*
X79922601Y-88481195D01*
X80089695Y-88314101D01*
X80224852Y-88121077D01*
X80279429Y-88077452D01*
X80326427Y-88068200D01*
X82261157Y-88068200D01*
X82288165Y-88071177D01*
G37*
%TD.AperFunction*%
%TA.AperFunction,NonConductor*%
G36*
X96076887Y-89357885D02*
G01*
X96097529Y-89374519D01*
X97086294Y-90363284D01*
X97096119Y-90375548D01*
X97096340Y-90375366D01*
X97101310Y-90381373D01*
X97101313Y-90381376D01*
X97101314Y-90381377D01*
X97102861Y-90382830D01*
X97131376Y-90409607D01*
X97166771Y-90469848D01*
X97163979Y-90539662D01*
X97123886Y-90596883D01*
X97059221Y-90623345D01*
X97046493Y-90624000D01*
X95676910Y-90624000D01*
X95609871Y-90604315D01*
X95564116Y-90551511D01*
X95554172Y-90482353D01*
X95563369Y-90451486D01*
X95563253Y-90451444D01*
X95563961Y-90449496D01*
X95564528Y-90447594D01*
X95565103Y-90446363D01*
X95626263Y-90218108D01*
X95646859Y-89982700D01*
X95626263Y-89747292D01*
X95579826Y-89573985D01*
X95565105Y-89519044D01*
X95565100Y-89519030D01*
X95563037Y-89514606D01*
X95552544Y-89445529D01*
X95581063Y-89381745D01*
X95639539Y-89343504D01*
X95675418Y-89338200D01*
X96009848Y-89338200D01*
X96076887Y-89357885D01*
G37*
%TD.AperFunction*%
%TA.AperFunction,NonConductor*%
G36*
X82288165Y-90611177D02*
G01*
X82289227Y-90611414D01*
X82350370Y-90645228D01*
X82363794Y-90661314D01*
X82473954Y-90818641D01*
X82634858Y-90979545D01*
X82634861Y-90979547D01*
X82821266Y-91110068D01*
X82879275Y-91137118D01*
X82931714Y-91183291D01*
X82950866Y-91250484D01*
X82930650Y-91317365D01*
X82879275Y-91361882D01*
X82821267Y-91388931D01*
X82821265Y-91388932D01*
X82634858Y-91519454D01*
X82473956Y-91680356D01*
X82359687Y-91843550D01*
X82305110Y-91887174D01*
X82262011Y-91896365D01*
X82240679Y-91897036D01*
X82240672Y-91896842D01*
X82236130Y-91897200D01*
X80326427Y-91897200D01*
X80259388Y-91877515D01*
X80224852Y-91844323D01*
X80089694Y-91651297D01*
X79922602Y-91484206D01*
X79922596Y-91484201D01*
X79737042Y-91354275D01*
X79693417Y-91299698D01*
X79686223Y-91230200D01*
X79717746Y-91167845D01*
X79737042Y-91151125D01*
X79827765Y-91087600D01*
X79922601Y-91021195D01*
X80089695Y-90854101D01*
X80224852Y-90661077D01*
X80279429Y-90617452D01*
X80326427Y-90608200D01*
X82261157Y-90608200D01*
X82288165Y-90611177D01*
G37*
%TD.AperFunction*%
%TA.AperFunction,NonConductor*%
G36*
X100828669Y-88032577D02*
G01*
X100848490Y-88048680D01*
X101415981Y-88616171D01*
X101449466Y-88677494D01*
X101452300Y-88703852D01*
X101452300Y-90448855D01*
X101450575Y-90464472D01*
X101450861Y-90464499D01*
X101450126Y-90472265D01*
X101452300Y-90541414D01*
X101452300Y-90570943D01*
X101452301Y-90570960D01*
X101453168Y-90577831D01*
X101453626Y-90583650D01*
X101455090Y-90630224D01*
X101455674Y-90632234D01*
X101460680Y-90649467D01*
X101464624Y-90668511D01*
X101467136Y-90688391D01*
X101484290Y-90731719D01*
X101486182Y-90737247D01*
X101499181Y-90781988D01*
X101509380Y-90799234D01*
X101517936Y-90816700D01*
X101520345Y-90822782D01*
X101525314Y-90835332D01*
X101552698Y-90873023D01*
X101555906Y-90877907D01*
X101579627Y-90918016D01*
X101579633Y-90918024D01*
X101593790Y-90932180D01*
X101606428Y-90946976D01*
X101618205Y-90963186D01*
X101618206Y-90963187D01*
X101654109Y-90992888D01*
X101658420Y-90996810D01*
X101911110Y-91249500D01*
X102163456Y-91501846D01*
X102196941Y-91563169D01*
X102191957Y-91632861D01*
X102177351Y-91660649D01*
X102092839Y-91781346D01*
X101992973Y-91995510D01*
X101992969Y-91995519D01*
X101946898Y-92167463D01*
X101910533Y-92227124D01*
X101847686Y-92257653D01*
X101778311Y-92249358D01*
X101739442Y-92223051D01*
X100512219Y-90995828D01*
X100478734Y-90934505D01*
X100483718Y-90864813D01*
X100510676Y-90822870D01*
X100510570Y-90822782D01*
X100511267Y-90821950D01*
X100512225Y-90820460D01*
X100514047Y-90818639D01*
X100644568Y-90632234D01*
X100740739Y-90425996D01*
X100799635Y-90206192D01*
X100819468Y-89979500D01*
X100799635Y-89752808D01*
X100740739Y-89533004D01*
X100644568Y-89326766D01*
X100514047Y-89140361D01*
X100514045Y-89140358D01*
X100353141Y-88979454D01*
X100166734Y-88848932D01*
X100166728Y-88848929D01*
X100108725Y-88821882D01*
X100056285Y-88775710D01*
X100037133Y-88708517D01*
X100057348Y-88641635D01*
X100108725Y-88597118D01*
X100166734Y-88570068D01*
X100353139Y-88439547D01*
X100514047Y-88278639D01*
X100644568Y-88092234D01*
X100648426Y-88083958D01*
X100694594Y-88031520D01*
X100761787Y-88012365D01*
X100828669Y-88032577D01*
G37*
%TD.AperFunction*%
%TA.AperFunction,NonConductor*%
G36*
X97528165Y-93151177D02*
G01*
X97529227Y-93151414D01*
X97590370Y-93185228D01*
X97603794Y-93201314D01*
X97713954Y-93358641D01*
X97874858Y-93519545D01*
X97874861Y-93519547D01*
X98061266Y-93650068D01*
X98119275Y-93677118D01*
X98171714Y-93723291D01*
X98190866Y-93790484D01*
X98170650Y-93857365D01*
X98119275Y-93901882D01*
X98061267Y-93928931D01*
X98061265Y-93928932D01*
X97874858Y-94059454D01*
X97713956Y-94220356D01*
X97599687Y-94383550D01*
X97545110Y-94427174D01*
X97502011Y-94436365D01*
X97480679Y-94437036D01*
X97480672Y-94436842D01*
X97476130Y-94437200D01*
X95566427Y-94437200D01*
X95499388Y-94417515D01*
X95464852Y-94384323D01*
X95329694Y-94191297D01*
X95162602Y-94024206D01*
X95162596Y-94024201D01*
X94977042Y-93894275D01*
X94933417Y-93839698D01*
X94926223Y-93770200D01*
X94957746Y-93707845D01*
X94977042Y-93691125D01*
X95067765Y-93627600D01*
X95162601Y-93561195D01*
X95329695Y-93394101D01*
X95464852Y-93201077D01*
X95519429Y-93157452D01*
X95566427Y-93148200D01*
X97501157Y-93148200D01*
X97528165Y-93151177D01*
G37*
%TD.AperFunction*%
%TA.AperFunction,NonConductor*%
G36*
X82288165Y-93151177D02*
G01*
X82289227Y-93151414D01*
X82350370Y-93185228D01*
X82363794Y-93201314D01*
X82473954Y-93358641D01*
X82634858Y-93519545D01*
X82634861Y-93519547D01*
X82821266Y-93650068D01*
X82879275Y-93677118D01*
X82931714Y-93723291D01*
X82950866Y-93790484D01*
X82930650Y-93857365D01*
X82879275Y-93901882D01*
X82821267Y-93928931D01*
X82821265Y-93928932D01*
X82634858Y-94059454D01*
X82473956Y-94220356D01*
X82359687Y-94383550D01*
X82305110Y-94427174D01*
X82262011Y-94436365D01*
X82240679Y-94437036D01*
X82240672Y-94436842D01*
X82236130Y-94437200D01*
X80326427Y-94437200D01*
X80259388Y-94417515D01*
X80224852Y-94384323D01*
X80089694Y-94191297D01*
X79922602Y-94024206D01*
X79922596Y-94024201D01*
X79737042Y-93894275D01*
X79693417Y-93839698D01*
X79686223Y-93770200D01*
X79717746Y-93707845D01*
X79737042Y-93691125D01*
X79827765Y-93627600D01*
X79922601Y-93561195D01*
X80089695Y-93394101D01*
X80224852Y-93201077D01*
X80279429Y-93157452D01*
X80326427Y-93148200D01*
X82261157Y-93148200D01*
X82288165Y-93151177D01*
G37*
%TD.AperFunction*%
%TA.AperFunction,NonConductor*%
G36*
X82288165Y-95691177D02*
G01*
X82289227Y-95691414D01*
X82350370Y-95725228D01*
X82363794Y-95741314D01*
X82473954Y-95898641D01*
X82634858Y-96059545D01*
X82634861Y-96059547D01*
X82821266Y-96190068D01*
X82879275Y-96217118D01*
X82931714Y-96263291D01*
X82950866Y-96330484D01*
X82930650Y-96397365D01*
X82879275Y-96441882D01*
X82821267Y-96468931D01*
X82821265Y-96468932D01*
X82634858Y-96599454D01*
X82473956Y-96760356D01*
X82359687Y-96923550D01*
X82305110Y-96967174D01*
X82262011Y-96976365D01*
X82240679Y-96977036D01*
X82240672Y-96976842D01*
X82236130Y-96977200D01*
X80326427Y-96977200D01*
X80259388Y-96957515D01*
X80224852Y-96924323D01*
X80089694Y-96731297D01*
X79922602Y-96564206D01*
X79922596Y-96564201D01*
X79737042Y-96434275D01*
X79693417Y-96379698D01*
X79686223Y-96310200D01*
X79717746Y-96247845D01*
X79737042Y-96231125D01*
X79827765Y-96167600D01*
X79922601Y-96101195D01*
X80089695Y-95934101D01*
X80224852Y-95741077D01*
X80279429Y-95697452D01*
X80326427Y-95688200D01*
X82261157Y-95688200D01*
X82288165Y-95691177D01*
G37*
%TD.AperFunction*%
%TA.AperFunction,NonConductor*%
G36*
X97528165Y-95691177D02*
G01*
X97529227Y-95691414D01*
X97590370Y-95725228D01*
X97603794Y-95741314D01*
X97713954Y-95898641D01*
X97874858Y-96059545D01*
X97874861Y-96059547D01*
X98061266Y-96190068D01*
X98119275Y-96217118D01*
X98171714Y-96263291D01*
X98190866Y-96330484D01*
X98170650Y-96397365D01*
X98119275Y-96441882D01*
X98061267Y-96468931D01*
X98061265Y-96468932D01*
X97874858Y-96599454D01*
X97713954Y-96760358D01*
X97583432Y-96946765D01*
X97583431Y-96946767D01*
X97487261Y-97153002D01*
X97487258Y-97153011D01*
X97428366Y-97372802D01*
X97428364Y-97372813D01*
X97408532Y-97599498D01*
X97408532Y-97599501D01*
X97428364Y-97826186D01*
X97428366Y-97826197D01*
X97487258Y-98045988D01*
X97487261Y-98045997D01*
X97583431Y-98252232D01*
X97583432Y-98252234D01*
X97713954Y-98438641D01*
X97874858Y-98599545D01*
X97874861Y-98599547D01*
X98061266Y-98730068D01*
X98119275Y-98757118D01*
X98171714Y-98803291D01*
X98190866Y-98870484D01*
X98170650Y-98937365D01*
X98119275Y-98981882D01*
X98061267Y-99008931D01*
X98061265Y-99008932D01*
X97874858Y-99139454D01*
X97713956Y-99300356D01*
X97599687Y-99463550D01*
X97545110Y-99507174D01*
X97502011Y-99516365D01*
X97480679Y-99517036D01*
X97480672Y-99516842D01*
X97476130Y-99517200D01*
X95566427Y-99517200D01*
X95499388Y-99497515D01*
X95464852Y-99464323D01*
X95329694Y-99271297D01*
X95162602Y-99104206D01*
X95162596Y-99104201D01*
X94977042Y-98974275D01*
X94933417Y-98919698D01*
X94926223Y-98850200D01*
X94957746Y-98787845D01*
X94977042Y-98771125D01*
X95067765Y-98707600D01*
X95162601Y-98641195D01*
X95329695Y-98474101D01*
X95465235Y-98280530D01*
X95565103Y-98066363D01*
X95626263Y-97838108D01*
X95646859Y-97602700D01*
X95626263Y-97367292D01*
X95565103Y-97139037D01*
X95465235Y-96924871D01*
X95464852Y-96924323D01*
X95329694Y-96731297D01*
X95162602Y-96564206D01*
X95162596Y-96564201D01*
X94977042Y-96434275D01*
X94933417Y-96379698D01*
X94926223Y-96310200D01*
X94957746Y-96247845D01*
X94977042Y-96231125D01*
X95067765Y-96167600D01*
X95162601Y-96101195D01*
X95329695Y-95934101D01*
X95464852Y-95741077D01*
X95519429Y-95697452D01*
X95566427Y-95688200D01*
X97501157Y-95688200D01*
X97528165Y-95691177D01*
G37*
%TD.AperFunction*%
%TA.AperFunction,NonConductor*%
G36*
X82288165Y-98231177D02*
G01*
X82289227Y-98231414D01*
X82350370Y-98265228D01*
X82363794Y-98281314D01*
X82473954Y-98438641D01*
X82634858Y-98599545D01*
X82634861Y-98599547D01*
X82821266Y-98730068D01*
X82879275Y-98757118D01*
X82931714Y-98803291D01*
X82950866Y-98870484D01*
X82930650Y-98937365D01*
X82879275Y-98981882D01*
X82821267Y-99008931D01*
X82821265Y-99008932D01*
X82634858Y-99139454D01*
X82473956Y-99300356D01*
X82359687Y-99463550D01*
X82305110Y-99507174D01*
X82262011Y-99516365D01*
X82240679Y-99517036D01*
X82240672Y-99516842D01*
X82236130Y-99517200D01*
X80326427Y-99517200D01*
X80259388Y-99497515D01*
X80224852Y-99464323D01*
X80089694Y-99271297D01*
X79922602Y-99104206D01*
X79922596Y-99104201D01*
X79737042Y-98974275D01*
X79693417Y-98919698D01*
X79686223Y-98850200D01*
X79717746Y-98787845D01*
X79737042Y-98771125D01*
X79827765Y-98707600D01*
X79922601Y-98641195D01*
X80089695Y-98474101D01*
X80224852Y-98281077D01*
X80279429Y-98237452D01*
X80326427Y-98228200D01*
X82261157Y-98228200D01*
X82288165Y-98231177D01*
G37*
%TD.AperFunction*%
%TA.AperFunction,NonConductor*%
G36*
X97528165Y-100771177D02*
G01*
X97529227Y-100771414D01*
X97590370Y-100805228D01*
X97603794Y-100821314D01*
X97713954Y-100978641D01*
X97874858Y-101139545D01*
X97874861Y-101139547D01*
X98061266Y-101270068D01*
X98119275Y-101297118D01*
X98171714Y-101343291D01*
X98190866Y-101410484D01*
X98170650Y-101477365D01*
X98119275Y-101521882D01*
X98061267Y-101548931D01*
X98061265Y-101548932D01*
X97874858Y-101679454D01*
X97713956Y-101840356D01*
X97599687Y-102003550D01*
X97545110Y-102047174D01*
X97502011Y-102056365D01*
X97480679Y-102057036D01*
X97480672Y-102056842D01*
X97476130Y-102057200D01*
X95566427Y-102057200D01*
X95499388Y-102037515D01*
X95464852Y-102004323D01*
X95329694Y-101811297D01*
X95162602Y-101644206D01*
X95162596Y-101644201D01*
X94977042Y-101514275D01*
X94933417Y-101459698D01*
X94926223Y-101390200D01*
X94957746Y-101327845D01*
X94977042Y-101311125D01*
X95067765Y-101247600D01*
X95162601Y-101181195D01*
X95329695Y-101014101D01*
X95464852Y-100821077D01*
X95519429Y-100777452D01*
X95566427Y-100768200D01*
X97501157Y-100768200D01*
X97528165Y-100771177D01*
G37*
%TD.AperFunction*%
%TA.AperFunction,NonConductor*%
G36*
X82288165Y-100771177D02*
G01*
X82289227Y-100771414D01*
X82350370Y-100805228D01*
X82363794Y-100821314D01*
X82473954Y-100978641D01*
X82634858Y-101139545D01*
X82634861Y-101139547D01*
X82821266Y-101270068D01*
X82879275Y-101297118D01*
X82931714Y-101343291D01*
X82950866Y-101410484D01*
X82930650Y-101477365D01*
X82879275Y-101521882D01*
X82821267Y-101548931D01*
X82821265Y-101548932D01*
X82634858Y-101679454D01*
X82473956Y-101840356D01*
X82359687Y-102003550D01*
X82305110Y-102047174D01*
X82262011Y-102056365D01*
X82240679Y-102057036D01*
X82240672Y-102056842D01*
X82236130Y-102057200D01*
X80326427Y-102057200D01*
X80259388Y-102037515D01*
X80224852Y-102004323D01*
X80089694Y-101811297D01*
X79922602Y-101644206D01*
X79922596Y-101644201D01*
X79737042Y-101514275D01*
X79693417Y-101459698D01*
X79686223Y-101390200D01*
X79717746Y-101327845D01*
X79737042Y-101311125D01*
X79827765Y-101247600D01*
X79922601Y-101181195D01*
X80089695Y-101014101D01*
X80224852Y-100821077D01*
X80279429Y-100777452D01*
X80326427Y-100768200D01*
X82261157Y-100768200D01*
X82288165Y-100771177D01*
G37*
%TD.AperFunction*%
%TA.AperFunction,NonConductor*%
G36*
X97528165Y-103311177D02*
G01*
X97529227Y-103311414D01*
X97590370Y-103345228D01*
X97603794Y-103361314D01*
X97713954Y-103518641D01*
X97874858Y-103679545D01*
X97874861Y-103679547D01*
X98061266Y-103810068D01*
X98119275Y-103837118D01*
X98171714Y-103883291D01*
X98190866Y-103950484D01*
X98170650Y-104017365D01*
X98119275Y-104061882D01*
X98061267Y-104088931D01*
X98061265Y-104088932D01*
X97874858Y-104219454D01*
X97713956Y-104380356D01*
X97599687Y-104543550D01*
X97545110Y-104587174D01*
X97502011Y-104596365D01*
X97480679Y-104597036D01*
X97480672Y-104596842D01*
X97476130Y-104597200D01*
X95566427Y-104597200D01*
X95499388Y-104577515D01*
X95464852Y-104544323D01*
X95329694Y-104351297D01*
X95162602Y-104184206D01*
X95162596Y-104184201D01*
X94977042Y-104054275D01*
X94933417Y-103999698D01*
X94926223Y-103930200D01*
X94957746Y-103867845D01*
X94977042Y-103851125D01*
X95059757Y-103793207D01*
X95162601Y-103721195D01*
X95329695Y-103554101D01*
X95464852Y-103361077D01*
X95519429Y-103317452D01*
X95566427Y-103308200D01*
X97501157Y-103308200D01*
X97528165Y-103311177D01*
G37*
%TD.AperFunction*%
%TA.AperFunction,NonConductor*%
G36*
X82288165Y-103311177D02*
G01*
X82289227Y-103311414D01*
X82350370Y-103345228D01*
X82363794Y-103361314D01*
X82473954Y-103518641D01*
X82634858Y-103679545D01*
X82634861Y-103679547D01*
X82821266Y-103810068D01*
X82879275Y-103837118D01*
X82931714Y-103883291D01*
X82950866Y-103950484D01*
X82930650Y-104017365D01*
X82879275Y-104061882D01*
X82821267Y-104088931D01*
X82821265Y-104088932D01*
X82634858Y-104219454D01*
X82473956Y-104380356D01*
X82359687Y-104543550D01*
X82305110Y-104587174D01*
X82262011Y-104596365D01*
X82240679Y-104597036D01*
X82240672Y-104596842D01*
X82236130Y-104597200D01*
X80326427Y-104597200D01*
X80259388Y-104577515D01*
X80224852Y-104544323D01*
X80089694Y-104351297D01*
X79922602Y-104184206D01*
X79922596Y-104184201D01*
X79737042Y-104054275D01*
X79693417Y-103999698D01*
X79686223Y-103930200D01*
X79717746Y-103867845D01*
X79737042Y-103851125D01*
X79819757Y-103793207D01*
X79922601Y-103721195D01*
X80089695Y-103554101D01*
X80224852Y-103361077D01*
X80279429Y-103317452D01*
X80326427Y-103308200D01*
X82261157Y-103308200D01*
X82288165Y-103311177D01*
G37*
%TD.AperFunction*%
%TA.AperFunction,NonConductor*%
G36*
X97528165Y-105851177D02*
G01*
X97529227Y-105851414D01*
X97590370Y-105885228D01*
X97603794Y-105901314D01*
X97713954Y-106058641D01*
X97874858Y-106219545D01*
X97874861Y-106219547D01*
X98061266Y-106350068D01*
X98119275Y-106377118D01*
X98171714Y-106423291D01*
X98190866Y-106490484D01*
X98170650Y-106557365D01*
X98119275Y-106601882D01*
X98061267Y-106628931D01*
X98061265Y-106628932D01*
X97874858Y-106759454D01*
X97713956Y-106920356D01*
X97599687Y-107083550D01*
X97545110Y-107127174D01*
X97502011Y-107136365D01*
X97480679Y-107137036D01*
X97480672Y-107136842D01*
X97476130Y-107137200D01*
X95566427Y-107137200D01*
X95499388Y-107117515D01*
X95464852Y-107084323D01*
X95329694Y-106891297D01*
X95162602Y-106724206D01*
X95162596Y-106724201D01*
X94977042Y-106594275D01*
X94933417Y-106539698D01*
X94926223Y-106470200D01*
X94957746Y-106407845D01*
X94977042Y-106391125D01*
X95035679Y-106350067D01*
X95162601Y-106261195D01*
X95329695Y-106094101D01*
X95464852Y-105901077D01*
X95519429Y-105857452D01*
X95566427Y-105848200D01*
X97501157Y-105848200D01*
X97528165Y-105851177D01*
G37*
%TD.AperFunction*%
%TA.AperFunction,NonConductor*%
G36*
X82288165Y-105851177D02*
G01*
X82289227Y-105851414D01*
X82350370Y-105885228D01*
X82363794Y-105901314D01*
X82473954Y-106058641D01*
X82634858Y-106219545D01*
X82634861Y-106219547D01*
X82821266Y-106350068D01*
X82879275Y-106377118D01*
X82931714Y-106423291D01*
X82950866Y-106490484D01*
X82930650Y-106557365D01*
X82879275Y-106601882D01*
X82821267Y-106628931D01*
X82821265Y-106628932D01*
X82634858Y-106759454D01*
X82473956Y-106920356D01*
X82359687Y-107083550D01*
X82305110Y-107127174D01*
X82262011Y-107136365D01*
X82240679Y-107137036D01*
X82240672Y-107136842D01*
X82236130Y-107137200D01*
X80326427Y-107137200D01*
X80259388Y-107117515D01*
X80224852Y-107084323D01*
X80089694Y-106891297D01*
X79922602Y-106724206D01*
X79922596Y-106724201D01*
X79737042Y-106594275D01*
X79693417Y-106539698D01*
X79686223Y-106470200D01*
X79717746Y-106407845D01*
X79737042Y-106391125D01*
X79795679Y-106350067D01*
X79922601Y-106261195D01*
X80089695Y-106094101D01*
X80224852Y-105901077D01*
X80279429Y-105857452D01*
X80326427Y-105848200D01*
X82261157Y-105848200D01*
X82288165Y-105851177D01*
G37*
%TD.AperFunction*%
%TA.AperFunction,NonConductor*%
G36*
X97528165Y-108391177D02*
G01*
X97529227Y-108391414D01*
X97590370Y-108425228D01*
X97603794Y-108441314D01*
X97713954Y-108598641D01*
X97874858Y-108759545D01*
X97874861Y-108759547D01*
X98061266Y-108890068D01*
X98119275Y-108917118D01*
X98171714Y-108963291D01*
X98190866Y-109030484D01*
X98170650Y-109097365D01*
X98119275Y-109141882D01*
X98061267Y-109168931D01*
X98061265Y-109168932D01*
X97874858Y-109299454D01*
X97713956Y-109460356D01*
X97599687Y-109623550D01*
X97545110Y-109667174D01*
X97502011Y-109676365D01*
X97480679Y-109677036D01*
X97480672Y-109676842D01*
X97476130Y-109677200D01*
X95566427Y-109677200D01*
X95499388Y-109657515D01*
X95464852Y-109624323D01*
X95329694Y-109431297D01*
X95162602Y-109264206D01*
X95162596Y-109264201D01*
X94977042Y-109134275D01*
X94933417Y-109079698D01*
X94926223Y-109010200D01*
X94957746Y-108947845D01*
X94977042Y-108931125D01*
X95035679Y-108890067D01*
X95162601Y-108801195D01*
X95329695Y-108634101D01*
X95464852Y-108441077D01*
X95519429Y-108397452D01*
X95566427Y-108388200D01*
X97501157Y-108388200D01*
X97528165Y-108391177D01*
G37*
%TD.AperFunction*%
%TA.AperFunction,NonConductor*%
G36*
X82288165Y-108391177D02*
G01*
X82289227Y-108391414D01*
X82350370Y-108425228D01*
X82363794Y-108441314D01*
X82473954Y-108598641D01*
X82634858Y-108759545D01*
X82634861Y-108759547D01*
X82821266Y-108890068D01*
X82879275Y-108917118D01*
X82931714Y-108963291D01*
X82950866Y-109030484D01*
X82930650Y-109097365D01*
X82879275Y-109141882D01*
X82821267Y-109168931D01*
X82821265Y-109168932D01*
X82634858Y-109299454D01*
X82473956Y-109460356D01*
X82359687Y-109623550D01*
X82305110Y-109667174D01*
X82262011Y-109676365D01*
X82240679Y-109677036D01*
X82240672Y-109676842D01*
X82236130Y-109677200D01*
X80326427Y-109677200D01*
X80259388Y-109657515D01*
X80224852Y-109624323D01*
X80089694Y-109431297D01*
X79922602Y-109264206D01*
X79922596Y-109264201D01*
X79737042Y-109134275D01*
X79693417Y-109079698D01*
X79686223Y-109010200D01*
X79717746Y-108947845D01*
X79737042Y-108931125D01*
X79795679Y-108890067D01*
X79922601Y-108801195D01*
X80089695Y-108634101D01*
X80224852Y-108441077D01*
X80279429Y-108397452D01*
X80326427Y-108388200D01*
X82261157Y-108388200D01*
X82288165Y-108391177D01*
G37*
%TD.AperFunction*%
M02*
