%TF.GenerationSoftware,KiCad,Pcbnew,9.0.5*%
%TF.CreationDate,2025-10-22T14:58:33+01:00*%
%TF.ProjectId,ZX Interface 1 ROM Adapter,5a582049-6e74-4657-9266-616365203120,rev?*%
%TF.SameCoordinates,Original*%
%TF.FileFunction,Soldermask,Top*%
%TF.FilePolarity,Negative*%
%FSLAX46Y46*%
G04 Gerber Fmt 4.6, Leading zero omitted, Abs format (unit mm)*
G04 Created by KiCad (PCBNEW 9.0.5) date 2025-10-22 14:58:33*
%MOMM*%
%LPD*%
G01*
G04 APERTURE LIST*
%ADD10R,2.400000X1.600000*%
%ADD11O,2.400000X1.600000*%
%ADD12R,1.700000X1.700000*%
%ADD13O,1.700000X1.700000*%
G04 APERTURE END LIST*
D10*
%TO.C,J2*%
X83874000Y-82359500D03*
D11*
X83874000Y-84899500D03*
X83874000Y-87439500D03*
X83874000Y-89979500D03*
X83874000Y-92519500D03*
X83874000Y-95059500D03*
X83874000Y-97599500D03*
X83874000Y-100139500D03*
X83874000Y-102679500D03*
X83874000Y-105219500D03*
X83874000Y-107759500D03*
X83874000Y-110299500D03*
X99114000Y-110299500D03*
X99114000Y-107759500D03*
X99114000Y-105219500D03*
X99114000Y-102679500D03*
X99114000Y-100139500D03*
X99114000Y-97599500D03*
X99114000Y-95059500D03*
X99114000Y-92519500D03*
X99114000Y-89979500D03*
X99114000Y-87439500D03*
X99114000Y-84899500D03*
X99114000Y-82359500D03*
%TD*%
D12*
%TO.C,J1*%
X103266875Y-84839175D03*
D13*
X103266875Y-87379175D03*
X103266875Y-89919175D03*
X103266875Y-92459175D03*
X103266875Y-94999175D03*
X103266875Y-97539175D03*
X103266875Y-100079175D03*
X103266875Y-102619175D03*
%TD*%
D12*
%TO.C,J3*%
X79051200Y-72202700D03*
D13*
X79051200Y-74742700D03*
X79051200Y-77282700D03*
X79051200Y-79822700D03*
X79051200Y-82362700D03*
X79051200Y-84902700D03*
X79051200Y-87442700D03*
X79051200Y-89982700D03*
X79051200Y-92522700D03*
X79051200Y-95062700D03*
X79051200Y-97602700D03*
X79051200Y-100142700D03*
X79051200Y-102682700D03*
X79051200Y-105222700D03*
X79051200Y-107762700D03*
X79051200Y-110302700D03*
%TD*%
D12*
%TO.C,J4*%
X94291200Y-72202700D03*
D13*
X94291200Y-74742700D03*
X94291200Y-77282700D03*
X94291200Y-79822700D03*
X94291200Y-82362700D03*
X94291200Y-84902700D03*
X94291200Y-87442700D03*
X94291200Y-89982700D03*
X94291200Y-92522700D03*
X94291200Y-95062700D03*
X94291200Y-97602700D03*
X94291200Y-100142700D03*
X94291200Y-102682700D03*
X94291200Y-105222700D03*
X94291200Y-107762700D03*
X94291200Y-110302700D03*
%TD*%
M02*
